<svg width="85" height="85" viewBox="0 0 85 85" fill="none" xmlns="http://www.w3.org/2000/svg">
<path d="M57.7038 53.1431C57.114 52.79 56.3491 52.9821 55.996 53.5721C55.6429 54.1621 55.835 54.9268 56.425 55.2799C57.7986 56.102 58.5553 56.9985 58.5553 57.8043C58.5553 60.0628 52.4473 63.2133 42.5001 63.2133C32.5529 63.2133 26.4449 60.063 26.4449 57.8043C26.4449 55.5457 32.5529 52.3954 42.5001 52.3954C45.6625 52.3954 48.7365 52.7339 51.3897 53.374C52.0578 53.5359 52.731 53.1243 52.8922 52.4558C53.0536 51.7874 52.6423 51.1146 51.974 50.9534C49.1324 50.2677 45.8564 49.9053 42.5003 49.9053C33.5099 49.9053 23.9548 52.6738 23.9548 57.8045C23.9548 62.9352 33.5097 65.7034 42.5001 65.7034C51.4905 65.7034 61.0455 62.9349 61.0455 57.8042C61.0455 56.5903 60.4658 54.796 57.7038 53.1431Z" fill="black"/>
<path d="M72.088 22.3251C64.1657 19.514 53.6577 17.9659 42.5 17.9659C31.3423 17.9659 20.8343 19.5141 12.912 22.3251C4.58552 25.2797 0 29.3725 0 33.8498V65.789C0 66.4766 0.55748 67.0341 1.24512 67.0341H19.8764C20.3223 67.0341 20.734 66.7957 20.956 66.4091C21.1781 66.0224 21.1765 65.5466 20.9518 65.1616L15.9212 56.5376C17.2469 49.7368 28.9189 44.4105 42.5 44.4105C49.4189 44.4105 55.9957 45.7634 61.0194 48.2197C65.6265 50.4726 68.4705 53.4149 69.0781 56.5388L64.0482 65.1616C63.8235 65.5466 63.8219 66.0226 64.044 66.4091C64.266 66.7957 64.6779 67.0341 65.1236 67.0341H83.7549C84.4425 67.0341 85 66.4766 85 65.789V33.8498C85 29.3725 80.4145 25.2797 72.088 22.3251ZM82.4972 33.5348L79.9178 37.9567C78.9512 36.2782 77.3498 34.7016 75.1206 33.248C74.5445 32.8723 73.773 33.0348 73.3975 33.6109C73.0218 34.1869 73.1843 34.9584 73.7604 35.3339C76.3001 36.9899 77.8778 38.8126 78.3577 40.6313L74.9657 46.4464C73.7423 43.6276 70.98 41.0542 66.8769 38.9541L73.1081 25.3755C78.9007 27.7258 82.2685 30.6392 82.4972 33.5348ZM61.1233 45.5208C58.3435 44.2799 55.1798 43.3384 51.7927 42.7301L52.4759 37.1644C56.5662 37.7911 60.3397 38.8062 63.5795 40.1683L61.1233 45.5208ZM23.7044 37.9643C23.9039 38.6224 24.5994 38.9936 25.2573 38.7944C27.5297 38.1051 29.9715 37.5614 32.5246 37.1689L33.2076 42.7329C29.8202 43.3415 26.6561 44.2838 23.8782 45.5238L17.7668 32.2065C17.7995 32.1947 17.8314 32.1826 17.8641 32.171C21.8322 30.7541 26.4988 29.7126 31.5337 29.0956L32.2213 34.6973C29.5234 35.1085 26.94 35.6817 24.5346 36.4112C23.8765 36.6109 23.5048 37.3062 23.7044 37.9643ZM6.64129 40.6292C7.35233 37.9263 10.5136 35.2538 15.4471 33.1219L18.1238 38.9547C14.0238 41.0543 11.2603 43.6311 10.036 46.4487L6.64129 40.6292ZM30.5502 21.0832L31.2304 26.6251C26.0105 27.2656 21.1612 28.3497 17.0267 29.826C16.925 29.8624 16.8257 29.8997 16.7249 29.9364L14.2317 24.5034C18.9007 22.9002 24.4755 21.7399 30.5502 21.0832ZM34.01 28.8291C36.7665 28.5731 39.6132 28.4408 42.5 28.4408C45.3958 28.4408 48.2403 28.5725 50.9902 28.8268L50.3102 34.3671C47.7825 34.0825 45.165 33.9353 42.5 33.9353C39.8461 33.9353 37.2278 34.0842 34.6903 34.3709L34.01 28.8291ZM53.4667 29.0924C58.5467 29.7135 63.2363 30.768 67.2328 32.2074L64.6184 37.9044C61.1578 36.4414 57.1324 35.3554 52.7792 34.693L53.4667 29.0924ZM70.7681 24.5034L68.2753 29.9358C64.0654 28.3991 59.1197 27.277 53.7698 26.6223L54.4496 21.0833C60.5245 21.7399 66.0993 22.9002 70.7681 24.5034ZM51.9699 20.8463L51.2937 26.3553C48.4427 26.0889 45.4963 25.9507 42.5 25.9507C39.5129 25.9507 36.5643 26.0894 33.7067 26.3576L33.0301 20.8463C36.0951 20.5893 39.2675 20.4561 42.5 20.4561C45.7325 20.4561 48.9049 20.5893 51.9699 20.8463ZM11.892 25.3755L14.4078 30.8575C9.84987 32.8351 6.64942 35.2803 5.08755 37.9656L2.50285 33.5348C2.73146 30.6392 6.09925 27.7258 11.892 25.3755ZM2.49023 64.5439V38.4554L17.7086 64.5441L2.49023 64.5439ZM14.2677 53.7032L11.8152 49.4991C11.987 46.494 14.571 43.5867 19.1625 41.2187L21.645 46.628C18.0801 48.5923 15.549 51.0277 14.2677 53.7032ZM35.6703 42.3549L34.9936 36.8424C37.43 36.5681 39.9465 36.4257 42.5 36.4257C45.0654 36.4257 47.5814 36.5659 50.0071 36.8375L49.33 42.3529C47.1139 42.0684 44.8239 41.9203 42.5 41.9203C40.1786 41.9203 37.8884 42.0697 35.6703 42.3549ZM63.3547 46.6286L65.8365 41.2207C70.3685 43.5681 73.007 46.5285 73.1843 49.4996L70.7328 53.7024C69.4543 51.0289 66.9282 48.5968 63.3547 46.6286ZM82.5098 64.5439H67.2914L82.5098 38.4554V64.5439Z" fill="black"/>
</svg>
