<svg width="85" height="85" viewBox="0 0 85 85" fill="none" xmlns="http://www.w3.org/2000/svg">
<g clip-path="url(#clip0_77_10)">
<path d="M32.908 78.7966C32.8003 78.7966 32.6907 78.785 32.5824 78.7636C32.478 78.7415 32.3736 78.7104 32.2718 78.6689C32.1726 78.6274 32.0759 78.5755 31.9851 78.5158C31.895 78.4562 31.8087 78.3868 31.7322 78.3103C31.6564 78.2337 31.5863 78.1494 31.5267 78.058C31.467 77.9679 31.4158 77.8699 31.3743 77.7707C31.3327 77.6709 31.301 77.5664 31.2796 77.4601C31.2575 77.3524 31.2458 77.2428 31.2458 77.1345C31.2458 77.0269 31.2575 76.9173 31.2796 76.8109C31.301 76.7046 31.3327 76.6002 31.3743 76.499C31.4158 76.3991 31.467 76.3032 31.5267 76.213C31.5863 76.1216 31.6564 76.0373 31.7322 75.9608C31.8087 75.8842 31.895 75.8148 31.9851 75.7532C32.0759 75.6936 32.1726 75.6423 32.2718 75.6008C32.3736 75.5593 32.478 75.5276 32.5824 75.5062C32.7984 75.4627 33.0176 75.4627 33.2335 75.5062C33.3379 75.5276 33.4423 75.5593 33.5435 75.6008C33.6434 75.6423 33.74 75.6936 33.8295 75.7532C33.9209 75.8148 34.0052 75.8842 34.083 75.9608C34.1596 76.0373 34.2296 76.1216 34.2893 76.213C34.3489 76.3032 34.4002 76.3991 34.4417 76.499C34.4832 76.6002 34.5149 76.7046 34.5363 76.8109C34.5584 76.9173 34.5701 77.0269 34.5701 77.1345C34.5701 77.2422 34.5584 77.3518 34.5363 77.4601C34.5149 77.5664 34.4832 77.6709 34.4417 77.7707C34.4002 77.8699 34.3489 77.9679 34.2893 78.058C34.2296 78.1494 34.1596 78.2337 34.083 78.3103C34.0052 78.3868 33.9209 78.4562 33.8295 78.5158C33.74 78.5755 33.6434 78.6274 33.5435 78.6689C33.4423 78.7104 33.3379 78.7415 33.2335 78.7636C33.1252 78.785 33.0156 78.7966 32.908 78.7966Z" fill="black"/>
<path d="M51.175 66.3214C50.4629 66.3214 49.804 65.8604 49.5861 65.1438C49.3189 64.2664 49.8137 63.3377 50.6912 63.0705L67.8894 57.8326C68.7668 57.5654 69.6955 58.0602 69.9626 58.9383C70.2298 59.8157 69.735 60.7443 68.8576 61.0115L51.6594 66.2495C51.4979 66.2981 51.3351 66.3214 51.175 66.3214Z" fill="black"/>
<path d="M76.5618 69.4433C76.4885 69.4148 70.2934 67.5153 70.2934 67.5153L76.0118 65.778C78.0682 65.1528 79.7582 63.7644 80.7712 61.8682C81.7841 59.9713 81.9975 57.7943 81.373 55.7386C80.7491 53.6854 79.3613 51.9954 77.4619 50.9779C75.5631 49.9669 73.3867 49.7536 71.3336 50.3774L64.1884 52.5479C66.39 48.3755 67.296 43.6473 66.7629 38.8633C65.7435 29.7162 55.9829 14.7774 55.5679 14.1457C55.254 13.6684 54.7138 13.3824 54.1457 13.3974C53.5744 13.409 53.0491 13.7132 52.7547 14.2034C52.7391 14.2294 51.8948 15.6353 51.0225 17.0795C50.1542 15.7741 48.9266 14.5575 47.6627 13.3053C44.9117 10.5783 42.0668 7.75865 42.7367 3.80409C42.963 2.46818 43.033 1.12773 42.022 0.374177C41.4312 -0.0655057 40.6582 -0.121277 39.9539 0.225671C37.8885 1.24382 34.9235 7.54659 34.0643 9.45447C33.2686 11.2203 31.7323 14.8565 30.8568 18.4077L28.5248 15.005C28.1843 14.5089 27.6026 14.2346 27.004 14.2897C26.4048 14.3442 25.8821 14.7177 25.637 15.267C25.2829 16.0607 16.9789 34.8251 19.093 44.3191C19.176 44.6946 19.2785 45.1972 19.4231 45.9495C19.8868 48.3496 20.7181 50.666 21.8744 52.8067L13.8771 50.3774C11.8233 49.7536 9.64694 49.9669 7.74489 50.9799C5.84867 51.9948 4.46088 53.6854 3.83703 55.7386C3.21252 57.795 3.42653 59.972 4.43884 61.8682C5.45179 63.7644 7.14178 65.1535 9.19818 65.778L14.9166 67.5153C14.9166 67.5153 8.72218 69.4148 8.64825 69.4433C4.72936 70.9465 2.6159 75.2727 3.83703 79.2914C4.46024 81.3452 5.84868 83.0346 7.74619 84.0514C8.92127 84.6785 10.2235 85.0002 11.5341 85.0002C12.1294 85.0002 12.7267 84.934 13.3149 84.7998C13.3914 84.7823 24.8633 81.3154 24.8633 81.3154C25.7414 81.0482 26.2369 80.1209 25.9703 79.2428C25.7032 78.3647 24.7758 77.8693 23.8977 78.1358L18.2454 79.853C18.7869 78.2953 18.8589 76.5626 18.3492 74.8829C17.8492 73.2383 16.8596 71.8266 15.5094 70.8078L72.2985 53.557C73.5041 53.1906 74.7829 53.3164 75.8964 53.9092C77.0112 54.5064 77.827 55.4986 78.1934 56.7042C78.5598 57.911 78.4346 59.1892 77.84 60.3027C77.2453 61.4168 76.2531 62.232 75.0456 62.5984L39.286 73.4614C38.4086 73.728 37.9125 74.656 38.1796 75.5334C38.3969 76.2506 39.0558 76.713 39.7685 76.713C39.9286 76.713 40.0908 76.6897 40.2516 76.6404L42.605 75.9257C42.605 75.9257 71.8186 84.7823 71.8952 84.7998C72.4827 84.934 73.08 85.0002 73.6753 85.0002C74.9866 85.0002 76.2887 84.6779 77.4645 84.0501C79.3613 83.0352 80.7491 81.3452 81.3723 79.2914C82.5941 75.2727 80.4806 70.9465 76.5618 69.4433ZM22.6857 45.3191C22.5346 44.5357 22.4269 44.0053 22.3361 43.598C20.9023 37.1545 25.3179 24.8985 27.5118 19.4051L30.2206 23.3564L30.2251 23.5237C30.231 26.1994 31.0487 28.7687 32.5915 30.9555C32.9151 31.4146 33.4287 31.6591 33.9508 31.6591C34.2815 31.6591 34.6161 31.5605 34.9073 31.3556C35.657 30.8264 35.836 29.7895 35.3068 29.0398C34.1563 27.4095 33.5487 25.4932 33.5487 23.4977C33.5487 23.4809 33.5481 23.464 33.5481 23.4478L33.5286 22.8116C33.6103 18.2365 36.9689 10.5602 39.3878 6.25283C39.9027 10.2917 42.8579 13.2203 45.3242 15.6645C47.221 17.5452 49.0128 19.3214 48.937 20.8843C48.937 20.8888 48.9363 20.894 48.9363 20.8986C48.9363 20.9024 48.9363 20.907 48.9357 20.9109C48.9357 20.9232 48.935 20.9349 48.935 20.9472V20.9491V20.9504V20.9569L48.9292 21.6151C48.9292 22.6015 48.7781 23.5788 48.4798 24.5185C48.2029 25.3933 48.6873 26.3271 49.5621 26.6047C49.7294 26.6572 49.898 26.6825 50.0647 26.6825C50.7696 26.6825 51.4233 26.2299 51.6477 25.5224C52.0485 24.2571 52.2521 22.9426 52.2521 21.6314L52.2534 21.4491C52.706 20.7183 53.505 19.3986 54.2099 18.2306C56.9466 22.7131 62.7494 32.842 63.4614 39.2304C64.0548 44.5565 62.5743 49.8035 59.2883 54.0356L53.0044 55.9448C54.1418 54.0674 54.8026 51.8813 54.8026 49.5733C54.8026 46.9242 53.9719 44.4106 52.4012 42.3023C52.4006 42.3016 52.4 42.3016 52.4 42.301L43.937 30.9756C43.6232 30.556 43.1303 30.3089 42.6057 30.3089C42.0817 30.3089 41.5888 30.556 41.2749 30.9756L32.8165 42.2952C31.2413 44.408 30.4087 46.9242 30.4087 49.5726C30.4087 51.8852 31.0228 54.0518 32.0902 55.9091L26.8458 54.3164C24.757 51.7127 23.3206 48.6077 22.6857 45.3191ZM33.7309 49.5733C33.7309 47.6459 34.336 45.8159 35.4786 44.2835L42.605 34.746L49.7372 44.29C50.8766 45.8198 51.4791 47.6466 51.4791 49.5733C51.4791 54.5213 47.3527 58.7016 42.4682 58.7016C41.8119 58.7016 41.1718 58.6257 40.557 58.4817L39.5168 58.1659C36.1466 56.8987 33.7309 53.5252 33.7309 49.5733ZM10.1644 62.5984C8.95694 62.232 7.96473 61.4162 7.37006 60.3027C6.77538 59.1892 6.65022 57.911 7.01662 56.7042C7.38303 55.4986 8.19884 54.5058 9.31037 53.9104C10.0075 53.5395 10.7682 53.3508 11.5347 53.3508C11.9958 53.3508 12.4588 53.4189 12.9108 53.5564L36.8891 60.8403L20.6332 65.7786L10.1644 62.5984ZM9.31361 81.1209C8.19819 80.5236 7.38238 79.5307 7.01662 78.3258C6.3117 76.0042 7.5004 73.5094 9.72865 72.5892C10.7948 72.3745 11.9076 72.538 12.8732 73.0542C13.988 73.6508 14.8038 74.6436 15.1702 75.8492C15.8751 78.1702 14.6871 80.665 12.4601 81.5845C11.3921 81.8005 10.2792 81.6364 9.31361 81.1209ZM64.5768 69.2514L69.7 70.8078C68.3505 71.8259 67.3602 73.2377 66.8609 74.8829C66.3505 76.5626 66.4225 78.2947 66.9646 79.853L48.3209 74.1897L64.5768 69.2514ZM78.194 78.3258C77.8276 79.5314 77.0118 80.5242 75.8983 81.1202C74.9314 81.6364 73.818 81.8005 72.7499 81.5845C70.5229 80.665 69.3349 78.1702 70.0404 75.8492C70.4062 74.6436 71.222 73.6508 72.3355 73.0548C73.3031 72.5386 74.4152 72.3745 75.4814 72.5898C77.7103 73.5094 78.899 76.0042 78.194 78.3258Z" fill="black"/>
</g>
<defs>
<clipPath id="clip0_77_10">
<rect width="85" height="85" fill="white"/>
</clipPath>
</defs>
</svg>
