<svg width="85" height="85" viewBox="0 0 85 85" fill="none" xmlns="http://www.w3.org/2000/svg">
<path fill-rule="evenodd" clip-rule="evenodd" d="M71.2796 47.8808C71.2796 48.2649 70.9712 48.5768 70.5836 48.5768H66.3899C66.3635 48.5768 66.337 48.5768 66.3193 48.5785C64.6943 48.7128 61.9772 49.6454 62.1081 55.0443L62.6103 65.4024C56.1085 65.4439 51.1394 64.2122 47.1308 61.5524L52.0116 49.2226C52.0205 49.19 52.0293 49.1565 52.0468 49.123C52.4433 47.7328 52.4521 46.1601 52.0645 44.3163C52.0557 44.3005 52.0557 44.2828 52.0468 44.2678L48.9457 32.1839C48.8488 31.8209 49.0691 31.4429 49.4302 31.3415L49.624 31.2878C49.9587 31.1926 50.2936 31.3495 50.4434 31.6701L54.3551 40.3077C55.0159 41.7666 55.985 42.9869 57.1655 43.9154C57.7558 44.4397 58.4517 44.8536 59.2006 45.125C60.0023 45.4704 60.8657 45.7118 61.7644 45.8369L70.6802 47.065C71.0237 47.1135 71.2793 47.4033 71.2793 47.754V47.8808H71.2796ZM63.5089 75.5818C63.686 76.2219 63.0067 76.7858 62.4165 76.4566C62.2404 76.3589 62.1081 76.1994 62.0552 76.0073L59.562 67.5231C60.0819 67.5539 60.6192 67.5752 61.1566 67.5866L63.5089 75.5818ZM51.0867 72.737C51.1572 72.5449 51.1484 72.3389 51.0603 72.1582L49.0164 67.8349C48.893 67.5821 48.8755 67.2923 48.9635 67.0252L49.5186 65.3266C49.0516 65.1239 48.5848 64.9091 48.1355 64.6773L47.2015 67.5442L49.686 72.8057C49.9747 73.4068 50.8505 73.3805 51.0867 72.737ZM61.2975 35.2216C59.0773 35.2216 57.2624 37.0321 57.2624 39.2567C57.2624 40.4665 57.7998 41.5526 58.6455 42.2928C59.0597 42.5984 59.5001 42.8567 59.9758 43.069C60.3899 43.2126 60.8392 43.291 61.2974 43.291C63.5264 43.291 65.3325 41.4814 65.3325 39.2569C65.3327 37.0319 63.5266 35.2216 61.2975 35.2216ZM70.9801 44.889L65.2182 44.0953C66.6279 42.9517 67.5353 41.209 67.5353 39.2567C67.5353 35.8207 64.7337 33.0252 61.2977 33.0252C58.5578 33.0252 56.223 34.8075 55.395 37.2716L52.4436 30.7618C51.8445 29.451 50.4084 28.7839 49.0252 29.1734L48.8314 29.2271C47.3337 29.6509 46.4263 31.2217 46.8139 32.7308L49.915 44.7892C50.2146 46.2218 50.2234 47.4596 49.9415 48.4665L44.77 61.5541C44.585 62.0211 44.7436 62.5523 45.1487 62.8475C45.4923 63.095 45.8359 63.3303 46.1883 63.5584L44.9724 67.2755C44.8844 67.5442 44.9019 67.8341 45.0253 68.0869L47.7036 73.7457C48.8219 76.1127 52.2629 75.955 53.1571 73.476C53.4214 72.7308 53.3774 71.9299 53.0425 71.2179L51.1836 67.2921L51.5711 66.1028C53.3155 66.6675 55.1833 67.0711 57.2095 67.3151L59.9408 76.6256C60.6871 79.1284 64.1019 79.5296 65.3678 77.2097C65.7466 76.5155 65.8348 75.7173 65.6145 74.9615L63.4472 67.5847C63.8671 67.5782 64.2207 67.5964 64.5661 67.2279C64.7688 67.0103 64.8745 66.7221 64.8568 66.4278L64.3106 54.9544C64.2314 50.9959 65.8437 50.8118 66.4251 50.773H70.5834C72.178 50.773 73.4731 49.4763 73.4731 47.8807V47.7538C73.4733 46.2934 72.4249 45.0881 70.9801 44.889ZM42.435 25.162C41.1928 25.5269 39.9153 25.592 38.6994 25.3716C42.5642 23.288 45.5545 19.1456 46.5228 14.737C47.1836 14.6708 47.8356 14.5088 48.4698 14.2525C49.7634 18.8249 47.0794 23.8066 42.435 25.162ZM38.1886 15.6454C36.6203 18.3563 35.9949 21.3976 36.4354 24.0018C40.208 22.5884 43.2607 18.7241 44.294 14.6021C42.8947 14.29 41.6095 13.5504 40.6378 12.4904C39.7038 13.3987 38.8669 14.4718 38.1886 15.6454ZM34.1094 22.7208C33.9796 18.3319 36.0809 13.6823 39.4044 10.6306C39.1312 10.0244 38.9463 9.37685 38.8582 8.70637C36.6557 9.25785 34.6381 10.7037 33.3871 12.8755C31.5744 16.0225 31.8027 20.0061 34.1094 22.7208ZM41.2369 8.46327C43.1247 8.57717 44.6442 9.19631 46.0825 10.4271C46.6588 10.9203 47.1897 11.5897 47.5891 12.2385C46.2323 12.775 44.6994 12.6737 43.4042 11.924C42.1091 11.1751 41.2545 9.90028 41.0431 8.45885C41.1046 8.46055 41.1751 8.46055 41.2369 8.46327ZM49.4921 22.1711C46.5514 27.2508 40.1519 29.2759 35.0786 26.348C30.0114 23.4234 28.5533 16.8587 31.484 11.7778C33.3045 8.62154 36.5046 6.64767 39.7832 6.31192C41.364 6.15008 42.5059 6.31685 43.9504 6.73828C45.3872 7.1575 46.9155 8.13619 47.9767 9.18934V9.19546C48.8489 10.0669 49.5624 11.0967 50.0735 12.2534C50.0911 12.2913 50.1086 12.3292 50.1175 12.3689C51.4214 15.3889 51.2981 19.0329 49.4921 22.1711ZM37.096 34.7176L31.9509 46.5224C31.9158 46.6007 31.8892 46.6845 31.8804 46.769L30.136 56.6698C30.048 57.172 30.3121 57.6689 30.788 57.8707L35.9244 60.0758C36.3562 60.3277 37.4221 61.0829 36.3473 64.3717L34.5501 70.2137C34.3668 70.8235 33.4454 70.6617 33.4665 70.0305L33.6866 63.4678C33.7043 63.0185 33.4488 62.6052 33.0347 62.4255L28.9996 60.6521C28.471 60.4204 27.8631 60.6344 27.5899 61.141L19.5287 76.2628C19.2273 76.8308 18.243 76.4697 18.4011 75.8409L22.075 61.2539C22.0926 61.1772 22.1102 61.0988 22.1102 61.0196L22.2599 56.0075C22.2599 55.9846 22.2599 55.9599 22.2599 55.9361C22.1894 53.8579 21.1058 51.8702 18.9561 49.8642L13.8903 44.9086C13.4374 44.4677 13.9876 43.725 14.5423 44.0329L20.1897 47.1755C21.8283 48.0847 23.6872 48.245 25.5727 47.6398C26.3216 47.4028 27.0352 47.0582 27.7047 46.6426C28.5152 46.2461 29.2376 45.6778 29.8015 44.9845C31.0348 43.7864 32.0128 42.3953 32.6119 41.1257L35.8276 34.1489C36.2134 33.3084 37.4629 33.9 37.096 34.7176ZM24.9908 36.9968C22.7619 36.9968 20.9557 38.8073 20.9557 41.0319C20.9557 43.2573 22.7618 45.066 24.9908 45.066C25.581 45.066 26.1449 44.9356 26.656 44.703C27.1933 44.3578 27.7043 43.9498 28.1713 43.5074C28.7087 42.8237 29.0259 41.9647 29.0259 41.0317C29.0259 38.8073 27.211 36.9968 24.9908 36.9968ZM37.3869 31.7053L37.3603 31.6973C35.9684 31.2304 34.4442 31.8894 33.8274 33.2294L30.9993 39.3824C30.2681 36.7446 27.8541 34.7993 24.9908 34.7993C20.0732 34.7993 17.0654 40.2681 19.7664 44.4244L15.608 42.1117C14.358 41.4166 12.8764 41.7693 12.0047 42.9716C11.2558 44.072 11.3968 45.5467 12.3571 46.4799L17.4494 51.4602C19.1498 53.0415 20.0044 54.52 20.0661 55.9798L19.9163 60.8333L16.269 75.3032C15.9077 76.7524 16.7448 78.2044 18.1896 78.6078C18.5131 78.7015 18.7282 78.7488 19.0706 78.7488C20.0572 78.7488 20.9824 78.2114 21.4757 77.2959L29.0524 63.0729L31.4664 64.1362L31.2638 69.9545C31.2181 71.3041 32.1383 72.4632 33.484 72.7367C34.876 73.0257 36.2416 72.217 36.6557 70.8575L38.4354 65.0454C39.8274 60.8068 38.3914 58.9478 36.9552 58.1337C36.92 58.1152 36.8847 58.0977 36.8495 58.0808L32.4531 56.1937L34.0214 47.2787L39.1137 35.5946C39.7953 34.0365 38.991 32.239 37.3869 31.7053Z" fill="black"/>
</svg>
