<svg width="85" height="85" viewBox="0 0 85 85" fill="none" xmlns="http://www.w3.org/2000/svg">
<path d="M2.65625 81.0156H5.3125V83.6719H2.65625V81.0156Z" fill="black"/>
<path d="M79.6875 81.0156H82.3438V83.6719H79.6875V81.0156Z" fill="black"/>
<path d="M25.2344 49.1406H59.7656V51.7969H25.2344V49.1406Z" fill="black"/>
<path d="M82.3438 43.8281H80.2188L68.6641 32.2734C68.3984 32.0078 68.1328 31.875 67.7344 31.875H58.3047C54.4531 27.7578 48.7422 25.2344 42.5 25.2344C36.2578 25.2344 30.5469 27.7578 26.6953 31.875H17.2656C16.8672 31.875 16.6016 32.0078 16.3359 32.2734L4.78125 43.8281H2.65625C1.85937 43.8281 1.32812 44.3594 1.32812 45.1562V50.4688C1.32812 51.2656 1.85937 51.7969 2.65625 51.7969H10.625V81.0156H7.96875V83.6719H77.0312V81.0156H74.375V51.7969H82.3438C83.1406 51.7969 83.6719 51.2656 83.6719 50.4688V45.1562C83.6719 44.3594 83.1406 43.8281 82.3438 43.8281ZM67.2031 34.5312L76.5 43.8281H63.75C63.4844 40.375 62.4219 37.3203 60.5625 34.5312H67.2031ZM63.75 61.0938H66.4062V70.3906H63.75V61.0938ZM61.0938 81.0156H53.125V61.0938H57.1094V58.4375H27.8906V61.0938H31.875V81.0156H23.9062V46.4844H61.0938V81.0156ZM41.1719 61.0938V81.0156H34.5312V61.0938H41.1719ZM43.8281 61.0938H50.4688V81.0156H43.8281V61.0938ZM21.25 70.3906H18.5938V61.0938H21.25V70.3906ZM52.8594 36.7891C54.4531 38.7813 55.5156 41.1719 55.7812 43.8281H45.8203L52.8594 36.7891ZM43.8281 41.9688V31.875C46.4844 32.1406 49.0078 33.2031 50.8672 34.7969L43.8281 41.9688ZM41.1719 41.9688L34.1328 34.9297C36.125 33.3359 38.5156 32.2734 41.1719 32.0078V41.9688ZM32.2734 36.7891L39.3125 43.8281H29.3516C29.6172 41.1719 30.5469 38.7813 32.2734 36.7891ZM42.5 27.8906C52.3281 27.8906 60.2969 34.9297 60.9609 43.8281H58.3047C57.6406 35.7266 50.7344 29.2188 42.5 29.2188C34.2656 29.2188 27.3594 35.7266 26.6953 43.8281H24.0391C24.7031 34.9297 32.6719 27.8906 42.5 27.8906ZM17.7969 34.5312H24.5703C22.7109 37.3203 21.5156 40.375 21.3828 43.8281H8.5L17.7969 34.5312ZM13.2812 51.7969H19.9219V49.1406H3.98438V46.4844H21.25V58.4375H17.2656C16.4687 58.4375 15.9375 58.9687 15.9375 59.7656V71.7188C15.9375 72.5156 16.4687 73.0469 17.2656 73.0469H21.25V81.0156H13.2812V51.7969ZM81.0156 49.1406H65.0781V51.7969H71.7188V81.0156H63.75V73.0469H67.7344C68.5313 73.0469 69.0625 72.5156 69.0625 71.7188V59.7656C69.0625 58.9687 68.5313 58.4375 67.7344 58.4375H63.75V46.4844H81.0156V49.1406Z" fill="black"/>
<path d="M2.65625 23.9062H23.9062C24.7031 23.9062 25.2344 23.375 25.2344 22.5781V18.5938C25.2344 14.2109 21.6484 10.625 17.2656 10.625C13.6797 10.625 10.7578 12.8828 9.69531 16.2031C9.16406 16.0703 8.5 15.9375 7.96875 15.9375C4.25 15.9375 1.32812 18.8594 1.32812 22.5781C1.32812 23.375 1.85937 23.9062 2.65625 23.9062ZM7.96875 18.5938C9.42969 18.5938 10.7578 19.3906 11.4219 20.7188L13.8125 19.5234C13.4141 18.7266 12.75 18.0625 12.0859 17.3984C12.6172 15.0078 14.7422 13.2812 17.2656 13.2812C20.1875 13.2812 22.5781 15.6719 22.5781 18.5938V21.25H4.25C4.78125 19.6562 6.24219 18.5938 7.96875 18.5938Z" fill="black"/>
<path d="M48.7422 18.3281C49.0078 18.5938 49.2734 18.5938 49.6719 18.5938H82.3438C83.1406 18.5938 83.6719 18.0625 83.6719 17.2656C83.6719 13.5469 80.75 10.625 77.0312 10.625C76.5 10.625 76.1016 10.625 75.5703 10.7578C75.0391 7.70313 72.3828 5.3125 69.0625 5.3125C68.2656 5.3125 67.6016 5.44531 66.8047 5.71094C65.4766 3.05469 62.6875 1.32812 59.7656 1.32812C56.3125 1.32812 53.2578 3.58594 52.1953 6.64062C49.0078 7.17188 46.4844 9.96094 46.4844 13.2812C46.4844 15.1406 47.2813 17 48.7422 18.3281ZM53.125 9.29688C53.9219 9.29688 54.7188 9.5625 55.3828 9.96094L56.8437 7.70313C56.3125 7.30469 55.6484 7.03906 54.9844 6.90625C55.9141 5.17969 57.7734 3.98438 59.7656 3.98438C62.1562 3.98438 64.2813 5.57813 64.9453 7.83594C65.0781 8.23438 65.3437 8.63281 65.7422 8.76562C66.1406 8.89844 66.5391 8.89844 66.9375 8.63281C67.4688 8.23437 68.2656 7.96875 69.0625 7.96875C71.3203 7.96875 73.0469 9.69531 73.0469 11.9531V12.4844V13.0156C73.1797 13.5469 73.5781 13.9453 74.1094 14.0781C74.5078 14.0781 74.7734 14.0781 75.0391 13.8125C75.7031 13.4141 76.3672 13.2812 77.0312 13.2812C78.7578 13.2812 80.2187 14.3437 80.75 15.9375H50.2031C49.5391 15.2734 49.1406 14.2109 49.1406 13.2812C49.1406 11.0234 50.8672 9.29688 53.125 9.29688Z" fill="black"/>
</svg>
