<svg width="85" height="85" viewBox="0 0 85 85" fill="none" xmlns="http://www.w3.org/2000/svg">
<path fill-rule="evenodd" clip-rule="evenodd" d="M82.3438 72.3649H58.9933C55.9187 69.1035 50.1764 67.027 43.6604 66.8055V63.3863C45.4694 63.023 48.061 62.4016 49.8035 60.9038C51.8078 59.1811 53.0724 56.098 53.0251 53.049C53.0153 52.4213 52.5087 51.9147 51.881 51.905C48.9389 51.8553 45.7846 53.1481 44.039 55.112C43.9043 55.2636 43.7798 55.4212 43.6603 55.5817V52.016C43.805 52.0569 43.953 52.0901 44.1037 52.1146C44.3205 52.1502 44.5372 52.1676 44.7523 52.1676C45.5761 52.1674 46.3748 51.9108 47.0518 51.4202C47.9038 50.8029 48.4638 49.8912 48.6286 48.8533C48.7233 48.2571 48.6813 47.6604 48.5114 47.099C48.9754 46.7468 49.3583 46.2916 49.6315 45.7567C50.1112 44.8187 50.196 43.7509 49.8706 42.7502C49.3408 41.1206 47.8416 40.0715 46.2179 40.0345C45.6809 38.4962 44.2168 37.3897 42.4993 37.3897C40.7819 37.3897 39.3176 38.496 38.7808 40.0343C37.1573 40.0717 35.6577 41.1206 35.1281 42.75C34.6 44.3742 35.1973 46.104 36.4886 47.0923C36.3176 47.6541 36.2749 48.2519 36.3694 48.8493C36.5337 49.8895 37.0939 50.8024 37.9465 51.4203C38.804 52.0416 39.9143 52.287 40.9921 52.093C41.109 52.0721 41.2232 52.0451 41.3357 52.0147V55.5766C41.2174 55.4178 41.0942 55.262 40.9609 55.112C39.215 53.1481 36.0641 51.856 33.1188 51.905C32.4911 51.9147 31.9846 52.4211 31.9748 53.049C31.9275 56.098 33.192 59.1812 35.1963 60.9038C36.9378 62.4006 39.527 63.0222 41.3356 63.3856V66.8057C34.8209 67.0276 29.0803 69.1042 26.0062 72.3649H2.65625C2.01443 72.3649 1.49414 72.8852 1.49414 73.527V82.3438C1.49414 82.9856 2.01443 83.5059 2.65625 83.5059H82.3438C82.9856 83.5059 83.5059 82.9856 83.5059 82.3438V73.527C83.5059 72.885 82.9856 72.3649 82.3438 72.3649ZM45.776 56.6562C46.8295 55.471 48.7425 54.5703 50.6323 54.3069C50.3867 56.2436 49.512 58.0897 48.2886 59.1412C47.2051 60.0726 45.4469 60.6048 44.0104 60.9344C44.3675 59.3214 44.8106 57.7422 45.776 56.6562ZM36.7119 59.1411C35.4883 58.0895 34.6136 56.2436 34.3681 54.3067C36.2576 54.5703 38.1708 55.4711 39.2242 56.656C40.1896 57.7421 40.6328 59.3214 40.9899 60.9342C39.5534 60.6048 37.7954 60.0726 36.7119 59.1411ZM40.5812 49.8054C40.1283 49.887 39.6538 49.7869 39.3105 49.5382C38.9617 49.2856 38.7326 48.9119 38.6652 48.4864C38.598 48.0609 38.7007 47.6345 38.9547 47.2864C39.1737 46.9861 39.2358 46.5993 39.1221 46.2456C39.0082 45.8919 38.7323 45.6138 38.3793 45.4977C37.518 45.214 37.0608 44.3227 37.3386 43.4682C37.6125 42.625 38.5214 42.1618 39.3648 42.4361C39.7186 42.5515 40.1061 42.4895 40.407 42.2711C40.708 42.0524 40.8862 41.703 40.8862 41.3309C40.8862 40.4391 41.6098 39.7136 42.4995 39.7136C43.3892 39.7136 44.1128 40.4392 44.1128 41.3311C44.1128 41.7031 44.291 42.0526 44.592 42.2712C44.8928 42.4897 45.2803 42.551 45.6342 42.4362C46.4774 42.162 47.3865 42.6253 47.6604 43.4684C47.7934 43.8776 47.7585 44.3146 47.5623 44.6985C47.3666 45.0814 47.0345 45.3643 46.6271 45.4954C46.2724 45.6096 45.994 45.8869 45.8784 46.2412C45.7629 46.5956 45.8241 46.9837 46.0434 47.2851C46.2981 47.6352 46.4012 48.0627 46.3335 48.4885C46.2662 48.9127 46.0371 49.2854 45.6885 49.5379C45.3399 49.7904 44.9105 49.8907 44.4784 49.8205C44.0556 49.7514 43.6887 49.5258 43.4453 49.1851C43.227 48.8793 42.8745 48.6984 42.4997 48.6984C42.4934 48.6984 42.487 48.6984 42.4809 48.6985C42.0991 48.7047 41.7445 48.8981 41.5328 49.2158C41.2569 49.6295 40.8183 49.7627 40.5812 49.8054ZM81.1816 81.1816H3.81836V74.6891H26.5256C26.8668 74.6891 27.1907 74.5392 27.4115 74.279C30.078 71.1384 36.0008 69.109 42.5002 69.109C48.9993 69.109 54.9221 71.1384 57.5887 74.279C57.8095 74.539 58.1334 74.6891 58.4745 74.6891H81.1816V81.1816ZM61.8906 32.3994C64.9923 32.3994 67.5157 29.876 67.5157 26.7743C67.5157 23.6727 64.9923 21.1492 61.8906 21.1492C58.789 21.1492 56.2657 23.6727 56.2657 26.7743C56.2657 29.876 58.789 32.3994 61.8906 32.3994ZM61.8906 23.4736C63.7107 23.4736 65.1915 24.9543 65.1915 26.7745C65.1915 28.5947 63.7108 30.0754 61.8906 30.0754C60.0704 30.0754 58.5899 28.5947 58.5899 26.7745C58.5899 24.9543 60.0704 23.4736 61.8906 23.4736ZM59.9345 53.2829L66.2419 50.6105C67.3534 50.1643 68.201 49.209 68.5108 48.0527L69.1126 45.8067L71.691 49.4639C72.1275 50.0843 72.6828 50.6065 73.3211 51.0015V67.1199C73.3211 69.4626 75.2272 71.3686 77.5698 71.3686C79.9126 71.3686 81.8186 69.4628 81.8186 67.1199V46.7955C81.9495 45.4647 81.5992 44.1324 80.8279 43.0359L73.8409 33.1263C72.7527 31.579 71.4717 30.7069 70.034 30.5343C68.7789 30.3842 67.4736 30.7776 66.1546 31.7055C64.6742 32.7466 64.1269 34.8468 63.7998 36.1018C63.7771 36.1888 63.756 36.2701 63.7361 36.3446L61.5961 44.3307L56.7818 46.3316C56.7672 46.3378 56.7526 46.3441 56.7382 46.3507C55.8136 46.7804 55.1117 47.5442 54.7616 48.5018C54.4116 49.4594 54.4555 50.4958 54.8849 51.4203C55.7688 53.3222 58.0298 54.1541 59.9345 53.2829ZM56.9447 49.2998C57.0793 48.9318 57.3466 48.6369 57.6989 48.4674L63.0165 46.2573C63.3497 46.1188 63.5996 45.8334 63.6931 45.485L65.9811 36.9461C66.0023 36.8668 66.0249 36.7804 66.049 36.6878C66.2631 35.8665 66.7086 34.1572 67.4915 33.6064C68.3269 33.0187 69.0894 32.7607 69.7569 32.8419C70.5125 32.9325 71.2469 33.478 71.9405 34.4643L78.9275 44.374C79.385 45.0243 79.5887 45.8175 79.5014 46.6072C79.4967 46.6497 79.4944 46.6924 79.4944 46.7351V67.1198C79.4944 68.181 78.6311 69.0442 77.5698 69.0442C76.5086 69.0442 75.6454 68.181 75.6454 67.1198V50.3022C75.6454 49.8405 75.3719 49.4225 74.9489 49.2376C74.4052 48.9997 73.9359 48.6157 73.5912 48.1258L69.5821 42.4394C69.3622 42.1273 69.0061 41.9468 68.6325 41.9468C68.5649 41.9468 68.4967 41.9526 68.4286 41.9648C67.9847 42.044 67.6265 42.3725 67.5098 42.8081L66.2656 47.4511C66.142 47.9128 65.8156 48.2788 65.3703 48.456C65.3623 48.4593 65.3542 48.4625 65.3462 48.4659L59.0112 51.1497C58.999 51.1549 58.987 51.1602 58.9749 51.1659C58.2287 51.5128 57.3393 51.1876 56.9925 50.4414C56.825 50.0796 56.8079 49.6742 56.9447 49.2998ZM23.1094 32.3994C26.211 32.3994 28.7343 29.876 28.7343 26.7743C28.7343 23.6727 26.2109 21.1492 23.1094 21.1492C20.0077 21.1492 17.4843 23.6727 17.4843 26.7743C17.4843 29.876 20.0077 32.3994 23.1094 32.3994ZM23.1094 23.4736C24.9294 23.4736 26.4101 24.9543 26.4101 26.7745C26.4101 28.5947 24.9294 30.0754 23.1094 30.0754C21.2893 30.0754 19.8085 28.5947 19.8085 26.7745C19.8085 24.9543 21.2893 23.4736 23.1094 23.4736ZM3.18136 67.1199C3.18136 69.4626 5.08738 71.3686 7.4302 71.3686C9.77284 71.3686 11.6789 69.4628 11.6789 67.1199V51.0017C12.3172 50.6067 12.8722 50.0848 13.3081 49.4649L15.8874 45.8067L16.4892 48.0529C16.799 49.209 17.6468 50.1643 18.7581 50.6105L25.0654 53.2827C25.9849 53.7036 27.0132 53.7442 27.964 53.3969C28.9216 53.047 29.6854 52.3451 30.1149 51.4205C30.5444 50.4961 30.5884 49.4595 30.2383 48.502C29.8883 47.5444 29.1864 46.7805 28.2618 46.3509C28.2476 46.3443 28.233 46.3379 28.2182 46.3318L23.4037 44.3308L21.2638 36.3448C21.2439 36.2703 21.2226 36.1889 21.1999 36.1018C20.8728 34.8467 20.3255 32.7464 18.8453 31.7057C17.5263 30.7778 16.2207 30.3845 14.9658 30.5344C13.5279 30.7071 12.2471 31.5792 11.1597 33.1254L4.17131 43.0371C3.40066 44.1326 3.05037 45.4647 3.18119 46.7957L3.18136 67.1199ZM6.07169 44.3751L13.0603 34.4635C13.7532 33.478 14.4877 32.9325 15.2431 32.8419C15.3226 32.8322 15.4033 32.8276 15.4854 32.8276C16.0934 32.8276 16.7726 33.0887 17.5085 33.6064C18.2916 34.1571 18.737 35.8662 18.951 36.6876C18.9751 36.7803 18.9977 36.8668 19.0189 36.9461L21.3069 45.485C21.4002 45.8336 21.6503 46.1188 21.9835 46.2573L27.3011 48.4674C27.6536 48.6369 27.9208 48.9318 28.0553 49.2998C28.1923 49.6742 28.1752 50.0796 28.007 50.4412C27.839 50.8028 27.5403 51.0772 27.166 51.214C26.7916 51.351 26.3864 51.3339 26.0246 51.1657C26.0127 51.1602 26.0005 51.1549 25.9883 51.1496L19.6533 48.4658C19.6453 48.4623 19.6372 48.4591 19.6292 48.4558C19.1839 48.2788 18.8575 47.9128 18.7339 47.4511L17.4897 42.808C17.373 42.3723 17.0149 42.0436 16.5709 41.9646C16.1268 41.8851 15.6774 42.0705 15.4175 42.4391L11.4076 48.1264C11.0638 48.6153 10.5946 48.9995 10.0508 49.2372C9.62774 49.4222 9.35432 49.8402 9.35432 50.3019V67.1196C9.35432 68.1808 8.49104 69.0441 7.42986 69.0441C6.36853 69.0441 5.50524 68.1808 5.50524 67.1196V46.7352C5.50524 46.6926 5.50292 46.6499 5.49827 46.6074C5.41128 45.8175 5.61498 45.0244 6.07169 44.3751ZM31.2592 14.5795C31.9585 14.8403 32.4705 15.4043 32.6641 16.1263C32.8576 16.8483 32.6959 17.5925 32.2208 18.1683C31.912 18.5423 31.868 19.0691 32.1106 19.4891C32.3531 19.9091 32.8308 20.1345 33.3095 20.054C34.0452 19.93 34.771 20.1626 35.2996 20.6912C35.8282 21.2198 36.0604 21.9451 35.9366 22.6809C35.8562 23.1593 36.0815 23.6373 36.5015 23.88C36.9214 24.1221 37.4481 24.0784 37.8223 23.7698C38.3934 23.2983 39.1372 23.1393 39.8623 23.334C40.5878 23.5282 41.1523 24.0376 41.4111 24.7315C41.5806 25.1859 42.0147 25.4874 42.5 25.4874C42.9853 25.4874 43.4192 25.1861 43.5889 24.7315C43.8497 24.0323 44.4135 23.5201 45.1355 23.3267C45.858 23.1329 46.6019 23.2948 47.1775 23.7698C47.5517 24.0786 48.0781 24.1222 48.4985 23.88C48.9185 23.6373 49.1438 23.1593 49.0634 22.6809C48.9397 21.9448 49.1718 21.2196 49.7004 20.6912C50.229 20.1624 50.9542 19.9298 51.6905 20.054C52.1688 20.1349 52.6469 19.9093 52.8894 19.4891C53.132 19.0691 53.0881 18.5424 52.7792 18.1683C52.3079 17.5972 52.149 16.8536 52.3434 16.1281C52.5376 15.4028 53.0471 14.8381 53.7409 14.5795C54.1955 14.41 54.4968 13.9757 54.4968 13.4906C54.4968 13.0055 54.1955 12.5714 53.7409 12.4017C53.0417 12.1409 52.5297 11.5771 52.3363 10.8551C52.1427 10.1331 52.3044 9.38885 52.7794 8.81327C53.0881 8.43924 53.1321 7.91247 52.8896 7.49245C52.647 7.07227 52.1691 6.84648 51.6906 6.9275C50.9547 7.05185 50.2294 6.81909 49.7008 6.29033C49.1722 5.76174 48.9399 5.03625 49.0636 4.3003C49.1439 3.82185 48.9187 3.34372 48.4986 3.10117C48.0786 2.85846 47.552 2.90278 47.1777 3.21141C46.6066 3.68306 45.8631 3.84227 45.1377 3.64736C44.4123 3.45312 43.8479 2.94379 43.5891 2.25001C43.4194 1.79546 42.9853 1.49414 42.5 1.49414C42.0149 1.49414 41.5808 1.79546 41.4111 2.25001C41.1503 2.94927 40.5865 3.46143 39.8645 3.65483C39.1425 3.84874 38.3981 3.68704 37.8225 3.21174C37.4483 2.90295 36.9217 2.85929 36.5017 3.1015C36.0815 3.34422 35.8562 3.82218 35.9367 4.30063C36.0604 5.03675 35.8282 5.76207 35.2996 6.2905C34.7708 6.81926 34.045 7.05151 33.3097 6.92767C32.8317 6.84731 32.3533 7.0726 32.1107 7.49262C31.8682 7.9128 31.9122 8.4394 32.221 8.81344C32.6923 9.38453 32.8512 10.1281 32.6569 10.8534C32.4625 11.5788 31.9532 12.1432 31.2594 12.4019C30.8049 12.5714 30.5035 13.0055 30.5035 13.4908C30.5034 13.9759 30.8047 14.41 31.2592 14.5795ZM34.9018 11.4549C35.1093 10.6808 35.1091 9.8771 34.9179 9.12223C35.6699 8.91454 36.3649 8.51195 36.9431 7.93389C37.5187 7.35831 37.9201 6.66702 38.1286 5.91912C38.8807 6.11236 39.6804 6.11037 40.4663 5.8997C41.256 5.68819 41.9521 5.28743 42.508 4.74024C43.0661 5.28328 43.7619 5.68504 44.5362 5.89256C45.3103 6.09991 46.114 6.09975 46.8689 5.90866C47.0764 6.66071 47.479 7.35582 48.0572 7.93389C48.6326 8.50946 49.3239 8.91089 50.0718 9.1194C49.8784 9.87146 49.8804 10.6708 50.0911 11.4569C50.3027 12.2466 50.7033 12.9427 51.2507 13.4986C50.7076 14.0567 50.3057 14.7525 50.0984 15.5268C49.8909 16.3011 49.891 17.1046 50.0823 17.8596C49.3304 18.0673 48.6351 18.4699 48.057 19.048C47.4816 19.6235 47.0802 20.3147 46.8717 21.0626C46.1198 20.8695 45.3204 20.8715 44.534 21.082C43.7443 21.2935 43.0482 21.6943 42.4924 22.2416C41.9342 21.6986 41.2384 21.2966 40.4643 21.0891C40.0694 20.9832 39.6671 20.9316 39.2673 20.9316C38.8832 20.9316 38.5015 20.9794 38.1316 21.0732C37.9239 20.3213 37.5215 19.6262 36.9433 19.0481C36.3677 18.4726 35.6766 18.0711 34.9285 17.8626C35.1219 17.1106 35.1199 16.311 34.9093 15.525C34.6978 14.7352 34.297 14.0391 33.7496 13.4833C34.2925 12.925 34.6943 12.2292 34.9018 11.4549ZM42.5 20.1784C46.1875 20.1784 49.1874 17.1785 49.1874 13.4909C49.1874 9.80339 46.1875 6.80315 42.5 6.80315C38.8125 6.80315 35.8124 9.80322 35.8124 13.4908C35.8124 17.1783 38.8126 20.1784 42.5 20.1784ZM42.5 9.12737C44.9059 9.12737 46.8632 11.0849 46.8632 13.4908C46.8632 15.8967 44.9059 17.854 42.5 17.854C40.0941 17.854 38.1366 15.8967 38.1366 13.4908C38.1366 11.0849 40.0941 9.12737 42.5 9.12737ZM41.2038 45.0538C41.2038 44.3405 41.7856 43.7586 42.499 43.7586C43.2124 43.7586 43.7943 44.3405 43.7943 45.0538C43.7943 45.7672 43.2124 46.3491 42.499 46.3491C41.7856 46.3491 41.2038 45.7674 41.2038 45.0538Z" fill="black"/>
</svg>
