<svg width="85" height="85" viewBox="0 0 85 85" fill="none" xmlns="http://www.w3.org/2000/svg">
<path d="M67.7344 46.4844C65.718 46.4859 63.7206 46.8726 61.8494 47.6239C61.3705 45.4616 61.1195 43.255 61.1004 41.0404C61.6379 41.124 62.1807 41.1683 62.7247 41.1732C63.5874 41.1735 64.4229 40.8708 65.0852 40.318C65.7476 39.7651 66.1947 38.9972 66.3486 38.1483C66.5024 37.2993 66.3533 36.4233 65.9271 35.6732C65.501 34.923 64.8249 34.3463 64.0169 34.0438L55.7812 30.9546V30.5469C56.1335 30.5469 56.4713 30.4069 56.7204 30.1579C56.9694 29.9088 57.1094 29.571 57.1094 29.2188V23.9062C57.1094 23.792 57.0961 23.6805 57.0921 23.5676C57.7007 23.7847 58.3412 23.8992 58.9873 23.9062C59.8675 23.9092 60.731 23.6655 61.4798 23.2028C62.2286 22.7401 62.8328 22.077 63.2241 21.2885L63.6105 20.5155C63.7024 20.3312 63.7502 20.1279 63.75 19.9219V18.9072L64.0927 18.2232L64.3941 18.4038C64.5956 18.5249 64.8257 18.5903 65.0607 18.5934C65.2958 18.5965 65.5274 18.5371 65.732 18.4214C65.9366 18.3056 66.1069 18.1376 66.2253 17.9346C66.3438 17.7315 66.4062 17.5007 66.4062 17.2656V15.9375C66.4031 13.4728 65.4226 11.1099 63.6798 9.36711C61.9369 7.62429 59.5741 6.64379 57.1094 6.64062H56.7494C56.0755 6.6421 55.4153 6.83102 54.8427 7.18626C54.27 7.5415 53.8074 8.04904 53.5067 8.65214C53.206 9.25523 53.079 9.93009 53.1398 10.6012C53.2007 11.2724 53.4471 11.9134 53.8515 12.4525L51.8048 15.5231C50.5592 14.9237 49.1949 14.6114 47.8125 14.6094C42.3538 14.6057 37.017 16.2236 32.4793 19.2578L27.1668 22.7959C25.7548 23.7362 24.597 25.0108 23.7964 26.5065C22.9959 28.0022 22.5774 29.6725 22.5781 31.369C22.5782 34.5493 23.4615 37.6672 25.1294 40.375L28.637 46.0859L26.1455 49.2004C23.2424 47.2485 19.7777 46.306 16.2858 46.5183C12.794 46.7305 9.46901 48.0858 6.82374 50.375C4.17846 52.6642 2.35986 55.7602 1.64846 59.1854C0.937065 62.6106 1.37238 66.1747 2.88728 69.3279C4.40217 72.4812 6.91247 75.0485 10.031 76.6337C13.1495 78.2189 16.7029 78.734 20.1432 78.0996C23.5835 77.4652 26.7194 75.7165 29.0674 73.1232C31.4154 70.53 32.8449 67.2362 33.1354 63.75H34.0159L34.5312 70.4929C34.5571 70.8271 34.7083 71.1392 34.9546 71.3666C35.201 71.5939 35.5242 71.7197 35.8594 71.7188H45.1562C45.5085 71.7188 45.8463 71.5788 46.0954 71.3298C46.3444 71.0807 46.4844 70.7429 46.4844 70.3906V69.0625C46.4832 67.885 46.0914 66.7412 45.3704 65.8103C44.6493 64.8795 43.6398 64.2141 42.5 63.9187V59.9728L59.0166 47.1259C59.1241 47.7089 59.2702 48.2827 59.407 48.8524C56.1388 50.8683 53.7102 53.9984 52.5695 57.6649C51.4288 61.3315 51.653 65.2869 53.2008 68.8011C54.7485 72.3152 57.5153 75.1508 60.9904 76.7845C64.4655 78.4181 68.4142 78.7394 72.1077 77.689C75.8011 76.6387 78.99 74.2877 81.0855 71.07C83.181 67.8523 84.0417 63.9851 83.5088 60.1824C82.9758 56.3797 81.0852 52.8981 78.1858 50.3804C75.2865 47.8627 71.5743 46.4789 67.7344 46.4844ZM36.0812 33.5325L36.9325 32.6798L38.8822 34.1408L37.1264 36.2485L36.0812 33.5325ZM40.0416 43.8281H40.622L40.2023 44.2478L40.0416 43.8281ZM39.019 41.1719L38.2221 39.088L41.0112 35.7372L42.6169 36.9418C42.9356 37.1789 43.2042 37.4769 43.4071 37.8184C43.61 38.16 43.7432 38.5383 43.799 38.9317C43.8548 39.325 43.8321 39.7255 43.7323 40.11C43.6324 40.4945 43.4573 40.8554 43.2172 41.1719H39.019ZM44.2093 34.8181L38.8689 30.8125C40.812 29.0255 43.1166 27.6771 45.6264 26.8587L46.5561 29.6371C46.6438 29.9013 46.8122 30.1312 47.0377 30.2945C47.2631 30.4577 47.5342 30.546 47.8125 30.5469V35.8594C47.8127 36.138 47.9005 36.4095 48.0636 36.6355C48.2266 36.8614 48.4566 37.0304 48.7209 37.1184L58.4375 40.3577V40.8797C58.4375 40.978 58.4494 41.0736 58.4508 41.1719H46.167C46.3703 40.5915 46.4775 39.9819 46.4844 39.367C46.4824 38.4845 46.2759 37.6145 45.8812 36.8253C45.4864 36.0361 44.9142 35.349 44.2093 34.8181ZM53.9869 33.1195L63.0846 36.5301C63.3144 36.611 63.5078 36.7711 63.6303 36.9818C63.7527 37.1924 63.7962 37.4397 63.7529 37.6794C63.7096 37.9192 63.5823 38.1356 63.3939 38.2901C63.2055 38.4445 62.9683 38.5268 62.7247 38.5223C61.787 38.523 60.8555 38.3718 59.9662 38.0747L50.4687 34.9018V30.5469H53.125V31.875C53.1248 32.1455 53.2073 32.4097 53.3613 32.6321C53.5154 32.8544 53.7336 33.0245 53.9869 33.1195ZM56.0681 13.9174C56.6791 14.1366 57.2847 14.3663 57.873 14.6386C56.8205 15.2006 55.7301 15.6887 54.6098 16.0995L56.0681 13.9174ZM61.2332 18.0001C61.1413 18.1845 61.0936 18.3877 61.0937 18.5938V19.6084L60.8467 20.1012C60.6753 20.4474 60.4101 20.7386 60.0815 20.9417C59.7528 21.1448 59.3737 21.2516 58.9873 21.25C58.5662 21.251 58.1489 21.1686 57.7598 21.0074C57.3707 20.8462 57.0173 20.6096 56.7202 20.311C56.5846 20.1776 56.4214 20.0756 56.2421 20.0122C56.0194 19.5271 55.755 19.0623 55.4519 18.623C57.2475 17.9667 58.9722 17.1306 60.5997 16.1274L61.8069 16.8526L61.2332 18.0001ZM56.7494 9.29688H57.1094C58.6858 9.29915 60.2103 9.8612 61.4109 10.8828C62.6116 11.9044 63.4104 13.3192 63.665 14.875L61.2744 13.442C59.7585 12.5333 58.1481 11.7922 56.4719 11.232C56.2691 11.1649 56.0929 11.0351 55.9687 10.8613C55.8446 10.6875 55.7789 10.4787 55.7812 10.2651C55.7816 10.0084 55.8837 9.76234 56.0652 9.58084C56.2467 9.39935 56.4928 9.29723 56.7494 9.29688ZM33.9509 21.4625C38.0537 18.7215 42.8783 17.2608 47.8125 17.2656C49.5731 17.2677 51.2609 17.968 52.5058 19.2129C53.7507 20.4579 54.451 22.1457 54.4531 23.9062V27.8906H48.7701L47.7434 24.8147C47.6377 24.4976 47.4162 24.232 47.1232 24.071C46.8303 23.91 46.4874 23.8654 46.163 23.9461C42.4533 24.8734 39.0654 26.7913 36.3614 29.495L34.421 31.4354L27.443 26.0073C27.8062 25.632 28.2067 25.2947 28.6384 25.0006L33.9509 21.4625ZM25.2344 31.369C25.2382 30.2748 25.4769 29.1941 25.9343 28.2001L33.4236 34.0239L35.6216 39.7348C33.6528 40.8525 31.5154 41.6428 29.2931 42.075L27.3912 38.9845C25.9811 36.6946 25.2345 34.0582 25.2344 31.369ZM17.2656 75.7031C15.1981 75.7068 13.1583 75.2278 11.3086 74.3041C9.45882 73.3805 7.85027 72.0378 6.61098 70.3828C5.37168 68.7279 4.53587 66.8065 4.17009 64.7716C3.8043 62.7367 3.91865 60.6445 4.50403 58.6616C5.0894 56.6787 6.12963 54.8598 7.54191 53.3498C8.95418 51.8398 10.6995 50.6804 12.6389 49.9638C14.5782 49.2472 16.6581 48.9934 18.7129 49.2224C20.7677 49.4514 22.7407 50.1569 24.4747 51.2829L23.6406 52.3281C21.4476 50.9452 18.8642 50.3134 16.2805 50.5281C13.6967 50.7428 11.253 51.7924 9.3184 53.5184C7.38376 55.2443 6.06327 57.5529 5.55634 60.0955C5.04941 62.6381 5.38356 65.2766 6.50835 67.6126C7.63313 69.9485 9.48745 71.855 11.7913 73.0442C14.0951 74.2334 16.7233 74.6406 19.279 74.2045C21.8347 73.7683 24.179 72.5124 25.958 70.6264C27.737 68.7404 28.854 66.3268 29.1404 63.75H30.4791C30.1462 67.0243 28.6109 70.0588 26.1702 72.2667C23.7295 74.4746 20.5568 75.699 17.2656 75.7031ZM30.4791 61.0938H29.1404C28.8409 58.4029 27.6343 55.8941 25.7191 53.9803L26.5505 52.9417C28.7765 55.1136 30.1672 57.9995 30.4791 61.0938ZM16.0703 62.9983C16.1787 63.2233 16.3484 63.4132 16.5598 63.5462C16.7712 63.6791 17.0159 63.7498 17.2656 63.75H26.4562C26.1745 65.7271 25.2645 67.5613 23.8606 68.9817C22.4568 70.4021 20.6335 71.3336 18.6598 71.6385C16.6861 71.9435 14.6667 71.6058 12.8996 70.6753C11.1325 69.7448 9.71135 68.2709 8.84598 66.471C7.98062 64.6711 7.71686 62.6407 8.09365 60.6795C8.47043 58.7182 9.46779 56.9301 10.9385 55.579C12.4092 54.2279 14.2754 53.3855 16.2614 53.1761C18.2475 52.9667 20.2483 53.4013 21.9685 54.4159L16.2284 61.5878C16.0713 61.7839 15.9731 62.0205 15.9451 62.2702C15.9171 62.5198 15.9606 62.7723 16.0703 62.9983ZM20.0281 61.0938L24.0391 56.0774C25.3405 57.4618 26.1844 59.2132 26.4562 61.0938H20.0281ZM33.1354 61.0938C32.8094 57.1947 31.0557 53.5532 28.2107 50.8672L30.1166 48.4845L33.231 53.5473L33.8127 61.0938H33.1354ZM43.8281 69.0625H37.0892L35.8594 53.0227C35.8426 52.8125 35.7766 52.6091 35.6668 52.4291L30.778 44.4842C32.8054 43.9973 34.759 43.2425 36.5872 42.2397L39.8437 50.7158V65.0781C39.8437 65.4304 39.9837 65.7682 40.2327 66.0173C40.4818 66.2663 40.8196 66.4062 41.1719 66.4062C41.8764 66.4062 42.552 66.6861 43.0501 67.1842C43.5483 67.6824 43.8281 68.358 43.8281 69.0625ZM42.5 56.6073V50.4688C42.5003 50.3058 42.4706 50.1442 42.4123 49.992L41.2462 46.9598L44.378 43.8281H58.5703C58.5783 43.9158 58.5876 44.0021 58.5955 44.0938L42.5 56.6073ZM67.7344 75.7031C64.9078 75.7027 62.1551 74.7999 59.8773 73.1262C57.5995 71.4525 55.9156 69.0952 55.0708 66.3978C54.226 63.7004 54.2645 60.8037 55.1806 58.1297C56.0967 55.4556 57.8426 53.1439 60.1641 51.5312C60.3088 51.9762 60.4297 52.4264 60.5944 52.8594C58.1755 54.6829 56.5457 57.3624 56.0389 60.3489C55.5321 63.3354 56.1867 66.4027 57.8685 68.922C59.5504 71.4414 62.1321 73.2222 65.0847 73.8993C68.0372 74.5765 71.1369 74.0988 73.7486 72.5641C76.3602 71.0294 78.286 68.5539 79.1313 65.6451C79.9765 62.7362 79.6772 59.6142 78.2948 56.9189C76.9123 54.2236 74.5513 52.1591 71.6956 51.1485C68.84 50.1379 65.706 50.2577 62.9359 51.4834C62.7871 51.0624 62.6583 50.6348 62.5268 50.2084C64.3388 49.4343 66.3003 49.0731 68.2692 49.151C70.2381 49.2289 72.165 49.7438 73.9102 50.6586C75.6554 51.5734 77.1752 52.865 78.3594 54.4399C79.5437 56.0147 80.3626 57.8334 80.757 59.7639C81.1513 61.6945 81.1111 63.6886 80.6394 65.6017C80.1676 67.5148 79.2761 69.299 78.0294 70.8249C76.7827 72.3508 75.2121 73.5802 73.4315 74.4239C71.6509 75.2676 69.7048 75.7046 67.7344 75.7031ZM63.9293 53.9484C66.0784 52.9782 68.5152 52.8575 70.7497 53.6107C72.9842 54.364 74.8507 55.9352 75.9738 58.0086C77.097 60.0819 77.3936 62.5036 76.8039 64.7867C76.2143 67.0698 74.7821 69.045 72.7954 70.3152C70.8087 71.5854 68.4149 72.0563 66.0951 71.6333C63.7753 71.2103 61.7017 69.9248 60.2912 68.0352C58.8806 66.1456 58.2378 63.792 58.4919 61.4477C58.746 59.1034 59.8782 56.9423 61.6609 55.3988C62.9814 58.2465 64.6857 60.8999 66.7263 63.2852L68.7424 61.5586C66.7844 59.2636 65.1637 56.7011 63.9293 53.9484Z" fill="black"/>
<path d="M33.2031 11.9531H17.2656V14.6094H33.2031V11.9531Z" fill="black"/>
<path d="M22.5781 17.2656H9.29688V19.9219H22.5781V17.2656Z" fill="black"/>
<path d="M18.5938 37.1875H1.32812V39.8438H18.5938V37.1875Z" fill="black"/>
<path d="M9.29688 31.875H1.32812V34.5312H9.29688V31.875Z" fill="black"/>
</svg>
