<svg width="85" height="85" viewBox="0 0 85 85" fill="none" xmlns="http://www.w3.org/2000/svg">
<path d="M0.0165736 17.6309C-0.0664342 13.8789 4.20017 11.2725 7.50388 13.0156C9.06443 6.77343 17.9297 6.19238 20.2373 12.252C22.5449 11.4385 25.2675 12.0527 27.0107 13.7461C28.5049 11.9033 31.3271 11.3389 33.4023 12.501C35.5439 9.06445 40.956 9.79492 42.1513 13.6299C46.3349 12.2852 51.0166 15.0576 51.9629 19.2578C55.167 18.2783 58.7695 20.0547 59.998 23.1094C62.123 21.9971 64.9785 22.8105 66.2236 24.7695C67.7509 21.4326 71.8681 19.4902 75.4873 20.6523C76.8652 16.3027 83.2236 16.1699 84.7343 20.5361C85.1162 21.6484 83.456 22.2461 83.041 21.1338C81.9453 18.0293 77.2968 18.6436 77.0478 21.9307C77.0146 22.5449 76.3174 22.9434 75.7695 22.6777C72.1338 20.8682 67.5351 23.5576 67.2695 27.5918C67.2529 27.8906 67.0703 28.1562 66.8213 28.3057C66.4228 28.5049 65.8584 28.4385 65.5429 28.1396C64.9951 27.9238 64.414 27.8242 63.8164 27.8242C61.4922 27.8242 59.4834 29.4678 59.0185 31.7422C58.9521 32.0576 58.7197 32.3066 58.4209 32.4228C58.122 32.5225 57.7734 32.4561 57.541 32.2402C56.9765 31.7256 56.2295 31.4434 55.4824 31.4434C53.7724 31.4434 52.3779 32.8379 52.3779 34.5478C52.3779 35.0459 51.9795 35.4443 51.4814 35.4443C50.9834 35.4443 50.5849 35.0459 50.5849 34.5478C50.5019 31.0117 54.5195 28.5215 57.6406 30.165C58.7861 27.376 61.8906 25.583 64.9287 26.1475C64.1318 24.3711 61.542 23.8232 60.0976 25.2178C59.6162 25.6826 58.7363 25.3838 58.6201 24.7363C58.1552 22.4619 56.1299 20.8184 53.8222 20.8184C53.0752 20.8184 52.3447 20.9844 51.664 21.333C51.3984 21.4658 51.083 21.4492 50.8174 21.3164C50.5517 21.167 50.3857 20.9014 50.3691 20.6025C50.1035 17.5312 47.497 15.124 44.4092 15.124C43.5293 15.124 42.6826 15.3066 41.8857 15.6885C41.6201 15.8213 41.3047 15.8047 41.0556 15.6553C40.8066 15.5059 40.6406 15.2402 40.6074 14.9414C40.4912 13.3477 39.1299 12.0859 37.5195 12.0859C36.2246 12.0859 35.0459 12.916 34.5976 14.1445C34.415 14.7256 33.6181 14.9414 33.1699 14.5264C31.5761 13.0654 28.8203 13.6631 27.9404 15.6387C27.8076 15.9209 27.5254 16.1201 27.2099 16.1533C26.8945 16.1865 26.5791 16.0371 26.3965 15.7715C25.4834 14.4766 23.9892 13.7129 22.4121 13.7129C21.5986 13.7129 20.8183 13.9121 20.1045 14.2939C19.8554 14.4268 19.5566 14.4434 19.3076 14.3105C19.0586 14.1943 18.8593 13.9619 18.8095 13.6797C18.3447 11.4219 16.3193 9.77832 14.0117 9.77832C11.3388 9.77832 9.13083 11.9531 9.11423 14.6426C9.11423 15.0078 8.89841 15.3232 8.54978 15.4727C8.21775 15.6055 7.83591 15.5391 7.57028 15.2734C6.93942 14.6426 6.09275 14.2939 5.19626 14.2939C3.33689 14.2939 1.82614 15.8047 1.82614 17.6641C1.80954 18.8096 0.0165736 18.8096 0.0165736 17.6309ZM36.3242 32.8213C36.8056 32.8711 37.2539 32.5059 37.3037 32.0078C37.6523 29.2852 34.7968 26.9443 32.207 27.8076C31.2773 23.292 25.0683 22.3125 22.8105 26.3799C21.25 25.7324 19.374 25.9648 18.0127 26.9443C16.7842 25.3174 14.2607 24.9189 12.6006 26.1475C12.2021 26.4297 12.1025 26.9941 12.3847 27.3926C12.667 27.791 13.2314 27.8906 13.6299 27.6084C14.7588 26.7783 16.4853 27.3262 16.9336 28.6543C17.1328 29.2852 18.0293 29.4512 18.4609 28.9365C19.1582 28.1396 20.2041 27.708 21.25 27.8242C22.1299 27.7744 22.7607 28.6875 23.541 28.4551C23.8066 28.3555 24.0058 28.1396 24.1054 27.874C24.5703 26.3965 26.0146 25.4336 27.5586 25.583C29.3515 25.7656 30.6631 27.3594 30.5136 29.1523C30.414 29.916 31.3935 30.4307 31.9746 29.9326C32.8711 29.1689 34.3154 29.3184 35.0293 30.2314C35.3945 30.6797 35.5771 31.2441 35.5107 31.8252C35.4775 32.3398 35.8261 32.7715 36.3242 32.8213ZM84.9834 72.0674V76.1016C84.9834 76.5996 84.5849 76.998 84.0869 76.998H1.72653C1.22849 76.998 0.83005 76.5996 0.83005 76.1016V72.0674C0.83005 71.5693 1.22849 71.1709 1.72653 71.1709H8.49997V65.2275C4.5654 64.5967 2.24118 59.7324 2.24118 51.9463C2.24118 45.5547 5.49509 40.0762 7.43747 37.3867C8.31735 36.0918 10.459 36.0918 11.3388 37.3867C13.2812 40.0762 16.5351 45.5547 16.5351 51.9463C16.5351 59.7324 14.2109 64.5967 10.2763 65.2275V71.1709H26.6455V65.2275C22.7109 64.5967 20.3867 59.7324 20.3867 51.9463C20.3867 45.5547 23.6406 40.0762 25.583 37.3867C26.0312 36.7725 26.7617 36.4072 27.542 36.4072C28.3222 36.4072 29.0527 36.7725 29.5009 37.3867C31.4433 40.0762 34.6972 45.5547 34.6972 51.9463C34.6972 59.7324 32.373 64.5967 28.4384 65.2275V71.1709H43.7451V67.4687H40.0595C39.5615 67.4687 39.1631 67.0703 39.1631 66.5723V63.5342C39.1631 63.0361 39.5615 62.6377 40.0595 62.6377H43.7451V60.2969H40.0595C39.5615 60.2969 39.1631 59.8984 39.1631 59.4004V53.1084C39.1631 52.6103 39.5615 52.2119 40.0595 52.2119H66.9375C67.4355 52.2119 67.834 52.6103 67.834 53.1084V59.4004C67.834 59.8984 67.4355 60.2969 66.9375 60.2969H63.2519V62.6377H66.9375C67.4355 62.6377 67.834 63.0361 67.834 63.5342V66.5723C67.834 67.0703 67.4355 67.4687 66.9375 67.4687H63.2519V71.1709H73.9765V69.3281C73.9931 68.5478 74.6904 68.3652 75.3379 68.4316V66.5723C75.3379 66.0742 75.7363 65.6758 76.2344 65.6758H76.998V42.168H75.5039C75.0722 42.168 74.6904 41.8525 74.624 41.4209L73.8935 37.2041C73.4619 37.1377 73.1299 36.7891 73.1299 36.3408C73.1963 35.7432 72.8974 34.5478 73.5781 34.2158L77.4463 31.9746C77.7285 31.8086 78.0605 31.8086 78.3427 31.9746L82.2109 34.2158C82.4931 34.3818 82.6592 34.6807 82.6592 34.9961V36.3408C82.6592 36.7891 82.3271 37.1543 81.8955 37.2041L81.165 41.4209C81.0986 41.8525 80.7168 42.168 80.2851 42.168H78.791V65.6924H79.5547C80.0527 65.6924 80.4511 66.0908 80.4511 66.5889V68.4316C81.1152 68.3652 81.7959 68.5478 81.8125 69.3281V71.1709H84.0537C84.5849 71.1709 84.9834 71.5693 84.9834 72.0674ZM80.7832 35.4277L77.9111 33.7676L75.039 35.4277H80.7832ZM79.5547 40.3584L80.1025 37.2207H75.7529L76.3008 40.3584H79.5547ZM77.1474 67.4853V68.4316H78.6914V67.4853H77.1474ZM75.7861 71.1709H80.0527V70.2246H75.7861V71.1709ZM66.041 58.5039V54.0049H40.9726V58.5039H66.041ZM45.5547 60.2969V62.6377H61.459V60.2969H45.5547ZM66.041 65.6758V64.4307H40.9726V65.6758H66.041ZM45.5547 67.4853V71.1875H61.459V67.4853H45.5547ZM26.6621 63.3682V62.7871L24.0058 58.4873C23.3916 57.4912 24.9189 56.5449 25.5332 57.541L26.6621 59.3672V51.166C26.6621 49.9873 28.455 49.9873 28.455 51.166V53.8721L29.584 52.0459C30.1982 51.0498 31.7256 51.9795 31.1113 52.9922L28.455 57.292V63.3682C31.2275 62.6211 32.9209 58.3877 32.9209 51.9297C32.9209 46.0527 29.8662 40.9394 28.0566 38.416C27.9072 38.2002 27.6582 38.1836 27.5586 38.1836C27.459 38.1836 27.2099 38.2002 27.0605 38.416C25.2509 40.9394 22.1963 46.0527 22.1963 51.9297C22.2129 58.4043 23.8896 62.6377 26.6621 63.3682ZM8.49997 63.3682V62.7871L5.84372 58.4873C5.22946 57.4912 6.75681 56.5449 7.37107 57.541L8.49997 59.3672V51.166C8.49997 49.9873 10.2929 49.9873 10.2929 51.166V53.8721L11.4218 52.0459C12.0361 51.0498 13.5634 51.9795 12.9492 52.9922L10.2929 57.292V63.3682C13.0654 62.6211 14.7588 58.3877 14.7588 51.9297C14.7588 46.0527 11.7041 40.9394 9.8945 38.416C9.74509 38.2002 9.49607 38.1836 9.39646 38.1836C9.29685 38.1836 9.06442 38.2002 8.89841 38.416C7.08884 40.9394 4.03415 46.0527 4.03415 51.9297C4.05075 58.4043 5.72751 62.6377 8.49997 63.3682ZM83.1904 72.9639H2.62302V75.2051H83.1738V72.9639H83.1904Z" fill="black"/>
</svg>
