<svg width="85" height="85" viewBox="0 0 85 85" fill="none" xmlns="http://www.w3.org/2000/svg">
<g clip-path="url(#clip0_15_28)">
<path d="M84.9023 82.779L66.7095 32.0877C66.4727 31.4281 65.8477 30.9883 65.1469 30.9883H44.1576V20.7984L63.4137 12.2068C64.0121 11.94 64.3975 11.3458 64.3975 10.6907C64.3975 10.0356 64.0122 9.44164 63.4137 9.17468L43.1738 0.144264C42.66 -0.0851693 42.0651 -0.0386849 41.5936 0.267614C41.1218 0.573747 40.8371 1.09786 40.8371 1.66032V30.9883H21.5142C20.8311 30.9883 20.2175 31.4068 19.9683 32.0432L0.114303 82.7345C-0.0857455 83.2454 -0.0205014 83.8223 0.288786 84.2755C0.598073 84.7287 1.11139 85 1.66007 85H83.3398C83.8801 85 84.3867 84.737 84.6976 84.2951C85.0084 83.8532 85.0847 83.2877 84.9023 82.779ZM44.1576 4.21895L58.663 10.6907L44.1576 17.1627V4.21895ZM42.4974 42.4826C46.887 42.4826 49.5526 44.1142 49.5526 44.8317C49.5526 45.5507 46.887 47.1858 42.4974 47.1858C38.1078 47.1858 35.4424 45.5507 35.4424 44.8317C35.4424 44.1142 38.1078 42.4826 42.4974 42.4826ZM4.0932 81.6797L22.6469 34.3086H27.382L8.82846 81.6797H4.0932ZM38.4764 70.006C36.2577 67.7873 36.2577 64.1773 38.4764 61.9585C39.5857 60.849 41.0428 60.2945 42.4999 60.2945C43.957 60.2945 45.4143 60.8492 46.5235 61.9585C48.7421 64.1772 48.7421 67.7872 46.5235 70.006C44.305 72.2248 40.6948 72.2248 38.4764 70.006ZM44.1576 81.6797V74.8349C45.8856 74.5139 47.5373 73.6879 48.8714 72.3539C52.3847 68.8407 52.3847 63.1239 48.8714 59.6107C45.3582 56.0975 39.6416 56.0975 36.1284 59.6107C32.6152 63.1239 32.6152 68.8407 36.1284 72.3539C37.4612 73.6867 39.111 74.5125 40.8373 74.834V81.6797H12.3943L30.9479 34.3086H40.8373V39.231C38.9015 39.3894 37.0996 39.8225 35.646 40.4914C32.58 41.902 32.1221 43.8162 32.1221 44.8317C32.1221 45.8482 32.5798 47.7643 35.6455 49.1761C37.5078 50.0338 39.9411 50.5061 42.4974 50.5061C45.0537 50.5061 47.4874 50.0338 49.3494 49.1761C52.4152 47.7643 52.8729 45.8482 52.8729 44.8317C52.8729 43.8162 52.415 41.902 49.3489 40.4914C47.8953 39.8223 46.0933 39.3894 44.1576 39.231V34.3086H54.0164L71.0178 81.6797H44.1576ZM74.5454 81.6797L57.5441 34.3086H63.9789L80.98 81.6797H74.5454Z" fill="black"/>
</g>
<defs>
<clipPath id="clip0_15_28">
<rect width="85" height="85" fill="white"/>
</clipPath>
</defs>
</svg>
