<svg width="85" height="85" viewBox="0 0 85 85" fill="none" xmlns="http://www.w3.org/2000/svg">
<g clip-path="url(#clip0_47_58)">
<path d="M35.2835 22.8119C35.0841 22.6749 34.851 22.5949 34.6095 22.5806C34.3679 22.5664 34.1271 22.6184 33.9129 22.731C33.6988 22.8436 33.5195 23.0127 33.3944 23.2198C33.2693 23.4269 33.2031 23.6643 33.2031 23.9062V38.5156C33.2031 38.7576 33.2693 38.995 33.3944 39.2021C33.5195 39.4092 33.6988 39.5782 33.9129 39.6909C34.1271 39.8035 34.3679 39.8555 34.6095 39.8412C34.851 39.827 35.0841 39.747 35.2835 39.6099L45.9085 32.3052C46.0861 32.1833 46.2313 32.0199 46.3316 31.8292C46.4319 31.6386 46.4844 31.4264 46.4844 31.2109C46.4844 30.9955 46.4319 30.7833 46.3316 30.5926C46.2313 30.402 46.0861 30.2386 45.9085 30.1166L35.2835 22.8119ZM35.8594 35.9907V26.4311L42.8119 31.2109L35.8594 35.9907Z" fill="black"/>
<path d="M23.9062 65.7422C24.2584 65.7422 24.5962 65.6022 24.8453 65.3532C25.0944 65.1041 25.2343 64.7663 25.2343 64.4141V61.0938C25.2642 60.0696 24.8871 59.0753 24.1855 58.3286C23.484 57.5818 22.5152 57.1434 21.4912 57.1094H13.0399C12.0159 57.1434 11.0471 57.5818 10.3456 58.3286C9.64404 59.0753 9.26694 60.0696 9.29681 61.0938V64.4141C9.29681 64.7663 9.43674 65.1041 9.68581 65.3532C9.93489 65.6023 10.2727 65.7422 10.6249 65.7422C10.9772 65.7422 11.315 65.6023 11.5641 65.3532C11.8131 65.1041 11.9531 64.7663 11.9531 64.4141V61.0938C11.9247 60.7742 12.0226 60.4563 12.2257 60.2081C12.4289 59.9599 12.7211 59.801 13.0399 59.7656H21.4912C21.81 59.8011 22.1022 59.9599 22.3054 60.2081C22.5085 60.4563 22.6064 60.7742 22.5781 61.0938V64.4141C22.5781 64.7663 22.718 65.1041 22.9671 65.3532C23.2161 65.6022 23.554 65.7422 23.9062 65.7422Z" fill="black"/>
<path d="M42.4999 65.7422C42.8522 65.7422 43.19 65.6022 43.439 65.3532C43.6881 65.1041 43.828 64.7663 43.8281 64.4141V61.0938C43.8579 60.0696 43.4808 59.0753 42.7793 58.3286C42.0778 57.5818 41.109 57.1434 40.0849 57.1094H31.6337C30.6097 57.1434 29.6408 57.5818 28.9393 58.3286C28.2378 59.0753 27.8607 60.0696 27.8906 61.0938V64.4141C27.8906 64.7663 28.0305 65.1041 28.2796 65.3532C28.5286 65.6023 28.8664 65.7422 29.2187 65.7422C29.5709 65.7422 29.9087 65.6023 30.1578 65.3532C30.4069 65.1041 30.5468 64.7663 30.5468 64.4141V61.0938C30.5185 60.7742 30.6163 60.4563 30.8195 60.2081C31.0226 59.9599 31.3149 59.801 31.6337 59.7656H40.0849C40.4037 59.8011 40.696 59.9599 40.8991 60.2081C41.1023 60.4563 41.2001 60.7742 41.1718 61.0938V64.4141C41.1718 64.7663 41.3118 65.1041 41.5608 65.3532C41.8099 65.6022 42.1477 65.7422 42.4999 65.7422Z" fill="black"/>
<path d="M12.1943 68.3984H3.74305C2.71903 68.4325 1.75022 68.8709 1.04869 69.6176C0.347164 70.3644 -0.0299355 71.3587 -6.00446e-05 72.3828V75.7031C-6.00446e-05 76.0554 0.139867 76.3932 0.388939 76.6423C0.638011 76.8913 0.975824 77.0312 1.32806 77.0312C1.68031 77.0312 2.01812 76.8913 2.26719 76.6423C2.51626 76.3932 2.65619 76.0554 2.65619 75.7031V72.3828C2.62785 72.0633 2.72572 71.7454 2.92886 71.4972C3.132 71.2489 3.42425 71.0901 3.74305 71.0547H12.1943C12.5131 71.0901 12.8054 71.2489 13.0085 71.4972C13.2116 71.7454 13.3095 72.0633 13.2812 72.3828V75.7031C13.2812 76.0554 13.4211 76.3932 13.6702 76.6423C13.9193 76.8913 14.2571 77.0312 14.6093 77.0312C14.9616 77.0312 15.2994 76.8913 15.5484 76.6423C15.7975 76.3932 15.9374 76.0554 15.9374 75.7031V72.3828C15.9673 71.3587 15.5902 70.3644 14.8887 69.6176C14.1871 68.8709 13.2183 68.4325 12.1943 68.3984Z" fill="black"/>
<path d="M30.7881 68.3984H22.3368C21.3128 68.4325 20.344 68.8709 19.6424 69.6176C18.9409 70.3644 18.5638 71.3587 18.5937 72.3828V75.7031C18.5937 76.0554 18.7336 76.3932 18.9827 76.6423C19.2318 76.8913 19.5696 77.0312 19.9218 77.0312C20.2741 77.0312 20.6119 76.8913 20.8609 76.6423C21.11 76.3932 21.2499 76.0554 21.2499 75.7031V72.3828C21.2216 72.0633 21.3195 71.7454 21.5226 71.4972C21.7257 71.2489 22.018 71.0901 22.3368 71.0547H30.7881C31.1069 71.0901 31.3991 71.2489 31.6022 71.4972C31.8054 71.7454 31.9033 72.0633 31.8749 72.3828V75.7031C31.8749 76.0554 32.0149 76.3932 32.2639 76.6423C32.513 76.8913 32.8508 77.0312 33.2031 77.0312C33.5553 77.0312 33.8931 76.8913 34.1422 76.6423C34.3913 76.3932 34.5312 76.0554 34.5312 75.7031V72.3828C34.5611 71.3587 34.184 70.3644 33.4824 69.6176C32.7809 68.8709 31.8121 68.4325 30.7881 68.3984Z" fill="black"/>
<path d="M49.3818 68.3984H40.9305C39.9065 68.4325 38.9377 68.8709 38.2362 69.6176C37.5347 70.3644 37.1576 71.3587 37.1874 72.3828V75.7031C37.1874 76.0554 37.3274 76.3932 37.5764 76.6423C37.8255 76.8913 38.1633 77.0312 38.5156 77.0312C38.8678 77.0312 39.2056 76.8913 39.4547 76.6423C39.7038 76.3932 39.8437 76.0554 39.8437 75.7031V72.3828C39.8153 72.0633 39.9132 71.7454 40.1164 71.4972C40.3195 71.2489 40.6118 71.0901 40.9305 71.0547H49.3818C49.7006 71.0901 49.9929 71.2489 50.196 71.4972C50.3991 71.7454 50.497 72.0633 50.4687 72.3828V75.7031C50.4687 76.0554 50.6086 76.3932 50.8577 76.6423C51.1068 76.8913 51.4446 77.0312 51.7968 77.0312C52.1491 77.0312 52.4869 76.8913 52.7359 76.6423C52.985 76.3932 53.1249 76.0554 53.1249 75.7031V72.3828C53.1548 71.3587 52.7777 70.3644 52.0762 69.6176C51.3746 68.8709 50.4058 68.4325 49.3818 68.3984Z" fill="black"/>
<path d="M85 46.5142C85.0026 45.8427 84.8352 45.1815 84.5134 44.5921C84.1916 44.0028 83.7258 43.5044 83.1595 43.1436C83.1647 43.1291 83.1725 43.1157 83.1777 43.1012C83.2143 42.9937 83.2369 42.882 83.2451 42.7688C83.5347 41.7441 83.4232 40.6475 82.9331 39.7021C82.4431 38.7567 81.6114 38.0334 80.6071 37.6794C80.6161 37.5685 80.6207 37.4574 80.6207 37.3461C80.6341 36.2419 80.2091 35.1775 79.4388 34.3862C78.6686 33.595 77.6159 33.1415 76.5118 33.1253C76.4236 33.1253 76.3354 33.1282 76.2478 33.1344C75.9125 32.367 75.361 31.7137 74.6608 31.2543C73.9606 30.7948 73.1418 30.549 72.3043 30.5469C71.509 30.5486 70.7303 30.7743 70.0573 31.198C69.3677 30.7767 68.5735 30.5578 67.7654 30.5663C66.9573 30.5747 66.1679 30.8103 65.4873 31.2459C64.7983 30.7906 63.9909 30.5476 63.165 30.5469C62.3275 30.5489 61.5086 30.7946 60.8084 31.2541C60.1082 31.7135 59.5568 32.3669 59.2215 33.1344C59.134 33.1282 59.0458 33.1253 58.9576 33.1253C57.8534 33.1415 56.8008 33.595 56.0305 34.3862C55.2603 35.1775 54.8353 36.2419 54.8487 37.3461C54.8487 37.4573 54.8532 37.5683 54.8623 37.679C54.0392 37.974 53.328 38.5174 52.827 39.2339C52.326 39.9505 52.0598 40.805 52.0653 41.6794C52.0654 42.1759 52.1521 42.6687 52.3215 43.1355C51.7376 43.5074 51.2601 44.0244 50.9356 44.636C50.6112 45.2475 50.4509 45.9328 50.4703 46.6248C50.4898 47.3168 50.6884 47.992 51.0467 48.5843C51.4051 49.1767 51.9109 49.666 52.5148 50.0044L56.9492 74.6772C57.0743 75.3273 57.4177 75.9151 57.9227 76.3433C58.4276 76.7714 59.0637 77.0141 59.7254 77.0312H75.7433C76.4049 77.014 77.0408 76.7715 77.5459 76.3438C78.0509 75.9161 78.3949 75.3289 78.5209 74.6791L82.9539 50.0048C83.5764 49.6596 84.0947 49.1535 84.4547 48.5395C84.8146 47.9254 85.003 47.226 85 46.5142ZM56.1762 40.1142C56.4607 40.1575 56.751 40.1453 57.0309 40.0782C57.2137 40.0122 57.3799 39.907 57.5176 39.7699C57.6554 39.6327 57.7613 39.467 57.8281 39.2845C57.8948 39.1019 57.9206 38.907 57.9038 38.7133C57.887 38.5197 57.8278 38.3321 57.7306 38.1638C57.5841 37.9161 57.5062 37.6339 57.5049 37.3461C57.4888 37.0947 57.5384 36.8434 57.6488 36.6169C57.7591 36.3904 57.9265 36.1966 58.1344 36.0543C58.3424 35.9121 58.5837 35.8264 58.8348 35.8056C59.0859 35.7848 59.338 35.8297 59.5665 35.9359C59.7604 36.0327 59.975 36.0807 60.1916 36.0755C60.4082 36.0704 60.6203 36.0123 60.8093 35.9063C60.9983 35.8003 61.1585 35.6497 61.2759 35.4675C61.3933 35.2854 61.4644 35.0773 61.4828 34.8614C61.5031 34.424 61.6875 34.0103 61.9993 33.703C62.3112 33.3956 62.7274 33.2171 63.165 33.2031C63.4142 33.2072 63.6592 33.2677 63.8816 33.3801C64.104 33.4926 64.298 33.654 64.449 33.8522C64.5781 34.001 64.7376 34.1202 64.9167 34.202C65.0958 34.2837 65.2904 34.326 65.4873 34.326C65.6842 34.326 65.8788 34.2837 66.0579 34.202C66.2371 34.1202 66.3965 34.001 66.5256 33.8522C66.6706 33.6556 66.8589 33.4948 67.0758 33.3823C67.2928 33.2698 67.5327 33.2086 67.777 33.2035C68.0213 33.1983 68.2636 33.2493 68.4851 33.3525C68.7066 33.4557 68.9015 33.6084 69.0547 33.7988C69.1796 33.9428 69.3341 34.0583 69.5075 34.1373C69.681 34.2164 69.8695 34.2572 70.0601 34.2569C70.2508 34.2567 70.4391 34.2154 70.6124 34.1359C70.7857 34.0564 70.9398 33.9406 71.0644 33.7962C71.2154 33.613 71.4046 33.465 71.6188 33.3626C71.833 33.2601 72.0669 33.2057 72.3043 33.2031C72.742 33.2171 73.1584 33.3957 73.4703 33.7031C73.7822 34.0105 73.9668 34.4242 73.9872 34.8617C74.0057 35.0776 74.0768 35.2857 74.1943 35.4678C74.3118 35.65 74.4721 35.8006 74.6612 35.9065C74.8502 36.0124 75.0624 36.0704 75.279 36.0755C75.4957 36.0806 75.7103 36.0325 75.9041 35.9355C76.1326 35.8299 76.3846 35.7854 76.6354 35.8064C76.8863 35.8274 77.1273 35.9133 77.335 36.0555C77.5427 36.1976 77.7099 36.3914 77.8203 36.6176C77.9306 36.8438 77.9803 37.0949 77.9644 37.3461C77.9633 37.6338 77.8856 37.916 77.7394 38.1638C77.6181 38.3819 77.561 38.6298 77.5745 38.8789C77.5881 39.1281 77.6717 39.3684 77.8159 39.572C77.9619 39.779 78.1626 39.9412 78.3956 40.0405C78.6286 40.1398 78.8846 40.1723 79.135 40.1343C79.187 40.1242 79.2397 40.1175 79.2926 40.1142C79.6926 40.1299 80.0701 40.3034 80.3425 40.5967C80.615 40.89 80.7602 41.2793 80.7465 41.6794C80.7612 41.8411 80.7416 42.0042 80.6888 42.1579C80.6361 42.3116 80.5514 42.4523 80.4403 42.5709C80.3293 42.6895 80.1944 42.7832 80.0445 42.846C79.8946 42.9087 79.7332 42.939 79.5707 42.9348C79.4155 42.9311 79.2621 42.8994 79.1181 42.8411C78.9593 42.7692 78.7878 42.7292 78.6135 42.7235C78.4391 42.7178 78.2654 42.7465 78.1022 42.808C77.939 42.8694 77.7895 42.9624 77.6622 43.0817C77.5349 43.2009 77.4323 43.344 77.3604 43.5029C77.2884 43.6618 77.2485 43.8333 77.2428 44.0076C77.2371 44.1819 77.2658 44.3556 77.3272 44.5188C77.3887 44.682 77.4817 44.8316 77.6009 44.9588C77.7201 45.0861 77.8633 45.1887 78.0222 45.2606C78.5118 45.482 79.0431 45.5961 79.5805 45.5953C80.1529 45.5962 80.7183 45.4687 81.2348 45.2221C81.551 45.2701 81.8385 45.4325 82.0427 45.6785C82.247 45.9245 82.3539 46.2369 82.343 46.5565C82.3321 46.8761 82.2043 47.1805 81.9837 47.4121C81.7632 47.6436 81.4653 47.7861 81.1466 47.8125H54.3234C53.9926 47.7984 53.6809 47.6539 53.4564 47.4106C53.2318 47.1673 53.1127 46.845 53.125 46.5142C53.1168 46.2155 53.2143 45.9234 53.4005 45.6897C53.5867 45.4559 53.8495 45.2955 54.1425 45.2367C54.5598 45.4546 55.0134 45.5947 55.481 45.6501C56.0587 45.7163 56.6439 45.6504 57.1924 45.4571C57.5238 45.3389 57.7948 45.094 57.9458 44.7762C58.0968 44.4584 58.1155 44.0936 57.9978 43.762C57.8801 43.4304 57.6356 43.1591 57.318 43.0076C57.0004 42.8561 56.6357 42.8368 56.3039 42.954C56.1369 43.0123 55.9588 43.0318 55.7832 43.011C55.4728 42.9596 55.1926 42.7951 54.9965 42.5491C54.8004 42.3032 54.7025 41.9933 54.7216 41.6794C54.708 41.2792 54.8534 40.8899 55.1259 40.5966C55.3985 40.3033 55.7761 40.1299 56.1762 40.1142ZM59.5639 74.2096L55.2975 50.4688H66.4063V74.3753H59.7312C59.6927 74.3621 59.6576 74.3403 59.6287 74.3116C59.5997 74.2829 59.5776 74.2481 59.5639 74.2096ZM75.9061 74.2103C75.8922 74.2483 75.87 74.2828 75.8412 74.3113C75.8124 74.3397 75.7776 74.3615 75.7394 74.375H69.0625V50.4688H80.1713L75.9061 74.2103Z" fill="black"/>
<path d="M63.4075 40.1901C63.8846 40.4011 64.4007 40.51 64.9224 40.5097C65.3771 40.5119 65.8278 40.4251 66.2492 40.2543C66.5741 40.1193 66.8322 39.8609 66.9669 39.5359C67.1015 39.2109 67.1016 38.8457 66.9673 38.5205C66.833 38.1953 66.5751 37.9368 66.2503 37.8015C65.9256 37.6662 65.5604 37.6653 65.235 37.799C64.9904 37.8786 64.7252 37.8661 64.4892 37.764C64.4619 37.7521 64.4355 37.7383 64.4101 37.7229C64.3777 37.3913 64.222 37.0841 63.9738 36.8619C63.7256 36.6398 63.403 36.519 63.0699 36.5236C62.7369 36.5281 62.4177 36.6576 62.1756 36.8864C61.9335 37.1152 61.7862 37.4266 61.7629 37.7589C61.7485 38.2852 61.8994 38.8028 62.1944 39.2389C62.4894 39.675 62.9136 40.0076 63.4075 40.1901Z" fill="black"/>
<path d="M62.5199 44.9721C62.7308 44.8551 62.9725 44.8057 63.2125 44.8304C63.2352 44.833 63.2546 44.8356 63.2722 44.8385C63.4136 45.0761 63.6256 45.2638 63.8786 45.3754C64.1316 45.487 64.4131 45.517 64.684 45.4613C64.9548 45.4056 65.2016 45.2668 65.39 45.0644C65.5784 44.862 65.699 44.6059 65.7352 44.3317C65.754 44.1588 65.741 43.984 65.6968 43.8158C65.5398 43.3519 65.2444 42.9473 64.8504 42.6565C64.4565 42.3656 63.9828 42.2025 63.4933 42.189C62.6154 42.0934 61.7318 42.3083 60.9959 42.7964C60.7074 42.9985 60.5109 43.3069 60.4498 43.6538C60.3887 44.0007 60.4679 44.3577 60.67 44.6463C60.8721 44.9348 61.1806 45.1312 61.5275 45.1923C61.8744 45.2534 62.2314 45.1742 62.5199 44.9721Z" fill="black"/>
<path d="M71.8168 45.6362C72.0278 45.5196 72.2694 45.4701 72.5093 45.4945C72.532 45.497 72.5515 45.4996 72.569 45.5026C72.7329 45.7784 72.9911 45.9856 73.2959 46.0859C73.6007 46.1861 73.9315 46.1726 74.2271 46.0479C74.5227 45.9232 74.7632 45.6957 74.9042 45.4075C75.0451 45.1192 75.0769 44.7897 74.9937 44.4798C74.8367 44.016 74.5413 43.6114 74.1473 43.3206C73.7533 43.0297 73.2797 42.8666 72.7902 42.8531C71.9123 42.7573 71.0286 42.9722 70.2928 43.4604C70.0042 43.6625 69.8078 43.971 69.7467 44.3179C69.6856 44.6648 69.7648 45.0218 69.9669 45.3103C70.169 45.5988 70.4774 45.7953 70.8244 45.8564C71.1713 45.9175 71.5283 45.8383 71.8168 45.6362Z" fill="black"/>
<path d="M71.202 40.0334C71.8468 40.5327 72.6332 40.8149 73.4484 40.8395C73.6272 40.84 73.8056 40.8223 73.9808 40.7867C74.1518 40.7521 74.3142 40.6843 74.459 40.5869C74.6037 40.4896 74.7278 40.3647 74.8243 40.2194C74.9207 40.0742 74.9876 39.9113 75.0211 39.7401C75.0546 39.569 75.0541 39.3929 75.0196 39.222C74.985 39.051 74.9172 38.8886 74.8198 38.7439C74.7225 38.5992 74.5976 38.475 74.4524 38.3786C74.3071 38.2821 74.1442 38.2152 73.9731 38.1817C73.8019 38.1482 73.6258 38.1487 73.4549 38.1833C73.2098 38.1558 72.9779 38.0582 72.7869 37.9022C72.6268 37.7857 72.4895 37.6406 72.3822 37.4741C72.3704 37.1301 72.2255 36.804 71.9779 36.5647C71.7304 36.3255 71.3997 36.1916 71.0555 36.1914C71.0405 36.1914 71.025 36.1917 71.0094 36.1921C70.6573 36.2042 70.3245 36.3557 70.0841 36.6131C69.8437 36.8706 69.7154 37.2129 69.7273 37.565C69.7766 38.0595 69.9343 38.5371 70.1892 38.9637C70.4441 39.3904 70.7899 39.7556 71.202 40.0334Z" fill="black"/>
<path d="M61.0938 58.4375C61.8273 58.4375 62.4219 57.8429 62.4219 57.1094C62.4219 56.3759 61.8273 55.7812 61.0938 55.7812C60.3602 55.7812 59.7656 56.3759 59.7656 57.1094C59.7656 57.8429 60.3602 58.4375 61.0938 58.4375Z" fill="black"/>
<path d="M61.7578 66.4062C62.4913 66.4062 63.0859 65.8116 63.0859 65.0781C63.0859 64.3446 62.4913 63.75 61.7578 63.75C61.0243 63.75 60.4297 64.3446 60.4297 65.0781C60.4297 65.8116 61.0243 66.4062 61.7578 66.4062Z" fill="black"/>
<path d="M73.7109 66.4062C74.4444 66.4062 75.0391 65.8116 75.0391 65.0781C75.0391 64.3446 74.4444 63.75 73.7109 63.75C72.9774 63.75 72.3828 64.3446 72.3828 65.0781C72.3828 65.8116 72.9774 66.4062 73.7109 66.4062Z" fill="black"/>
<path d="M74.043 58.4375C74.7765 58.4375 75.3711 57.8429 75.3711 57.1094C75.3711 56.3759 74.7765 55.7812 74.043 55.7812C73.3095 55.7812 72.7148 56.3759 72.7148 57.1094C72.7148 57.8429 73.3095 58.4375 74.043 58.4375Z" fill="black"/>
<path d="M3.98438 54.4531H50.616L50.1386 51.7969H3.98438C3.63226 51.7965 3.29468 51.6564 3.0457 51.4074C2.79672 51.1584 2.65666 50.8209 2.65625 50.4688V11.9531C2.65666 11.601 2.79672 11.2634 3.0457 11.0144C3.29468 10.7655 3.63226 10.6254 3.98438 10.625H75.7031C76.0552 10.6254 76.3928 10.7655 76.6418 11.0145C76.8908 11.2634 77.0308 11.601 77.0312 11.9531V29.759C77.3124 30.0164 77.5723 30.2963 77.8081 30.5958C78.4653 30.7265 79.0989 30.9557 79.6875 31.2758V11.9531C79.6863 10.8968 79.2662 9.88399 78.5192 9.13702C77.7723 8.39005 76.7595 7.9699 75.7031 7.96875H3.98438C2.92801 7.9699 1.91523 8.39005 1.16827 9.13702C0.4213 9.88398 0.00114956 10.8968 0 11.9531L0 50.4688C0.00114956 51.5251 0.4213 52.5379 1.16827 53.2849C1.91523 54.0318 2.92801 54.452 3.98438 54.4531Z" fill="black"/>
</g>
<defs>
<clipPath id="clip0_47_58">
<rect width="85" height="85" fill="white"/>
</clipPath>
</defs>
</svg>
