<svg width="85" height="85" viewBox="0 0 85 85" fill="none" xmlns="http://www.w3.org/2000/svg">
<g clip-path="url(#clip0_47_76)">
<path d="M83.7104 0H1.28828C0.577734 0 0 0.576406 0 1.28828V83.7117C0 84.4236 0.577734 85 1.28828 85H83.7117C84.4236 85 85 84.4236 85 83.7117V1.28828C85 0.576406 84.4236 0 83.7104 0ZM41.1241 56.695C40.4122 56.695 39.8358 57.2714 39.8358 57.9833V82.4248H36.7519V69.0466C36.7519 68.336 36.1755 67.7583 35.4636 67.7583C34.753 67.7583 34.1753 68.336 34.1753 69.0466V82.4248H31.0808V57.982C31.0808 57.2701 30.5044 56.6937 29.7938 56.6937C29.082 56.6937 28.5042 57.2701 28.5042 57.982V66.6002H26.5824V50.2881C26.5824 48.0423 28.4113 46.2148 30.6558 46.2148H40.2701C42.5159 46.2148 44.3421 48.0423 44.3421 50.2881V66.6015H42.4097V57.9833C42.4123 57.2714 41.8359 56.695 41.1241 56.695ZM57.966 82.4248H42.4123V69.1767H45.6344C46.3449 69.1767 46.9213 68.6003 46.9213 67.8884V50.2881C46.9213 46.6212 43.9384 43.6395 40.2727 43.6395H30.6584C26.9915 43.6395 24.0098 46.6225 24.0098 50.2881V67.8884C24.0098 68.6003 24.5876 69.1767 25.2981 69.1767H28.5069V82.4248H12.9638V16.648H57.966V82.4248ZM82.4248 82.4248H60.5412V15.3598C60.5412 14.6479 59.9648 14.0715 59.2516 14.0715H11.6755C10.965 14.0715 10.3873 14.6479 10.3873 15.3598V82.4234H2.57523V2.57523H82.4234L82.4248 82.4248Z" fill="#010101"/>
<path d="M35.4637 41.3804C39.3777 41.3804 42.5625 38.1955 42.5625 34.2816C42.5625 30.3676 39.379 27.1841 35.4637 27.1841C31.5511 27.1841 28.3662 30.3676 28.3662 34.2816C28.3662 38.1955 31.5511 41.3804 35.4637 41.3804ZM35.4637 29.7606C37.9579 29.7606 39.986 31.7887 39.986 34.2829C39.986 36.7771 37.9579 38.8051 35.4637 38.8051C32.9708 38.8051 30.9428 36.7771 30.9428 34.2829C30.9428 31.7887 32.9708 29.7606 35.4637 29.7606Z" fill="#010101"/>
<path d="M29.9918 11.7327H40.9369C42.8162 11.7327 44.3462 10.204 44.3462 8.32336C44.3462 6.44273 42.8162 4.91406 40.9369 4.91406H29.9918C28.1112 4.91406 26.5825 6.44273 26.5825 8.32336C26.5825 10.204 28.1112 11.7327 29.9918 11.7327ZM29.9918 7.49062H40.9369C41.3978 7.49062 41.771 7.86516 41.771 8.32469C41.771 8.78422 41.3978 9.15742 40.9369 9.15742H29.9918C29.531 9.15742 29.1564 8.78422 29.1564 8.32469C29.1564 7.86516 29.531 7.49062 29.9918 7.49062Z" fill="#010101"/>
<path d="M66.6972 47.3198L71.4838 42.5332L76.2703 47.3198C76.5213 47.5708 76.852 47.697 77.1814 47.697C77.5108 47.697 77.8402 47.5708 78.0925 47.3198C78.5959 46.8177 78.5959 46.0023 78.0925 45.4989L72.3962 39.8013C71.8928 39.2979 71.0787 39.2979 70.5753 39.8013L64.879 45.4989C64.3756 46.0023 64.3756 46.8177 64.879 47.3198C65.3797 47.8231 66.1938 47.8231 66.6972 47.3198Z" fill="#010101"/>
<path d="M70.5726 59.2689C70.8236 59.5199 71.1543 59.6461 71.4837 59.6461C71.8131 59.6461 72.1425 59.5199 72.3948 59.2689L78.0911 53.5712C78.5945 53.0692 78.5945 52.2537 78.0911 51.7504C77.5878 51.247 76.7736 51.247 76.2703 51.7504L71.4837 56.5369L66.6972 51.7504C66.1938 51.247 65.3797 51.247 64.8763 51.7504C64.3729 52.2537 64.3729 53.0692 64.8763 53.5712L70.5726 59.2689Z" fill="#010101"/>
</g>
<defs>
<clipPath id="clip0_47_76">
<rect width="85" height="85" fill="white"/>
</clipPath>
</defs>
</svg>
