<svg width="85" height="85" viewBox="0 0 85 85" fill="none" xmlns="http://www.w3.org/2000/svg">
<g clip-path="url(#clip0_29_220)">
<path d="M37.2583 15.5833L44.8077 4.66508C45.6027 3.51634 46.9113 2.83156 48.3083 2.83333H85V0H48.3083C45.9839 0 43.8074 1.14042 42.4844 3.0515L34.9208 13.9669C32.7016 17.1742 33.5026 21.5734 36.7099 23.7926C36.8762 23.9077 37.0472 24.0155 37.2229 24.1159C38.6182 24.9048 40.2422 25.1903 41.8228 24.9248C41.7403 25.6734 41.7771 26.4304 41.9319 27.1674L40.7164 29.7698L36.8659 27.9735C36.1571 27.6427 35.3141 27.9489 34.9832 28.6577L32.5833 33.7932C32.2518 34.5019 32.5575 35.3451 33.2662 35.6766C33.2667 35.6768 33.2671 35.6772 33.2676 35.6773L37.0161 37.4255L29.1097 51.4505C27.6852 51.3046 26.2469 51.5199 24.9277 52.0767L24.2193 47.7572C24.0991 46.9905 23.38 46.4663 22.6132 46.5866C22.6065 46.5876 22.5997 46.5887 22.593 46.5899L18.3983 47.2784L18.2367 46.3023L22.2757 37.3873C22.599 36.6748 22.2836 35.8351 21.5711 35.5118C21.3159 35.3959 21.032 35.3584 20.7556 35.4039L17.8174 35.8856C16.8004 33.2391 14.3078 31.4504 11.475 31.3338L10.9933 28.3957L8.19825 28.8547L8.67992 31.7928C6.03093 32.8082 4.23973 35.3021 4.12392 38.1367L1.18717 38.6197C0.415083 38.7465 -0.107844 39.4752 0.0189479 40.2473C0.0642813 40.5232 0.190365 40.7796 0.381083 40.9842L7.05642 48.1397L7.2165 49.1144L3.02317 49.8029C2.25339 49.9295 1.73099 50.6547 1.85442 51.425L2.77383 57.0166C2.8861 57.7003 3.47632 58.2025 4.16925 58.2037C4.24664 58.2041 4.32402 58.1975 4.40017 58.1839L8.483 57.5167L9.86567 73.5604C6.75679 75.2386 5.01004 78.6648 5.47825 82.1667H0V85H85V82.1667H24.5083L29.733 81.3167C30.5051 81.1901 31.0284 80.4615 30.9019 79.6894V79.6889L30.6724 78.2907C30.0788 74.7134 27.285 71.9047 23.7109 71.2923L20.8535 59.5907L41.1529 69.0597C41.8618 69.3905 42.7047 69.0841 43.0357 68.3754L43.6349 67.0919C45.1855 63.813 44.4546 59.9092 41.823 57.4132L47.4996 42.3201L51.2467 44.0583C51.4346 44.1453 51.6389 44.1903 51.8459 44.1901C52.0108 44.1908 52.1742 44.1619 52.329 44.1051C52.6825 43.9769 52.9704 43.7134 53.1294 43.3727L55.525 38.2372C55.8556 37.5282 55.5487 36.6853 54.8397 36.3547L54.8393 36.3545L50.9887 34.5667L52.2027 31.9642C52.3784 31.8693 52.5371 31.7489 52.7042 31.6412C53.5211 34.7186 56.316 36.8541 59.5 36.8333H85V34H59.5C58.302 33.9991 57.1598 33.4935 56.3536 32.6074C55.5411 31.719 55.1471 30.5254 55.2712 29.3278C55.5702 27.0992 57.4958 25.4511 59.7437 25.5H65.1667C69.0786 25.5 72.25 22.3286 72.25 18.4167C72.25 14.5047 69.0786 11.3333 65.1667 11.3333H51C50.5265 11.3333 50.0841 11.5697 49.8213 11.9637L44.2425 20.332C44.2113 20.3802 44.1688 20.4184 44.1348 20.4652C43.903 20.6832 43.6863 20.9164 43.486 21.1636C42.1356 22.3412 40.1892 22.5388 38.6297 21.6566C36.6049 20.4956 35.9047 17.9132 37.0655 15.8886C37.1255 15.7841 37.1898 15.6823 37.2583 15.5833ZM10.5131 34.2167C12.291 33.9246 14.0601 34.7852 14.9274 36.3644L9.50867 37.2583L7.01958 37.6663C7.33497 35.8921 8.73499 34.5096 10.5131 34.2167ZM4.2585 40.987L11.4325 39.8083L17.0241 38.8903L18.6037 38.6311L15.487 45.526C15.3717 45.7805 15.3342 46.0634 15.3793 46.3392L15.6088 47.7374L12.0105 48.3296L10.0172 48.6568L9.78775 47.2572C9.74259 46.9814 9.61686 46.725 9.4265 46.5205L4.2585 40.987ZM21.3633 74.0676C24.4524 73.5656 27.3657 75.6557 27.88 78.7426L8.30167 81.957C7.79468 78.8669 9.88709 75.9503 12.9767 75.4403L17.17 74.7518L21.3633 74.0676ZM11.2866 57.0605L16.5877 56.1892L17.085 56.1085L20.7924 71.2909L12.6296 72.6325L11.2866 57.0605ZM20.5233 56.304L20.213 56.9698L19.89 55.6481L20.9752 55.4696C20.8089 55.7389 20.658 56.0177 20.5233 56.304ZM5.33942 55.1707L4.88042 52.3756L21.6566 49.6202L22.1142 52.4167L5.33942 55.1707ZM41.0663 65.8863L41.0649 65.892L23.0917 57.5025C24.4141 54.666 27.7854 53.4386 30.622 54.7609C30.622 54.7609 30.6223 54.7611 30.6227 54.7612L38.3265 58.3553C41.1627 59.6783 42.3893 63.0502 41.0663 65.8863ZM39.4202 55.7458L35.6717 53.9906L31.9218 52.2424L39.5958 38.6268L44.9225 41.1117L39.4202 55.7458ZM52.3572 38.3336L51.1601 40.9006L47.3167 39.1L39.6128 35.5059L35.7652 33.711L36.9622 31.1426L52.3572 38.3336ZM51.7579 14.1667H65.1667C67.5139 14.1667 69.4167 16.0694 69.4167 18.4167C69.4167 20.7639 67.5139 22.6667 65.1667 22.6667H59.7437C58.2875 22.6722 56.8652 23.1048 55.6523 23.9105C55.2426 22.3851 54.337 21.0394 53.0782 20.0855L54.3235 17.3584L51.7565 16.1599L50.5127 18.8813C49.9324 18.746 49.3377 18.6823 48.7418 18.6915L51.7579 14.1667ZM44.71 27.9083C44.8554 27.5981 44.8827 27.2455 44.7865 26.9167C44.4894 25.9328 44.5639 24.8742 44.9962 23.9417C45.1189 23.6789 45.268 23.4292 45.441 23.1965C45.6753 22.9838 45.8943 22.7552 46.0969 22.5122C47.8773 20.9886 50.5557 21.1967 52.0793 22.9771C53.1625 24.2429 53.4048 26.0254 52.6986 27.5343C52.2623 28.4644 51.5001 29.2023 50.5566 29.6083C50.244 29.7475 49.9924 29.9951 49.8482 30.3053L48.4231 33.3597L43.2877 30.9627L44.71 27.9083Z" fill="black"/>
<path d="M28.4818 24.8674L25.6487 30.5337L28.1828 31.8007L31.016 26.1344L28.4818 24.8674Z" fill="black"/>
<path d="M21.1053 24.8657L18.5712 26.1328L21.4043 31.7991L23.9385 30.5321L21.1053 24.8657Z" fill="black"/>
<path d="M48.1666 65.1667V65.7333C48.1672 68.4489 46.8086 70.9846 44.5471 72.488L46.1196 74.8453C49.1696 72.817 51.0017 69.3963 51 65.7333V65.1667H48.1666Z" fill="black"/>
</g>
<defs>
<clipPath id="clip0_29_220">
<rect width="85" height="85" fill="white"/>
</clipPath>
</defs>
</svg>
