<svg width="85" height="85" viewBox="0 0 85 85" fill="none" xmlns="http://www.w3.org/2000/svg">
<g clip-path="url(#clip0_46_26)">
<path d="M80.1444 30.1514H72.2437C72.049 28.2693 70.4539 26.7966 68.5211 26.7966H55.6054C53.6727 26.7966 52.0776 28.2693 51.8829 30.1514H28.3507C27.6617 30.1514 27.103 30.7099 27.103 31.399C27.103 32.088 27.6617 32.6466 28.3507 32.6466H51.8628V37.3675H4.85562C3.55406 37.3675 2.49521 36.3086 2.49521 35.0071C2.49521 33.7055 3.55406 32.6466 4.85562 32.6466H23.3606C24.0495 32.6466 24.6082 32.088 24.6082 31.399C24.6082 30.7101 24.0497 30.1514 23.3606 30.1514H14.5792V19.9094C14.5792 17.9587 16.1661 16.3718 18.1168 16.3718C20.0675 16.3718 21.6544 17.9587 21.6544 19.9094V21.1443C21.6544 21.8332 22.2131 22.3919 22.902 22.3919C23.591 22.3919 24.1496 21.8334 24.1496 21.1443V19.9094C24.1496 16.583 21.4432 13.8766 18.1168 13.8766C14.7903 13.8766 12.0841 16.5828 12.0841 19.9094V30.1514H4.85562C2.17812 30.1514 0 32.3296 0 35.0069C0 37.6842 2.17812 39.8623 4.85562 39.8623H5.29341V64.0063C5.29341 67.1882 7.68868 69.8195 10.7706 70.1961V73.7174C10.7706 75.7812 12.4495 77.4601 14.5133 77.4601H70.4869C72.5507 77.4601 74.2296 75.7812 74.2296 73.7174V70.1961C77.3115 69.8195 79.7068 67.1882 79.7068 64.0063V39.8625H80.1445C82.8219 39.8625 85.0002 37.6844 85.0002 35.0071C85.0002 32.3297 82.8219 30.1514 80.1444 30.1514ZM77.2115 64.0065C77.2115 66.0702 75.5326 67.7492 73.4689 67.7492H39.7179C39.0289 67.7492 38.4703 68.3078 38.4703 68.9968C38.4703 69.6857 39.0289 70.2444 39.7179 70.2444H71.7344V73.7177C71.7344 74.4057 71.1747 74.9654 70.4867 74.9654H14.5131C13.8251 74.9654 13.2655 74.4057 13.2655 73.7177V70.2444H34.7276C35.4166 70.2444 35.9753 69.6857 35.9753 68.9968C35.9753 68.3078 35.4168 67.7492 34.7276 67.7492H11.5311C9.46737 67.7492 7.78846 66.0702 7.78846 64.0065V39.8625H51.8628V51.044C51.8628 51.733 52.4213 52.2916 53.1104 52.2916H58.8228C59.5118 52.2916 60.0704 51.733 60.0704 51.044C60.0704 50.355 59.5118 49.7964 58.8228 49.7964H54.358V30.5392C54.358 29.8513 54.9176 29.2916 55.6056 29.2916H68.5213C69.2093 29.2916 69.7689 29.8513 69.7689 30.5392V49.7964H63.8131C63.1241 49.7964 62.5655 50.355 62.5655 51.044C62.5655 51.733 63.1241 52.2916 63.8131 52.2916H71.0165C71.7055 52.2916 72.2641 51.733 72.2641 51.044V39.8625H77.2117V64.0065H77.2115ZM80.1444 37.3675H72.2638V32.6466H80.1444C81.4459 32.6466 82.5048 33.7055 82.5048 35.0071C82.505 36.3085 81.4459 37.3675 80.1444 37.3675Z" fill="black"/>
<path d="M32.72 16.5091C33.4908 17.2585 33.959 17.764 33.959 18.4638C33.959 19.6742 32.7588 20.2762 32.7187 20.2961C32.0938 20.5864 31.8227 21.3284 32.113 21.9533C32.4042 22.5844 33.1596 22.8467 33.7702 22.5589C34.767 22.0957 36.454 20.712 36.454 18.4638C36.454 16.6593 35.301 15.5384 34.4592 14.72C34.1313 14.401 33.7596 14.0398 33.6739 13.8241C33.2378 12.7254 34.3353 12.0431 34.5646 11.9149C35.1666 11.5884 35.3932 10.8367 35.0703 10.2314C34.7462 9.62344 33.9903 9.39351 33.3824 9.71773C33.2995 9.76189 32.5555 10.1713 31.9394 10.937C31.0341 12.0619 30.8266 13.4142 31.3548 14.7449C31.6374 15.4567 32.1877 15.9916 32.72 16.5091Z" fill="black"/>
<path d="M54.1916 16.5091C54.9624 17.2585 55.4306 17.764 55.4306 18.4638C55.4306 19.6742 54.2304 20.2763 54.1904 20.2961C53.5655 20.5864 53.2944 21.3284 53.5848 21.9533C53.876 22.5844 54.6314 22.8467 55.242 22.5589C56.2387 22.0955 57.9258 20.712 57.9258 18.4638C57.9258 16.6593 56.7728 15.5384 55.9309 14.72C55.603 14.401 55.2313 14.0398 55.1457 13.8241C54.7095 12.7254 55.8071 12.0431 56.0363 11.9149C56.6383 11.5884 56.8649 10.8367 56.5422 10.2314C56.218 9.62344 55.4624 9.39351 54.8543 9.71773C54.7715 9.76189 54.0274 10.1713 53.4113 10.937C52.506 12.0619 52.2985 13.4142 52.8268 14.7449C53.1092 15.4567 53.6595 15.9916 54.1916 16.5091Z" fill="black"/>
<path d="M43.4558 14.4781C44.2266 15.2275 44.6948 15.733 44.6948 16.4329C44.6948 17.6433 43.4947 18.2453 43.4547 18.265C42.8298 18.5554 42.5587 19.2973 42.8489 19.922C43.1399 20.5532 43.8954 20.8157 44.5059 20.5278C45.5028 20.0647 47.1898 18.6809 47.1898 16.4329C47.1898 14.6283 46.0369 13.5075 45.195 12.6891C44.8671 12.3703 44.4954 12.0089 44.4098 11.7933C43.9733 10.6941 45.072 10.0116 45.3006 9.88391C45.9024 9.55736 46.1288 8.80564 45.8059 8.20051C45.4819 7.59257 44.7262 7.36247 44.1181 7.68686C44.0352 7.73102 43.2911 8.14042 42.6752 8.90608C41.7699 10.031 41.5624 11.3834 42.0907 12.714C42.3732 13.4257 42.9236 13.9608 43.4558 14.4781Z" fill="black"/>
</g>
<defs>
<clipPath id="clip0_46_26">
<rect width="85" height="85" fill="white"/>
</clipPath>
</defs>
</svg>
