<svg width="85" height="85" viewBox="0 0 85 85" fill="none" xmlns="http://www.w3.org/2000/svg">
<g clip-path="url(#clip0_15_81)">
<path d="M19.0593 11.517C19.672 11.6487 20.2428 11.7078 20.7732 11.7078C24.104 11.7078 25.8398 9.37059 26.3254 7.94252C26.5469 7.29158 26.1984 6.58418 25.5475 6.36288C24.8962 6.14142 24.1891 6.48989 23.9677 7.141C23.9303 7.25057 23.0139 9.82033 19.582 9.08206C18.9097 8.93746 18.2478 9.36544 18.1032 10.038C17.9589 10.7105 18.3869 11.3726 19.0593 11.517Z" fill="black"/>
<path d="M25.1353 21.1625C24.4635 21.0189 23.8011 21.4462 23.6566 22.1185C23.5124 22.7909 23.9404 23.453 24.6127 23.5973C25.226 23.7289 25.7969 23.788 26.3278 23.788C29.6611 23.788 31.3979 21.4507 31.8835 20.0228C32.105 19.3718 31.7565 18.6644 31.1054 18.4431C30.4548 18.2217 29.7472 18.5701 29.5258 19.2212C29.4884 19.331 28.5715 21.8999 25.1353 21.1625Z" fill="black"/>
<path d="M6.17111 21.5269C6.78204 21.6574 7.35131 21.7162 7.8804 21.7162C11.2167 21.7162 12.9547 19.3797 13.4404 17.9528C13.6621 17.3018 13.3141 16.5944 12.663 16.3728C12.0125 16.1507 11.3048 16.4991 11.083 17.1502C11.0455 17.2597 10.1296 19.8271 6.69107 19.0915C6.0202 18.9484 5.35713 19.3765 5.2132 20.0492C5.06976 20.7216 5.49858 21.3833 6.17111 21.5269Z" fill="black"/>
<path d="M36.1072 43.0859C36.3075 43.2061 36.528 43.263 36.746 43.263C37.1692 43.263 37.5819 43.047 37.8153 42.6577C39.2395 40.2804 40.0475 37.4938 40.1516 34.6013C40.1521 34.5869 40.1526 34.5726 40.1531 34.5585C42.9435 34.1894 45.3204 33.076 47.0582 31.317C48.7275 29.6273 49.7757 27.3497 50.0098 24.9033C50.4788 20.0024 47.8501 15.6546 43.5521 14.0619C46.0849 11.2944 48.8339 5.51056 43.873 0.379842C43.3952 -0.114719 42.6068 -0.128166 42.1124 0.350125C41.6179 0.828084 41.6046 1.61633 42.0827 2.11055C46.5768 6.75849 42.3839 11.6631 41.6322 12.4693C40.9656 13.004 40.6284 13.7658 40.7265 14.5297C40.821 15.2675 41.3172 15.8988 42.021 16.1774C42.059 16.1923 42.0977 16.2054 42.1368 16.2166C46.2849 17.4021 47.8406 21.4275 47.5307 24.6658C47.2154 27.9617 44.8779 31.6587 39.2566 32.1521C37.6895 32.2993 37.6772 33.5459 37.6719 34.0785C37.6707 34.1972 37.6694 34.3383 37.6629 34.5093C37.5737 36.9851 36.8878 39.3603 35.679 41.3779C35.3254 41.9679 35.5173 42.7324 36.1072 43.0859Z" fill="black"/>
<path d="M83.7548 82.5098H81.9964C81.9964 82.5098 84.4627 75.865 84.499 75.7707C84.8083 74.9669 85.1593 74.0556 84.7499 73.1533C84.5055 72.6146 84.0491 72.2193 83.3935 71.9787C83.3935 71.9787 72.9704 68.3666 72.9429 68.3561C72.9175 68.2502 71.3103 59.9312 71.3103 59.9312L72.572 53.5657L74.5331 54.2038V57.8578C74.5331 59.9021 76.1833 61.5713 78.2115 61.5782H78.2242C79.2027 61.5782 80.1644 61.1786 80.8648 60.4809C81.5679 59.7801 81.9554 58.8552 81.9554 57.8766V51.4437C81.9554 51.428 81.955 51.4126 81.9545 51.3972C81.8976 49.8766 80.8892 48.5251 79.4492 48.0355L78.7899 47.8086C77.761 47.4538 72.2093 45.5959 71.2791 45.3293L69.6684 43.0097C70.9568 42.0862 71.9719 40.7689 72.6934 39.0749C72.7037 39.0509 72.7115 39.0265 72.7199 39.0025C72.7229 38.9938 72.7272 38.986 72.7301 38.9772C72.732 38.9714 72.7335 38.9656 72.7355 38.9598C72.7364 38.9568 72.7374 38.954 72.7384 38.951C73.758 35.8482 73.9071 32.993 73.1687 30.6932C72.3686 28.202 70.5682 26.3989 67.9633 25.479C66.7248 25.0406 65.5293 25.0502 64.2649 25.0613C62.4213 25.0759 60.5138 25.0925 57.8866 23.7832C57.2732 23.4769 56.5275 23.7249 56.219 24.3375C54.8618 27.0329 54.9066 29.6573 56.2927 31.5552C55.6813 32.7897 55.3614 34.1558 55.3614 35.5565C55.3614 38.2982 56.81 40.9744 59.1078 42.7063L56.4079 46.081H52.0017L49.8485 42.9495C48.9761 41.6826 47.6569 41.025 46.2247 41.1431C44.8035 41.2614 43.5054 42.151 42.9175 43.4095C42.3502 44.6241 42.509 46.0078 43.354 47.2068L46.883 52.2033C47.9015 53.6072 48.3158 53.8185 50.051 53.8185H55.7613V59.4811L51.9418 63.9195C51.1652 64.8167 50.2742 66.0782 50.2742 67.8866V76.9519C49.2351 77.2499 48.0193 77.8925 47.0271 78.9252C46.0567 79.9349 45.4599 81.1571 45.264 82.5101H34.8049C36.1237 81.1034 36.9337 79.2144 36.9337 77.1387C36.9337 74.7228 35.8283 72.463 33.948 70.9762C33.5411 67.0318 30.1599 63.9217 26.1307 63.9217C24.7491 63.9217 23.4292 64.274 22.2651 64.9337V50.0068H24.8459C28.1938 50.0068 31.3288 48.9742 33.9124 47.0208C34.4609 46.6061 34.5693 45.8252 34.1546 45.2767C33.74 44.7283 32.9589 44.6196 32.4104 45.0345C30.2628 46.6583 27.6471 47.5166 24.8459 47.5166H22.2651V39.9262L25.3908 36.7963C26.2803 35.9099 26.7699 34.7267 26.7699 33.4649C26.7699 32.203 26.2803 31.0198 25.3939 30.1366C24.5076 29.2472 23.3244 28.7573 22.0623 28.7573C20.8003 28.7573 19.6173 29.2471 18.7336 30.1341L17.3354 31.5293L15.9382 30.1351C15.0497 29.2464 13.8658 28.7573 12.6043 28.7573C12.603 28.7573 12.6013 28.7573 12.6001 28.7573C11.3393 28.7583 10.1574 29.2482 9.27519 30.1334C8.38568 31.0198 7.89593 32.203 7.89593 33.4647C7.89593 34.7267 8.38568 35.9099 9.27303 36.7941L12.4008 39.926V47.5164H1.24536C0.557557 47.5164 0.000244141 48.0737 0.000244141 48.7615C0.000244141 49.4493 0.557723 50.0066 1.24536 50.0066H12.4004V63.0395C12.4004 63.7273 12.9579 64.2846 13.6455 64.2846C14.3333 64.2846 14.8907 63.7273 14.8907 63.0395V39.4107C14.8907 39.0808 14.7597 38.7642 14.5266 38.5308L11.0326 35.0322C10.6156 34.6167 10.3858 34.06 10.3858 33.4647C10.3858 32.8695 10.6156 32.3129 11.0356 31.8942C11.4508 31.4777 12.007 31.2479 12.6018 31.2474H12.6038C13.2001 31.2474 13.7588 31.4777 14.1778 31.8965L16.4555 34.1694C16.9416 34.6545 17.7285 34.6545 18.2146 34.1694L20.4948 31.894C20.9104 31.477 21.467 31.2472 22.0622 31.2472C22.6573 31.2472 23.2142 31.4768 23.6329 31.897C24.0499 32.3126 24.2795 32.8692 24.2795 33.4644C24.2795 34.0597 24.0499 34.6163 23.6309 35.034L20.1389 38.5307C19.9058 38.7641 19.7748 39.0805 19.7748 39.4105V82.5096H14.8907V68.7898C14.8907 68.102 14.3332 67.5446 13.6455 67.5446C12.9577 67.5446 12.4004 68.102 12.4004 68.7898V82.5096H3.17014C2.48234 82.5096 1.92503 83.0669 1.92503 83.7547C1.92503 84.4425 2.4825 84.9998 3.17014 84.9998H83.7548C84.4426 84.9998 84.9999 84.4425 84.9999 83.7547C84.9999 83.0669 84.4426 82.5098 83.7548 82.5098ZM29.0717 82.5098H22.2649V68.0537C23.2865 66.9948 24.658 66.4114 26.1306 66.4114C29.029 66.4114 31.4367 68.7672 31.4975 71.6632C31.506 72.0696 31.7123 72.4462 32.0503 72.6722C33.5488 73.6738 34.4431 75.3434 34.4431 77.1382C34.4431 80.1001 32.0336 82.5098 29.0717 82.5098ZM59.0124 71.3685C59.1694 71.267 61.8059 69.7925 61.8059 69.7925L63.4986 73.2972C63.8811 74.0911 64.4323 74.8933 65.8623 75.3836L75.261 78.6182C75.1587 79.7265 75.2644 81.2396 75.7446 82.5096H59.0341C59.0341 82.5098 59.0132 71.4563 59.0124 71.3685ZM77.4142 72.476L75.9698 76.2287L66.6712 73.0285C66.0554 72.8175 65.9291 72.6048 65.7415 72.2155L63.9872 68.5834C65.6158 67.6957 67.9755 66.3329 69.5877 64.1447L70.4189 68.4473C70.5916 69.3409 70.7702 70.265 72.2639 70.7569L77.4142 72.476ZM69.0196 58.6803L58.2514 58.6959V47.7629L61.3006 43.9516C62.3106 44.3631 63.3676 44.5806 64.3805 44.5806C65.4661 44.5806 66.4817 44.4292 67.4157 44.1322L68.3177 45.4311C67.427 45.8445 66.7007 46.602 66.3645 47.5918C66.0456 48.5246 66.1168 49.5687 66.5599 50.456C67.003 51.3436 67.7599 51.9995 68.6909 52.3031C68.6911 52.3031 68.6914 52.3033 68.6916 52.3033L70.187 52.7899L69.0196 58.6803ZM77.9781 50.1628L78.6433 50.3919C79.1034 50.5483 79.4387 50.9903 79.4648 51.4714V57.8767C79.4648 58.1885 79.3376 58.487 79.1069 58.7171C78.87 58.9532 78.5486 59.0882 78.2242 59.0882C78.2227 59.0882 78.2213 59.0882 78.2202 59.0882C77.5601 59.0858 77.0234 58.534 77.0234 57.858V53.7357C77.0234 53.7109 77.025 53.6877 77.0262 53.6661C77.0836 52.5676 76.3588 52.1892 76.0445 52.0777C76.0343 52.074 76.0236 52.0704 76.0132 52.067L69.4632 49.9354C69.1708 49.8401 68.9311 49.6299 68.788 49.3437C68.6386 49.0442 68.6147 48.7082 68.7219 48.3951C68.927 47.7912 69.5723 47.4465 70.19 47.6112C71.0613 47.8446 76.9536 49.8097 77.9781 50.1628ZM57.9876 26.5556C60.5651 27.5829 62.6033 27.5665 64.2857 27.5514C65.4141 27.5421 66.3071 27.5341 67.133 27.8268C72.0486 29.5625 71.3646 34.7096 70.5841 37.4804C69.4197 37.6146 67.5348 37.6227 66.4983 36.7843C65.946 36.3376 65.6776 35.6588 65.6776 34.7093C65.6776 31.5336 62.5872 31.1758 60.7408 30.962C60.0199 30.8785 58.9314 30.7525 58.6692 30.5032C58.6687 30.5027 58.6681 30.5022 58.6676 30.5017C57.6974 29.571 57.4668 28.1695 57.9876 26.5556ZM57.8514 35.5565C57.8514 34.6925 58.0224 33.8494 58.3443 33.0673C59.0022 33.267 59.7347 33.3525 60.454 33.4358C62.8101 33.7087 63.187 33.9795 63.187 34.7095C63.187 36.8627 64.1398 38.0822 64.9391 38.7264C66.1929 39.7368 67.8512 40.0186 69.2298 40.0414C68.6952 40.6719 68.07 41.1577 67.3571 41.4907C66.5002 41.8885 65.4986 42.0902 64.3803 42.0902C63.6007 42.0902 62.7685 41.8969 61.9688 41.5289C59.9193 40.5969 57.8514 38.3885 57.8514 35.5565ZM50.0507 51.3281C49.7783 51.3281 49.4736 51.3281 49.3402 51.3108C49.2311 51.1989 49.0111 50.8961 48.9077 50.7537L45.3885 45.7711C45.059 45.3036 44.9866 44.8635 45.1735 44.463C45.3835 44.0135 45.9005 43.6688 46.4307 43.6245C46.9646 43.582 47.4345 43.8353 47.7964 44.3608L50.2154 47.8786C50.6289 48.4889 51.116 48.5711 51.5379 48.5711H55.761V51.3279H50.0507V51.3281ZM52.7641 67.8863C52.7641 66.9629 53.1882 66.2839 53.8251 65.5483C53.8259 65.5473 53.8267 65.5463 53.8275 65.5453L57.578 61.1871L68.42 61.1753C67.2931 63.9597 64.3476 65.556 62.4843 66.5658C62.2045 66.7174 58.2598 68.9231 58.2598 68.9231C56.7493 69.7714 56.4489 70.1866 56.4941 71.6909C56.4941 71.6909 56.5092 72.123 56.5092 72.3667L56.5275 76.7542H52.7639L52.7641 67.8863ZM47.7942 82.5098C47.9587 81.8138 48.3024 81.1914 48.8224 80.6502C49.7769 79.657 51.0498 79.2446 51.5191 79.2446H56.5359L56.5441 82.5098H47.7942ZM78.8183 82.5098C78.7333 82.5098 78.5751 82.5098 78.3528 82.1872C77.6524 81.1709 77.6104 78.9052 77.8159 78.366L79.7659 73.2991L82.3955 74.2649C82.3389 74.4506 79.3404 82.5096 79.3404 82.5096H78.8183V82.5098Z" fill="black"/>
</g>
<defs>
<clipPath id="clip0_15_81">
<rect width="85" height="85" fill="white"/>
</clipPath>
</defs>
</svg>
