<svg width="85" height="85" viewBox="0 0 85 85" fill="none" xmlns="http://www.w3.org/2000/svg">
<path d="M80.4067 64.8077C79.3394 63.7407 77.9208 63.1532 76.4112 63.1532C76.4105 63.1532 76.4095 63.1532 76.409 63.1532H76.2779C74.8368 63.1537 73.559 63.8645 72.7754 64.9536L64.3646 56.5428L62.653 43.7054C61.8984 38.047 57.0245 33.7797 51.3119 33.7797C49.7428 33.7797 48.4664 35.0562 48.4664 36.6252V39.5625C48.4664 42.8523 45.7899 45.5291 42.4998 45.5291C39.2099 45.5291 36.5332 42.8524 36.5332 39.5625V36.6252C36.5332 35.056 35.2567 33.7797 33.6837 33.7797C27.9749 33.7797 23.1011 38.047 22.3468 43.7054L20.6351 56.5428L12.2264 64.9515C12.0904 64.7629 11.9383 64.5839 11.7707 64.4162C10.9559 63.6016 9.87293 63.1532 8.71962 63.1532H8.71879C5.53063 63.1538 2.93713 65.7482 2.93713 68.9362C2.93713 72.067 5.43866 74.623 8.5478 74.7147C7.79027 75.7795 7.34319 77.0794 7.34319 78.4826C7.34335 82.0765 10.2671 85 13.8606 85H71.1393C74.7331 85 77.6566 82.0765 77.6566 78.4827C77.6566 77.0796 77.2094 75.7798 76.4522 74.715C79.561 74.6244 82.0627 72.0581 82.0627 68.9146V68.804C82.0627 67.2943 81.4746 65.875 80.4067 64.8077ZM54.3995 59.6179L54.8743 55.5825L55.3134 57.7781C55.709 59.757 56.6727 61.5573 58.0998 62.9845L67.0808 71.9654H56.7933L54.6384 63.3454C54.3326 62.123 54.2522 60.869 54.3995 59.6179ZM33.6879 36.5334C33.7385 36.5334 33.7797 36.5746 33.7797 36.6252V39.5625C33.7797 44.3708 37.6917 48.2828 42.5 48.2828C47.3083 48.2828 51.2203 44.3708 51.2203 39.5625V36.6252C51.2203 36.5746 51.2616 36.5334 51.3159 36.5334C52.3519 36.5334 53.3509 36.7203 54.2805 37.0608L51.6645 59.296C51.4779 60.8794 51.5797 62.4667 51.9665 64.0131L53.9546 71.9653H31.0454L33.0334 64.0131C33.4201 62.4664 33.5219 60.8793 33.3356 59.296L30.7197 37.0613C31.65 36.7205 32.6503 36.5334 33.6879 36.5334ZM30.1258 55.5824L30.6007 59.6177C30.7479 60.869 30.6676 62.123 30.3619 63.3454L28.2069 71.9654H17.919L26.9 62.9845C28.3271 61.5574 29.2906 59.7572 29.6864 57.7781L30.1258 55.5824ZM8.72029 71.9654C7.05 71.9654 5.69117 70.6066 5.69117 68.9363C5.69117 67.2664 7.04967 65.9075 8.72045 65.9072C9.13715 65.9072 9.52895 66.0692 9.82363 66.3639C10.1185 66.6586 10.2808 67.0504 10.2808 67.4676C10.2808 68.0246 10.6162 68.5264 11.1308 68.7396C11.6455 68.9528 12.2377 68.8351 12.6313 68.4411L22.9121 58.1602C23.126 57.9464 23.2636 57.6682 23.3034 57.3687L25.0766 44.0693C25.3723 41.8512 26.5031 39.9165 28.1234 38.5619L29.0856 46.741L26.9863 57.2379C26.6976 58.6819 25.9944 59.9957 24.9531 61.0371L14.025 71.9653H13.8606H8.72029V71.9654ZM36.717 82.2463H13.8606C11.7854 82.2463 10.0971 80.5581 10.0971 78.4827C10.0971 76.4074 11.7853 74.7191 13.8606 74.7191H23.4988V75.392C23.4988 77.4297 24.8881 79.1616 26.8771 79.6035L36.7168 81.7902V82.2463H36.717ZM36.717 78.9691L27.4746 76.9152C26.7551 76.7553 26.2527 76.129 26.2527 75.3918V74.7191H36.717V78.9691ZM71.1393 82.2463H39.4709V74.7193H71.1395C73.2145 74.7195 74.9027 76.4077 74.9027 78.4829C74.9027 80.5579 73.2145 82.2463 71.1393 82.2463ZM79.3088 68.9146C79.3088 70.5968 77.9511 71.9654 76.2825 71.9654H70.9753L60.0472 61.0371C59.0058 59.9957 58.3025 58.6817 58.0138 57.2379L55.9144 46.7409L56.8766 38.5618C58.4968 39.9163 59.6277 41.8512 59.9233 44.0695L61.6965 57.3689C61.7366 57.6685 61.874 57.9466 62.0878 58.1604L72.3687 68.4413C72.7626 68.8351 73.3547 68.9528 73.8693 68.7398C74.384 68.5266 74.7193 68.0246 74.7193 67.4678C74.7193 66.6075 75.4191 65.9075 76.2795 65.9072H76.4107C76.411 65.9072 76.4113 65.9072 76.4118 65.9072C77.1855 65.9072 77.9129 66.2085 78.4601 66.7554C79.0073 67.3026 79.309 68.0304 79.309 68.8043V68.9146H79.3088Z" fill="black"/>
<path d="M48.1218 7.14216C48.2288 6.69973 48.283 6.24518 48.283 5.78282C48.283 2.59433 45.6887 0 42.5001 0C39.3114 0 36.7171 2.59433 36.7171 5.78299C36.7171 6.24567 36.7722 6.69989 36.8789 7.14183C32.4458 9.25155 29.3735 13.7737 29.3735 19.0012V20.3504C29.3735 21.1074 29.9848 21.7226 30.7422 21.7273C30.8316 21.7271 31.3983 21.7271 32.3108 21.6682V23.4074C32.3108 29.0257 36.8816 33.5964 42.4999 33.5964C48.1182 33.5964 52.6889 29.0257 52.6889 23.4074V21.6933C53.1875 21.791 53.7078 21.847 54.2495 21.847C55.01 21.847 55.6264 21.2306 55.6264 20.4701V19.0013C55.6264 13.774 52.5545 9.25188 48.1218 7.14216ZM42.5001 2.7537C44.1703 2.7537 45.5292 4.11254 45.5292 5.78282C45.5292 5.93174 45.5152 6.07816 45.4941 6.22326C44.5316 5.99765 43.5304 5.87463 42.5001 5.87463C41.4699 5.87463 40.4685 5.99765 39.5061 6.2231C39.4852 6.07833 39.4709 5.9319 39.4709 5.78282C39.4709 4.11271 40.8298 2.7537 42.5001 2.7537ZM49.9352 23.4072C49.9352 27.507 46.5998 30.8424 42.5001 30.8424C38.4003 30.8424 35.0649 27.507 35.0649 23.4072V21.3875C38.1584 20.962 42.476 20.0032 46.5512 17.8405C47.2577 18.6558 48.415 19.7995 49.9354 20.6565L49.9352 23.4072ZM48.0496 15.2968C47.6431 14.6907 46.8342 14.5068 46.2055 14.8783C40.9518 17.983 34.8099 18.734 32.1277 18.9155C32.1742 13.2354 36.8092 8.6285 42.5001 8.6285C48.1894 8.6285 52.8236 13.2329 52.8722 18.9112C50.0116 18.1593 48.072 15.3297 48.0496 15.2968Z" fill="black"/>
</svg>
