<svg width="85" height="85" viewBox="0 0 85 85" fill="none" xmlns="http://www.w3.org/2000/svg">
<g clip-path="url(#clip0_46_37)">
<path d="M79.6875 0H5.3125C3.90402 0.00158187 2.55369 0.561798 1.55774 1.55774C0.561798 2.55369 0.00158187 3.90402 0 5.3125L0 58.4375C0 59.142 0.279854 59.8176 0.777998 60.3158C1.27614 60.8139 1.95177 61.0938 2.65625 61.0938H14.2773V58.4375H2.65625V55.7812H14.7423C15.0908 54.8011 15.6279 53.8986 16.3234 53.125H6.64062V50.4688H78.3594V53.125H68.0125C68.708 53.8986 69.2452 54.8011 69.5936 55.7812H82.3438V58.4375H70.0586V61.0938H82.3438C83.0482 61.0938 83.7239 60.8139 84.222 60.3158C84.7201 59.8176 85 59.142 85 58.4375V5.3125C84.9984 3.90402 84.4382 2.55369 83.4423 1.55774C82.4463 0.561798 81.096 0.00158187 79.6875 0ZM74.707 47.8125H10.293V45.1562H74.707V47.8125ZM82.3438 53.125H81.0156V50.4688C81.0156 49.7643 80.7358 49.0886 80.2376 48.5905C79.7395 48.0924 79.0639 47.8125 78.3594 47.8125H77.3633V45.1562C77.3633 44.4518 77.0834 43.7761 76.5853 43.278C76.0871 42.7799 75.4115 42.5 74.707 42.5H10.293C9.58849 42.5 8.91286 42.7799 8.41472 43.278C7.91657 43.7761 7.63672 44.4518 7.63672 45.1562V47.8125H6.64062C5.93614 47.8125 5.26052 48.0924 4.76237 48.5905C4.26423 49.0886 3.98438 49.7643 3.98438 50.4688V53.125H2.65625V5.3125C2.65625 4.60802 2.9361 3.93239 3.43425 3.43425C3.93239 2.9361 4.60802 2.65625 5.3125 2.65625H79.6875C80.392 2.65625 81.0676 2.9361 81.5658 3.43425C82.0639 3.93239 82.3438 4.60802 82.3438 5.3125V53.125Z" fill="black"/>
<path d="M22.2461 63.75H8.96484C7.55637 63.7516 6.20603 64.3118 5.21009 65.3077C4.21414 66.3037 3.65393 67.654 3.65234 69.0625V82.3438C3.65234 83.0482 3.9322 83.7239 4.43034 84.222C4.92848 84.7201 5.60411 85 6.30859 85H24.9023C25.6068 85 26.2825 84.7201 26.7806 84.222C27.2787 83.7239 27.5586 83.0482 27.5586 82.3438V69.0625C27.557 67.654 26.9968 66.3037 26.0009 65.3077C25.0049 64.3118 23.6546 63.7516 22.2461 63.75ZM24.9023 82.3438H6.30859V69.0625C6.30859 68.358 6.58845 67.6824 7.08659 67.1842C7.58473 66.6861 8.26036 66.4062 8.96484 66.4062H22.2461C22.9506 66.4062 23.6262 66.6861 24.1243 67.1842C24.6225 67.6824 24.9023 68.358 24.9023 69.0625V82.3438Z" fill="black"/>
<path d="M48.8086 63.75H35.5273C34.1189 63.7516 32.7685 64.3118 31.7726 65.3077C30.7766 66.3037 30.2164 67.654 30.2148 69.0625V82.3438C30.2148 83.0482 30.4947 83.7239 30.9928 84.222C31.491 84.7201 32.1666 85 32.8711 85H51.4648C52.1693 85 52.845 84.7201 53.3431 84.222C53.8412 83.7239 54.1211 83.0482 54.1211 82.3438V69.0625C54.1195 67.654 53.5593 66.3037 52.5633 65.3077C51.5674 64.3118 50.2171 63.7516 48.8086 63.75ZM51.4648 82.3438H32.8711V69.0625C32.8711 68.358 33.1509 67.6824 33.6491 67.1842C34.1472 66.6861 34.8229 66.4062 35.5273 66.4062H48.8086C49.5131 66.4062 50.1887 66.6861 50.6868 67.1842C51.185 67.6824 51.4648 68.358 51.4648 69.0625V82.3438Z" fill="black"/>
<path d="M76.0352 63.75H62.7539C61.3454 63.7516 59.9951 64.3118 58.9992 65.3077C58.0032 66.3037 57.443 67.654 57.4414 69.0625V82.3438C57.4414 83.0482 57.7213 83.7239 58.2194 84.222C58.7175 84.7201 59.3932 85 60.0977 85H78.6914C79.3959 85 80.0715 84.7201 80.5697 84.222C81.0678 83.7239 81.3477 83.0482 81.3477 82.3438V69.0625C81.3461 67.654 80.7859 66.3037 79.7899 65.3077C78.794 64.3118 77.4436 63.7516 76.0352 63.75ZM78.6914 82.3438H60.0977V69.0625C60.0977 68.358 60.3775 67.6824 60.8757 67.1842C61.3738 66.6861 62.0494 66.4062 62.7539 66.4062H76.0352C76.7396 66.4062 77.4153 66.6861 77.9134 67.1842C78.4116 67.6824 78.6914 68.358 78.6914 69.0625V82.3438Z" fill="black"/>
<path d="M67.4023 61.0938V58.4375C67.4007 57.029 66.8405 55.6787 65.8446 54.6828C64.8486 53.6868 63.4983 53.1266 62.0898 53.125H48.8086C47.4001 53.1266 46.0498 53.6868 45.0539 54.6828C44.0579 55.6787 43.4977 57.029 43.4961 58.4375V61.0938H46.1523V58.4375C46.1523 57.733 46.4322 57.0574 46.9303 56.5592C47.4285 56.0611 48.1041 55.7812 48.8086 55.7812H62.0898C62.7943 55.7812 63.47 56.0611 63.9681 56.5592C64.4662 57.0574 64.7461 57.733 64.7461 58.4375V61.0938H67.4023Z" fill="black"/>
<path d="M40.8398 61.0938V58.4375C40.8382 57.029 40.278 55.6787 39.2821 54.6828C38.2861 53.6868 36.9358 53.1266 35.5273 53.125H22.2461C20.8376 53.1266 19.4873 53.6868 18.4914 54.6828C17.4954 55.6787 16.9352 57.029 16.9336 58.4375V61.0938H19.5898V58.4375C19.5898 57.733 19.8697 57.0574 20.3678 56.5592C20.866 56.0611 21.5416 55.7812 22.2461 55.7812H35.5273C36.2318 55.7812 36.9075 56.0611 37.4056 56.5592C37.9037 57.0574 38.1836 57.733 38.1836 58.4375V61.0938H40.8398Z" fill="black"/>
</g>
<defs>
<clipPath id="clip0_46_37">
<rect width="85" height="85" fill="white"/>
</clipPath>
</defs>
</svg>
