<svg width="85" height="85" viewBox="0 0 85 85" fill="none" xmlns="http://www.w3.org/2000/svg">
<path d="M79.8458 26.3965C79.8477 25.6986 79.7111 25.0072 79.444 24.3625C79.1768 23.7177 78.7844 23.1324 78.2894 22.6404L73.8313 18.1822L77.2855 14.7281C78.1545 13.8569 78.6425 12.6768 78.6425 11.4463C78.6425 10.2159 78.1545 9.03571 77.2855 8.1646C76.8742 7.64509 76.3585 7.21775 75.7716 6.91024C75.1846 6.60274 74.5397 6.42192 73.8785 6.3795C73.2173 6.33708 72.5545 6.434 71.9331 6.664C71.3117 6.89399 70.7456 7.25192 70.2713 7.71461L66.8182 11.1687L62.3596 6.71002C61.3634 5.71388 60.0123 5.15427 58.6035 5.15427C57.1947 5.15427 55.8436 5.71388 54.8474 6.71002L50.875 10.6824C44.3596 4.57275 34.3938 14.7818 40.6895 21.1529L48.7619 29.2252L29.2249 48.7616L21.1528 40.6894C14.7917 34.3994 4.58737 44.3417 10.6825 50.8742L6.71068 54.8468C6.21726 55.34 5.82585 55.9256 5.5588 56.5702C5.29175 57.2147 5.1543 57.9055 5.1543 58.6032C5.1543 59.3009 5.29175 59.9917 5.5588 60.6362C5.82585 61.2808 6.21726 61.8664 6.71068 62.3596L11.1687 66.8178L7.71456 70.2719C3.38698 74.6748 10.2966 81.6303 14.7288 77.286L18.182 73.8313L22.6405 78.29C23.6367 79.2861 24.9878 79.8457 26.3966 79.8457C27.8054 79.8457 29.1565 79.2861 30.1527 78.29L34.1251 74.3176C40.6401 80.4282 50.6064 70.2173 44.3106 63.8471L36.2383 55.7748L55.7751 36.2384L63.8473 44.3106C64.5494 44.9931 65.3879 45.5194 66.3078 45.855C67.2276 46.1905 68.2081 46.3278 69.1847 46.2577C70.1614 46.1876 71.1121 45.9118 71.9747 45.4484C72.8372 44.9849 73.592 44.3443 74.1895 43.5686C75.4335 42.3198 76.1425 40.6358 76.1664 38.8732C76.1904 37.1107 75.5273 35.4081 74.3177 34.1259L78.2894 30.1532C78.7844 29.6611 79.1768 29.0757 79.444 28.4308C79.7112 27.7859 79.8477 27.0945 79.8458 26.3965ZM72.1494 9.59323C74.0356 7.67817 77.3219 10.9604 75.4074 12.85L71.9535 16.3039L68.6968 13.0465L72.1494 9.59323ZM12.8507 75.4068C10.9646 77.3222 7.67792 74.0388 9.59265 72.15L13.0465 68.6961L16.3033 71.9535L12.8507 75.4068ZM28.2746 76.4119C27.7684 76.8946 27.0959 77.1639 26.3965 77.1639C25.6971 77.1639 25.0246 76.8946 24.5185 76.4119L8.58875 60.4816C8.09354 59.9818 7.81571 59.3067 7.81571 58.6032C7.81571 57.8996 8.09354 57.2246 8.58875 56.7248L12.5459 52.767L32.233 72.4535L28.2746 76.4119ZM42.4326 71.5696C42.0183 72.1679 41.4642 72.6559 40.8183 72.9912C40.1724 73.3265 39.4544 73.4989 38.7268 73.4935C37.9991 73.488 37.2837 73.3049 36.643 72.96C36.0022 72.6151 35.4554 72.1188 35.0501 71.5144L12.6885 49.153C12.255 48.6944 11.9267 48.1468 11.7267 47.5484C11.5266 46.9499 11.4595 46.315 11.5302 45.6879C11.6009 45.0609 11.8075 44.4568 12.1357 43.9178C12.464 43.3789 12.9058 42.9181 13.4306 42.5675C14.2062 41.7938 15.2571 41.3593 16.3526 41.3593C17.4482 41.3593 18.499 41.7938 19.2747 42.5674L42.4326 65.7253C43.2063 66.501 43.6407 67.5519 43.6407 68.6475C43.6407 69.743 43.2063 70.7939 42.4326 71.5696ZM53.8967 34.3607L34.36 53.8967L31.1034 50.6393L50.6401 31.1033L53.8967 34.3607ZM72.3115 41.6907C71.961 42.2155 71.5001 42.6576 70.9611 42.9859C70.4221 43.3142 69.8179 43.5209 69.1907 43.5915C68.5636 43.6621 67.9285 43.595 67.33 43.3948C66.7314 43.1946 66.1838 42.8662 65.7253 42.4325L42.5675 19.2747C41.7938 18.4991 41.3593 17.4483 41.3593 16.3529C41.3593 15.2574 41.7938 14.2066 42.5675 13.431C42.995 12.8541 43.5456 12.3795 44.1794 12.0418C44.8132 11.704 45.5142 11.5116 46.2315 11.4785C46.9615 11.5158 47.674 11.7152 48.3173 12.0624C48.9605 12.4096 49.5182 12.8958 49.9499 13.4856L71.5151 35.0507L72.3115 35.8471C73.0852 36.6226 73.5197 37.6734 73.5197 38.7689C73.5197 39.8643 73.0852 40.9151 72.3115 41.6907ZM76.4113 28.2752L72.4542 32.233L52.7671 12.5465L56.7255 8.58807C57.2316 8.10541 57.9042 7.83615 58.6035 7.83615C59.3029 7.83615 59.9755 8.10541 60.4816 8.58807L76.4113 24.5184C76.9065 25.0182 77.1843 25.6933 77.1843 26.3968C77.1843 27.1004 76.9065 27.7754 76.4113 28.2752Z" fill="black"/>
</svg>
