<svg width="85" height="85" viewBox="0 0 85 85" fill="none" xmlns="http://www.w3.org/2000/svg">
<g clip-path="url(#clip0_15_127)">
<path d="M69.8776 13.1136C67.785 13.1136 66 14.481 65.3942 16.3891H56.2187C55.6129 14.481 53.8279 13.1136 51.7353 13.1136C49.1414 13.1136 47.0314 15.2236 47.0314 17.8175C47.0314 18.7945 47.3302 19.7278 47.8754 20.5076C47.3302 21.2874 47.0314 22.2207 47.0314 23.1977C47.0314 25.7915 49.1414 27.9016 51.7353 27.9016C53.8279 27.9016 55.6129 26.5341 56.2187 24.6259H65.3942C66 26.5341 67.785 27.9016 69.8776 27.9016C72.4714 27.9016 74.5815 25.7915 74.5815 23.1977C74.5815 22.2207 74.2827 21.2874 73.7375 20.5076C74.2827 19.7278 74.5815 18.7945 74.5815 17.8175C74.5815 15.2238 72.4714 13.1136 69.8776 13.1136ZM71.2678 21.4758C71.7911 21.8991 72.0913 22.5268 72.0913 23.1979C72.0913 24.4186 71.0983 25.4115 69.8776 25.4115C68.6994 25.4115 67.7285 24.4911 67.6673 23.3161C67.6327 22.6545 67.0862 22.1359 66.4238 22.1359H55.189C54.5266 22.1359 53.9801 22.6547 53.9456 23.3161C53.8842 24.4911 52.9133 25.4115 51.7353 25.4115C50.5145 25.4115 49.5216 24.4186 49.5216 23.1979C49.5216 22.5268 49.8218 21.8991 50.345 21.4758C50.6374 21.2394 50.8072 20.8836 50.8072 20.5076C50.8072 20.1315 50.6374 19.7759 50.345 19.5394C49.8218 19.116 49.5216 18.4883 49.5216 17.8173C49.5216 16.5966 50.5145 15.6036 51.7353 15.6036C52.9135 15.6036 53.8843 16.524 53.9456 17.6991C53.9801 18.3605 54.5266 18.8793 55.189 18.8793H66.4238C67.0862 18.8793 67.6327 18.3605 67.6673 17.6991C67.7287 16.524 68.6996 15.6036 69.8776 15.6036C71.0983 15.6036 72.0913 16.5966 72.0913 17.8173C72.0913 18.4883 71.7911 19.116 71.2678 19.5394C70.9755 19.7758 70.8056 20.1315 70.8056 20.5076C70.8056 20.8836 70.9755 21.2394 71.2678 21.4758Z" fill="black"/>
<path d="M80.8282 67.6202C80.9683 66.9961 81.0179 66.3505 80.9728 65.7053C80.7404 62.3839 77.9478 59.7067 74.6154 59.6104C73.5967 59.5827 72.595 59.7879 71.6846 60.2054C70.6056 57.9984 68.3385 56.5223 65.7839 56.5223C65.6344 56.5223 65.4864 56.5285 65.3391 56.5383V34.9486H78.283C80.3428 34.9486 82.0184 33.273 82.0184 31.2133V9.80189C82.0184 7.74214 80.3428 6.06654 78.283 6.06654H73.4646C72.7769 6.06654 72.2195 6.62402 72.2195 7.31166C72.2195 7.9993 72.7769 8.55678 73.4646 8.55678H78.283C78.9696 8.55678 79.5281 9.11525 79.5281 9.80189V31.2133C79.5281 31.8999 78.9696 32.4584 78.283 32.4584H43.3301C42.6434 32.4584 42.085 31.8999 42.085 31.2133V9.80189C42.085 9.11525 42.6434 8.55678 43.3301 8.55678H67.6539C68.3415 8.55678 68.899 7.9993 68.899 7.31166C68.899 6.62402 68.3415 6.06654 67.6539 6.06654H43.3301C41.2703 6.06654 39.5947 7.74214 39.5947 9.80189V31.2133C39.5947 33.273 41.2703 34.9486 43.3301 34.9486H56.274V45.4883C56.274 46.1759 56.8315 46.7334 57.5191 46.7334C58.2067 46.7334 58.7642 46.1759 58.7642 45.4883V34.9486H62.8487V57.2198C61.5707 57.8601 60.5192 58.904 59.883 60.2056C59.5231 60.0404 59.1484 59.9099 58.7644 59.8124V51.2988C58.7644 50.6112 58.2069 50.0537 57.5193 50.0537C56.8316 50.0537 56.2741 50.6112 56.2741 51.2988V59.6673C53.2485 60.0786 50.8112 62.612 50.5948 65.7053C50.5496 66.3503 50.5991 66.9961 50.7394 67.6202C48.284 68.5905 46.5676 71.0067 46.5676 73.7335V76.4432H36.2796C36.5683 75.8477 36.8267 75.2384 37.0525 74.6174C40.9614 74.4514 44.4948 72.036 46.035 68.3838C47.0898 65.8826 47.1179 63.1253 46.1145 60.6196C45.1113 58.1144 43.1876 56.1385 40.6972 55.0554L40.5936 55.0111C39.6605 54.6173 38.6018 54.88 37.9595 55.6649C37.32 56.4465 37.272 57.5312 37.8403 58.3644C39.3462 60.5728 39.61 63.3522 38.5455 65.7995C38.4313 66.0619 38.3 66.3159 38.1575 66.5633C37.9729 64.1622 37.3407 61.8028 36.2867 59.6282L32.9413 52.7261L35.061 49.8638C35.9366 48.6814 36.4187 47.2202 36.4187 45.7491V43.6052C37.5297 41.4878 38.2822 37.7548 36.1104 31.6361C35.7633 30.6578 34.9513 29.9371 33.9384 29.7082C32.9244 29.4787 31.8803 29.781 31.145 30.5162L27.6511 34.0101C27.0325 33.8919 26.4008 33.8237 25.7606 33.8099C25.6406 33.8074 25.5213 33.8063 25.3997 33.8068C24.6834 33.8097 23.9722 33.8831 23.2751 34.0201L19.7711 30.516C19.036 29.781 17.9919 29.4789 16.9779 29.708C15.9649 29.9368 15.1529 30.6576 14.8058 31.6359C12.6341 37.7548 13.3867 41.4876 14.4976 43.605V45.7489C14.4976 47.22 14.9798 48.6814 15.8553 49.8636L17.975 52.7259L15.9963 56.8084C14.7653 56.1978 13.3842 55.9227 11.9882 56.0266C10.5981 56.1302 9.25819 56.6168 8.11318 57.4343C7.55354 57.8339 7.42372 58.6115 7.82315 59.1711C8.22275 59.7308 9.00004 59.8606 9.56001 59.4611C10.3341 58.9086 11.2376 58.5798 12.1731 58.51C13.1282 58.4392 14.0718 58.6286 14.9104 59.0488L14.6296 59.628C13.2012 62.5749 12.545 65.8609 12.7317 69.1306C12.8768 71.6704 13.5308 74.161 14.6369 76.4429H3.29342C2.85065 76.4429 2.49023 76.0826 2.49023 75.6397V72.8868C2.49023 70.3239 4.39825 68.1066 6.9285 67.7291C7.3193 67.6708 7.6593 67.4304 7.84457 67.0814C8.02984 66.7325 8.03848 66.3163 7.86781 65.9598C7.51669 65.2267 7.34636 64.4361 7.3618 63.6102C7.37458 62.9227 6.82772 62.355 6.14009 62.3422C5.45561 62.3289 4.88484 62.8763 4.87206 63.5639C4.85878 64.2721 4.93863 64.9636 5.11029 65.6321C2.11487 66.7125 0 69.6087 0 72.8872V75.64C0 77.4561 1.47737 78.9335 3.29342 78.9335H81.9393C83.6271 78.9335 85.0002 77.5603 85.0002 75.8726V73.7333C85 71.0067 83.2836 68.5905 80.8282 67.6202ZM38.0529 70.5158C39.2501 69.5056 40.2048 68.2288 40.8292 66.7929C42.1298 63.8026 41.9317 60.4383 40.3239 57.6411C41.908 58.4999 43.1299 59.8654 43.8029 61.5456C44.5609 63.4384 44.5388 65.5232 43.7405 67.4163C42.6878 69.9128 40.4032 71.6454 37.7905 72.0473C37.8984 71.5408 37.9859 71.0299 38.0529 70.5158ZM32.9058 32.2774C33.0828 32.1004 33.2848 32.1139 33.3896 32.1375C33.4937 32.161 33.6806 32.2354 33.7636 32.4693C34.3267 34.0559 35.0238 36.5073 35.0044 38.8653C34.8918 38.6944 34.7743 38.5267 34.6493 38.3641C33.4752 36.8357 31.9837 35.6517 30.3105 34.8726L32.9058 32.2774ZM15.9118 38.8651C15.8925 36.5072 16.5894 34.0559 17.1526 32.4693C17.2356 32.2354 17.4227 32.161 17.5268 32.1375C17.6315 32.1141 17.8337 32.1004 18.0105 32.2774L20.6185 34.8854C18.9304 35.6701 17.424 36.8581 16.2652 38.3664C16.1407 38.5282 16.0237 38.6951 15.9118 38.8651ZM17.8565 48.3819C17.2963 47.6256 16.9879 46.6906 16.9879 45.7494V43.5683C16.9879 42.2432 17.4325 40.9345 18.24 39.8836C19.9562 37.6495 22.6367 36.3089 25.4099 36.2973C25.5086 36.2973 25.6082 36.2978 25.7075 36.3C28.4322 36.3587 30.9715 37.664 32.6769 39.8836C33.4842 40.9345 33.9288 42.243 33.9288 43.5681V45.7493C33.9288 46.6904 33.6203 47.6254 33.06 48.3819L31.4467 50.5604C30.8691 47.7838 28.4038 45.691 25.4585 45.691C22.5132 45.691 20.0477 47.7838 19.4701 50.5602L17.8565 48.3819ZM24.7534 50.0537H26.1629C26.8505 50.0537 27.408 49.4962 27.408 48.8086C27.408 48.7892 27.406 48.7701 27.405 48.7508C28.4136 49.3955 29.0843 50.5244 29.0843 51.8075V55.2561C29.0843 55.6828 28.7371 56.0301 28.3103 56.0301C28.1453 56.0301 27.9816 55.976 27.849 55.8777C27.1339 55.3469 26.296 55.0815 25.458 55.0815C24.62 55.0815 23.7821 55.3469 23.067 55.8777C22.9346 55.976 22.7709 56.0301 22.6059 56.0301C22.179 56.0301 21.8319 55.683 21.8319 55.2561V51.8075C21.8319 50.5242 22.5026 49.3955 23.5111 48.7507C23.5103 48.7699 23.5081 48.7888 23.5081 48.8084C23.5083 49.4962 24.0656 50.0537 24.7534 50.0537ZM33.4651 76.4432H33.2355V75.9659C33.2355 75.1368 33.0124 74.3214 32.5904 73.6077L32.3558 73.2109C32.1605 72.8809 32.0575 72.5037 32.0575 72.1202V65.9082C32.0575 65.2206 31.5 64.6631 30.8123 64.6631C30.1247 64.6631 29.5672 65.2206 29.5672 65.9082V72.12C29.5672 72.9491 29.7903 73.7646 30.2124 74.4783L30.4469 74.875C30.6422 75.2051 30.7453 75.5823 30.7453 75.9658V76.4431H26.7031V65.9082C26.7031 65.2206 26.1456 64.6631 25.458 64.6631C24.7704 64.6631 24.2129 65.2206 24.2129 65.9082V76.4432H20.1709V75.9659C20.1709 75.5824 20.2742 75.2052 20.4694 74.875L20.7038 74.4786C21.1258 73.7651 21.3489 72.9496 21.3489 72.1202V65.9082C21.3489 65.2206 20.7915 64.6631 20.1038 64.6631C19.4162 64.6631 18.8587 65.2206 18.8587 65.9082V72.12C18.8587 72.5037 18.7556 72.8807 18.5602 73.2109L18.3258 73.6075C17.9038 74.3212 17.6808 75.1367 17.6808 75.9658V76.4431H17.4512C14.6427 71.6085 14.4158 65.7789 16.8705 60.7142L19.3583 55.5817C19.5221 57.2292 20.916 58.5203 22.606 58.5203C23.302 58.5203 23.9929 58.2919 24.5516 57.877C25.0941 57.4744 25.8227 57.4744 26.3648 57.877C26.9236 58.2919 27.6145 58.5203 28.3105 58.5203C30.0005 58.5203 31.3942 57.2292 31.5581 55.5815L34.0458 60.7142C36.5005 65.7789 36.2734 71.6085 33.4651 76.4432ZM82.5098 75.8726C82.5098 76.1872 82.2538 76.4432 81.9392 76.4432H49.0576V73.7335C49.0576 71.7302 50.5489 69.997 52.5265 69.702C52.9173 69.6437 53.2573 69.4033 53.4426 69.0544C53.6279 68.7054 53.6365 68.2892 53.4658 67.9328C53.1629 67.3001 53.029 66.5902 53.0788 65.8793C53.2229 63.8197 54.9558 62.1596 57.0239 62.0998C58.0254 62.0707 58.9938 62.4071 59.758 63.0461C60.0968 63.3293 60.56 63.4122 60.9759 63.2634C61.3916 63.1147 61.6975 62.7571 61.7799 62.3233C62.1443 60.4051 63.828 59.0129 65.7837 59.0129C67.7394 59.0129 69.4231 60.4051 69.7875 62.3233C69.8698 62.7571 70.1758 63.1148 70.5917 63.2634C71.0077 63.4122 71.4709 63.3293 71.8096 63.0461C72.5737 62.4071 73.5433 62.0714 74.5437 62.0998C76.6117 62.1594 78.3448 63.8196 78.4889 65.8793C78.5385 66.59 78.4047 67.3001 78.1017 67.9328C77.9311 68.2892 77.9397 68.7054 78.125 69.0544C78.3102 69.4035 78.6502 69.6437 79.041 69.702C81.0184 69.9968 82.5098 71.73 82.5098 73.7335V75.8726Z" fill="black"/>
<path d="M22.3492 44.5212C23.0369 44.5212 23.5944 43.9638 23.5944 43.2761V42.334C23.5944 41.6463 23.0369 41.0889 22.3492 41.0889C21.6616 41.0889 21.1041 41.6463 21.1041 42.334V43.2761C21.1041 43.9638 21.6616 44.5212 22.3492 44.5212Z" fill="black"/>
<path d="M28.567 44.5212C29.2547 44.5212 29.8121 43.9638 29.8121 43.2761V42.334C29.8121 41.6463 29.2547 41.0889 28.567 41.0889C27.8794 41.0889 27.3219 41.6463 27.3219 42.334V43.2761C27.3219 43.9638 27.8794 44.5212 28.567 44.5212Z" fill="black"/>
</g>
<defs>
<clipPath id="clip0_15_127">
<rect width="85" height="85" fill="white"/>
</clipPath>
</defs>
</svg>
