<svg width="85" height="85" viewBox="0 0 85 85" fill="none" xmlns="http://www.w3.org/2000/svg">
<path d="M75.7031 15.9375H9.29688C8.24051 15.9387 7.22774 16.3588 6.48077 17.1058C5.7338 17.8527 5.31365 18.8655 5.3125 19.9219V65.0781C5.31365 66.1345 5.7338 67.1473 6.48077 67.8942C7.22774 68.6412 8.24051 69.0613 9.29688 69.0625H75.7031C76.7595 69.0613 77.7723 68.6412 78.5192 67.8942C79.2662 67.1473 79.6863 66.1345 79.6875 65.0781V62.4219C79.6811 62.0739 79.5383 61.7423 79.2899 61.4985C79.0416 61.2546 78.7074 61.118 78.3593 61.118C78.0113 61.1181 77.6771 61.2547 77.4288 61.4985C77.1804 61.7424 77.0377 62.0739 77.0312 62.4219V65.0781C77.0308 65.4302 76.8907 65.7678 76.6417 66.0167C76.3928 66.2657 76.0552 66.4058 75.7031 66.4062H9.29688C8.94477 66.4058 8.60723 66.2657 8.35825 66.0167C8.10928 65.7678 7.96921 65.4302 7.96875 65.0781V19.9219C7.96921 19.5698 8.10928 19.2322 8.35825 18.9833C8.60723 18.7343 8.94477 18.5942 9.29688 18.5938H75.7031C76.0552 18.5942 76.3928 18.7343 76.6417 18.9833C76.8907 19.2322 77.0308 19.5698 77.0312 19.9219V55.7812C77.0312 56.1335 77.1712 56.4713 77.4202 56.7204C77.6693 56.9694 78.0071 57.1094 78.3594 57.1094C78.7116 57.1094 79.0494 56.9694 79.2985 56.7204C79.5476 56.4713 79.6875 56.1335 79.6875 55.7812V19.9219C79.6863 18.8655 79.2662 17.8527 78.5192 17.1058C77.7723 16.3588 76.7595 15.9387 75.7031 15.9375Z" fill="black"/>
<path d="M15.9375 23.9062C16.2863 23.9011 16.6191 23.7589 16.8639 23.5104C17.1088 23.2619 17.246 22.927 17.246 22.5781C17.246 22.2293 17.1088 21.8944 16.8639 21.6459C16.6191 21.3974 16.2863 21.2552 15.9375 21.25H11.9531C11.6008 21.25 11.263 21.3899 11.014 21.639C10.7649 21.8881 10.625 22.2259 10.625 22.5781C10.6243 28.6084 10.6254 46.8246 10.625 53.125V62.4219C10.625 62.7741 10.7649 63.1119 11.014 63.361C11.263 63.6101 11.6008 63.75 11.9531 63.75H73.0468C73.3991 63.75 73.7369 63.6101 73.986 63.361C74.235 63.1119 74.375 62.7741 74.375 62.4219C74.3748 56.4131 74.3751 38.1601 74.375 31.875V22.5781C74.375 22.2259 74.235 21.8881 73.986 21.639C73.7369 21.3899 73.3991 21.25 73.0468 21.25H22.5781C22.2302 21.2566 21.8988 21.3995 21.6551 21.6478C21.4115 21.8962 21.275 22.2302 21.275 22.5782C21.275 22.9261 21.4115 23.2601 21.6552 23.5085C21.8989 23.7568 22.2303 23.8997 22.5782 23.9062H41.1718V34.6512C39.3263 34.9763 37.6544 35.9413 36.4497 37.3767C35.2451 38.8121 34.5848 40.6261 34.5848 42.5001C34.5848 44.374 35.2452 46.188 36.4499 47.6234C37.6545 49.0587 39.3265 50.0237 41.172 50.3488L41.1718 61.0938H13.2812V54.4531H21.25C21.6022 54.4531 21.94 54.3132 22.1891 54.0641C22.4382 53.8151 22.5781 53.4772 22.5781 53.125V49.0064C24.0666 48.687 25.4006 47.8668 26.3575 46.6828C27.3144 45.4987 27.8364 44.0223 27.8364 42.4999C27.8364 40.9775 27.3143 39.5012 26.3574 38.3171C25.4004 37.1331 24.0664 36.313 22.5779 35.9936L22.5781 31.875C22.5781 31.5228 22.4382 31.1849 22.1891 30.9359C21.94 30.6868 21.6022 30.5469 21.25 30.5469H13.2812V23.9062H15.9375ZM62.4218 46.2396C61.6536 45.961 60.9899 45.4526 60.5208 44.7835C60.0517 44.1144 59.8001 43.3171 59.8001 42.4999C59.8001 41.6828 60.0518 40.8854 60.5209 40.2164C60.99 39.5473 61.6538 39.0389 62.422 38.7604L62.4218 46.2396ZM65.0781 33.2031H71.7187V51.7969H65.0781V33.2031ZM43.8281 37.3761C44.9587 37.6753 45.9587 38.3401 46.6721 39.2669C47.3855 40.1937 47.7723 41.3304 47.7723 42.5C47.7723 43.6696 47.3854 44.8063 46.672 45.7331C45.9585 46.6599 44.9586 47.3246 43.8279 47.6238L43.8281 37.3761ZM37.1875 42.5C37.191 41.3254 37.5841 40.1852 38.3051 39.258C39.0261 38.3308 40.0343 37.6689 41.1718 37.3761V47.6239C40.0343 47.3311 39.0261 46.6692 38.3051 45.742C37.5841 44.8148 37.191 43.6746 37.1875 42.5ZM43.8281 50.3488C45.6737 50.0238 47.3457 49.0588 48.5504 47.6234C49.7551 46.1879 50.4154 44.3739 50.4154 42.4999C50.4154 40.626 49.755 38.8119 48.5503 37.3765C47.3455 35.9411 45.6735 34.9762 43.8279 34.6512L43.8281 23.9062H71.7187V30.5469H63.75C63.3977 30.5469 63.0599 30.6868 62.8108 30.9359C62.5618 31.1849 62.4218 31.5228 62.4218 31.875V35.9936C60.9221 36.2997 59.5742 37.1145 58.6062 38.3001C57.6381 39.4857 57.1093 40.9694 57.1093 42.5C57.1093 44.0306 57.6381 45.5143 58.6062 46.6999C59.5742 47.8855 60.9221 48.7003 62.4218 49.0064V53.125C62.4218 53.4772 62.5618 53.8151 62.8108 54.0641C63.0599 54.3132 63.3977 54.4531 63.75 54.4531H71.7187V61.0938H43.8281V50.3488ZM25.2343 42.5C25.2318 43.3213 24.9751 44.1217 24.4995 44.7913C24.0239 45.4608 23.3527 45.9668 22.5781 46.2396V38.7604C23.3527 39.0332 24.0239 39.5392 24.4995 40.2087C24.9751 40.8783 25.2318 41.6787 25.2343 42.5ZM19.9218 33.2031V51.7969H13.2812V33.2031H19.9218Z" fill="black"/>
</svg>
