<svg width="85" height="85" viewBox="0 0 85 85" fill="none" xmlns="http://www.w3.org/2000/svg">
<path d="M50.2441 66.8791C49.7019 66.4556 48.9195 66.5515 48.4963 67.0936L42.2266 75.1171C41.8032 75.659 41.8992 76.4416 42.4411 76.8649C42.6688 77.0427 42.9388 77.1291 43.2069 77.1291C43.5769 77.1291 43.9433 76.9647 44.1889 76.6506L50.4586 68.6271C50.8819 68.085 50.786 67.3024 50.2441 66.8791Z" fill="black"/>
<path d="M34.2256 59.8239C33.9987 58.7099 33.1246 57.8692 31.8275 57.5173C29.2798 56.8258 25.6848 58.107 23.977 60.3142L21.1833 63.9253C20.8149 64.4016 20.7038 64.9732 20.8786 65.494C21.0499 66.0047 21.4673 66.384 22.0238 66.5351L25.9305 67.5948C26.1084 67.6431 26.2965 67.6663 26.4888 67.6663C27.0614 67.6663 27.67 67.4588 28.1491 67.0818L32.268 63.841C33.7883 62.6445 34.5019 61.1804 34.2256 59.8239ZM30.728 61.884L26.6093 65.1248C26.5857 65.1432 26.5412 65.1621 26.5074 65.1711L23.9126 64.4672L25.9466 61.838C27.023 60.4466 29.6129 59.4972 31.1756 59.9207C31.3069 59.9562 31.7385 60.0904 31.7855 60.3208C31.837 60.5741 31.5979 61.1993 30.728 61.884Z" fill="black"/>
<path d="M23.4479 68.179L19.7406 67.1733C18.9426 66.9566 17.9443 67.2437 17.3133 67.8707L16.1897 68.9875C15.2459 69.9255 14.8556 71.0343 15.119 72.0294C15.3553 72.9217 16.0854 73.5949 17.1224 73.8761C17.501 73.9789 17.9088 74.0281 18.3313 74.0281C19.9501 74.0279 21.7806 73.3067 22.9762 72.1185L24.0997 71.0019C24.5796 70.525 24.7748 69.8948 24.6216 69.316C24.4759 68.7635 24.0369 68.3387 23.4479 68.179ZM21.221 70.352C20.2911 71.2762 18.6348 71.706 17.7745 71.4726C17.6465 71.4379 17.5699 71.3975 17.5324 71.3718C17.55 71.2787 17.6431 71.0542 17.9455 70.7536L19.0626 69.6427C19.0827 69.6265 19.1283 69.6066 19.1639 69.5971L21.3767 70.1974L21.221 70.352Z" fill="black"/>
<path d="M46.4046 63.9605C47.9249 62.7642 48.6385 61.3001 48.3622 59.9434C48.1354 58.8295 47.2614 57.9888 45.9641 57.6368C43.4163 56.9455 39.8212 58.2265 38.1136 60.4337L35.32 64.0445C34.9515 64.5208 34.8402 65.0926 35.015 65.6134C35.1864 66.124 35.6039 66.5036 36.1602 66.6545L40.0669 67.7143C40.2449 67.7626 40.433 67.7859 40.6252 67.7859C41.1978 67.7859 41.8064 67.5783 42.2855 67.2013L46.4046 63.9605ZM40.6441 65.2906L38.0493 64.5867L40.0833 61.9575C41.1599 60.5663 43.75 59.6167 45.3123 60.0402C45.4435 60.0758 45.8753 60.2099 45.9221 60.4403C45.9737 60.6937 45.7347 61.3189 44.8648 62.0035L40.7459 65.2443C40.7223 65.2628 40.6778 65.2817 40.6441 65.2906Z" fill="black"/>
<path d="M37.5846 68.2983L33.8773 67.2928C33.0788 67.076 32.081 67.3632 31.45 67.99L30.3264 69.1068C29.3826 70.0448 28.9923 71.1536 29.2558 72.1487C29.4918 73.0411 30.2221 73.7143 31.2591 73.9957C31.6378 74.0984 32.0455 74.1476 32.468 74.1476C34.0868 74.1476 35.9173 73.4262 37.113 72.2381L38.2364 71.1214C38.7163 70.6445 38.9116 70.0143 38.7585 69.4355C38.6126 68.8832 38.1738 68.4582 37.5846 68.2983ZM35.3577 70.4715C34.4276 71.3957 32.7713 71.8252 31.9112 71.5921C31.7832 71.5574 31.7065 71.517 31.669 71.4911C31.6866 71.398 31.7797 71.1736 32.082 70.8729L33.1991 69.7621C33.2192 69.7458 33.2649 69.7259 33.3002 69.7164L35.5132 70.3166L35.3577 70.4715Z" fill="black"/>
<path d="M47.2089 37.6024C44.6606 36.9111 41.066 38.1921 39.3584 40.3994L36.5645 44.0106C36.1961 44.4867 36.085 45.0585 36.2598 45.5791C36.4312 46.0898 36.8484 46.4691 37.405 46.6202L41.3117 47.6798C41.4897 47.7282 41.6779 47.7514 41.87 47.7514C42.4426 47.7514 43.0512 47.5439 43.5302 47.1669L47.649 43.9261C49.1696 42.7298 49.8831 41.2657 49.6067 39.909C49.3801 38.7949 48.506 37.9542 47.2089 37.6024ZM46.1094 41.9691L41.9905 45.2099C41.967 45.2283 41.9225 45.2471 41.8888 45.256L39.2939 44.5521L41.328 41.9229C42.4042 40.5314 44.9944 39.5816 46.557 40.0056C46.6881 40.0411 47.1199 40.1753 47.1667 40.4057C47.2184 40.6592 46.9793 41.2844 46.1094 41.9691Z" fill="black"/>
<path d="M32.6947 47.9558L31.5713 49.0724C30.6274 50.0104 30.237 51.1192 30.5005 52.1145C30.7368 53.0068 31.4669 53.68 32.5038 53.9612C32.8823 54.064 33.2904 54.1131 33.7128 54.1131C35.3317 54.1131 37.1621 53.392 38.3577 52.2036L39.4813 51.0868C39.9612 50.6097 40.1563 49.9795 40.0032 49.4008C39.8572 48.8488 39.4182 48.4238 38.8294 48.2642L35.1222 47.2585C34.3242 47.0424 33.3258 47.3287 32.6947 47.9558ZM36.6023 50.437C35.6722 51.3612 34.0156 51.7911 33.1558 51.5576C33.0278 51.5229 32.9512 51.4828 32.9137 51.4569C32.9313 51.3637 33.0245 51.1393 33.3269 50.8386L34.4442 49.7278C34.4643 49.7115 34.5098 49.6916 34.5453 49.6822L36.7581 50.2825L36.6023 50.437Z" fill="black"/>
<path d="M46.828 47.3427L45.7045 48.4595C44.7607 49.3975 44.3703 50.5063 44.6338 51.5014C44.8699 52.3937 45.6002 53.0669 46.6371 53.3481C47.0156 53.4509 47.4235 53.5 47.8459 53.5C49.4647 53.5 51.2952 52.7787 52.491 51.5905L53.6146 50.4737C54.0946 49.9966 54.2896 49.3664 54.1365 48.7879C53.9905 48.2359 53.5517 47.811 52.9627 47.6512L49.2557 46.6456C48.4575 46.4289 47.4591 46.7157 46.828 47.3427ZM50.8913 49.6694L50.7356 49.8241C49.8055 50.7483 48.1494 51.1782 47.2889 50.9449C47.1609 50.9102 47.0844 50.8699 47.0469 50.844C47.0645 50.7508 47.1576 50.5264 47.4599 50.2257L48.5772 49.1149C48.5973 49.0986 48.6428 49.0787 48.6781 49.0693L50.8913 49.6694Z" fill="black"/>
<path d="M73.0758 39.6301C74.2762 40.3196 75.6278 40.6805 77.0309 40.6805C81.425 40.6805 85 37.1057 85 32.7116C85 30.6644 84.205 28.7071 82.821 27.24C84.205 25.7731 85 23.8158 85 21.7686C85 17.307 81.313 13.686 76.8276 13.8022C76.5271 12.6587 75.9737 11.596 75.1956 10.6798C74.7504 10.1555 73.9646 10.0916 73.4407 10.5369C72.9166 10.9819 72.8525 11.7677 73.2977 12.2918C74.0202 13.1425 74.4607 14.1762 74.5714 15.2814C74.6061 15.6276 74.7839 15.9433 75.062 16.1523C75.3399 16.3613 75.6923 16.4445 76.0348 16.3819C76.3683 16.3208 76.7034 16.2898 77.0308 16.2898C80.0517 16.2898 82.5096 18.7477 82.5096 21.7686C82.5096 23.5319 81.6508 25.1985 80.2124 26.2272C79.8856 26.4609 79.6916 26.8381 79.6916 27.24C79.6916 27.6418 79.8856 28.019 80.2124 28.2529C81.651 29.2817 82.5096 30.9485 82.5096 32.7116C82.5096 35.7325 80.0517 38.1902 77.0308 38.1902C75.8643 38.1902 74.7502 37.8275 73.8089 37.1415C73.3718 36.8229 72.7793 36.8229 72.3421 37.1415C71.743 37.5781 71.0734 37.8824 70.3654 38.047V34.3013L75.2084 29.4583C75.6947 28.9721 75.6947 28.1837 75.2084 27.6976C74.7221 27.2113 73.9337 27.2113 73.4476 27.6976L70.3654 30.7798V25.6466L73.857 22.155C74.3433 21.6687 74.3433 20.8803 73.857 20.3942C73.3708 19.9079 72.5824 19.9079 72.0963 20.3942L70.3654 22.1251V18.0774C70.3654 17.3898 69.8079 16.8323 69.1203 16.8323C68.4326 16.8323 67.8752 17.3898 67.8752 18.0774V26.278L64.7931 23.1957C64.307 22.7095 63.5186 22.7095 63.0323 23.1957C62.5461 23.682 62.5461 24.4704 63.0323 24.9565L67.8753 29.7995V38.0471C67.1673 37.8826 66.4977 37.5783 65.8986 37.1417C65.4615 36.8231 64.8688 36.8231 64.4318 37.1417C63.4905 37.8277 62.3766 38.1904 61.21 38.1904C58.189 38.1904 55.7311 35.7327 55.7311 32.7117C55.7311 30.9486 56.5899 29.2818 58.0283 28.253C58.3552 28.0193 58.5491 27.6421 58.5491 27.2402C58.5491 26.8383 58.3552 26.4612 58.0283 26.2273C56.5897 25.1987 55.7311 23.5319 55.7311 21.7688C55.7311 18.7478 58.189 16.29 61.21 16.29C61.5373 16.29 61.8725 16.321 62.2061 16.3821C62.5479 16.445 62.901 16.3617 63.1789 16.1525C63.4568 15.9435 63.6348 15.6276 63.6695 15.2814C63.9434 12.5483 66.2238 10.4329 68.974 10.3609C69.6615 10.3428 70.2042 9.77102 70.1861 9.08355C70.168 8.39608 69.5926 7.8577 68.9088 7.87147C65.3316 7.96527 62.3005 10.4367 61.4138 13.8024C61.3458 13.8006 61.2777 13.7997 61.21 13.7997C56.8159 13.7997 53.2409 17.3747 53.2409 21.7688C53.2409 23.8159 54.0359 25.7733 55.4198 27.2402C54.2627 28.467 53.5193 30.0369 53.3061 31.7153H46.6182V31.1412C46.6182 29.6149 45.9908 28.1151 44.8968 27.0264C43.8245 25.9594 42.4225 25.3727 40.9458 25.3727C40.9368 25.3727 40.9277 25.3727 40.9185 25.3727C40.2707 25.3758 39.641 25.4862 39.0469 25.6976C38.1867 23.6405 36.1474 22.2013 33.8112 22.2013C33.276 22.2013 32.7489 22.276 32.2429 22.4214C31.4276 20.2763 29.3512 18.7658 26.9402 18.7658C25.7386 18.7658 24.5803 19.1489 23.6224 19.8409C21.1169 17.6797 17.8586 16.3682 14.2978 16.3682C11.8389 16.3682 9.4101 17.0063 7.27381 18.2136C6.67516 18.5519 6.46415 19.3114 6.80249 19.9103C7.14066 20.5087 7.90035 20.7198 8.49917 20.3816C10.2623 19.3852 12.2674 18.8584 14.2978 18.8584C20.8086 18.8584 26.1055 24.1553 26.1055 30.6661C26.1055 36.7564 21.4705 41.7835 15.5429 42.4075V37.8735L19.5585 33.8579C20.0447 33.3716 20.0447 32.5832 19.5585 32.0971C19.0722 31.6109 18.2838 31.6109 17.7977 32.0971L15.5429 34.352V26.3708C15.5429 25.6831 14.9854 25.1256 14.2978 25.1256C13.6101 25.1256 13.0526 25.6831 13.0526 26.3708V30.5653L10.7978 28.3105C10.3116 27.8242 9.52315 27.8242 9.03706 28.3105C8.5508 28.7967 8.5508 29.5852 9.03706 30.0712L13.0526 34.0868V42.4075C7.12523 41.7835 2.49023 36.7564 2.49023 30.6661C2.49023 28.2419 3.22187 25.9109 4.6061 23.925C4.99939 23.3609 4.86077 22.5848 4.29665 22.1916C3.73253 21.7984 2.95641 21.937 2.56328 22.5011C0.886357 24.9068 0 27.7303 0 30.6661C0 38.1301 5.75012 44.2729 13.0528 44.9064V50.502H1.24512C0.55748 50.502 0 51.0594 0 51.7471C0 52.4347 0.55748 52.9922 1.24512 52.9922H21.5769C22.0955 52.9922 22.3052 53.3634 22.3713 53.5229C22.4373 53.6825 22.5516 54.0934 22.1848 54.4601L1.64189 75.0032C1.15563 75.4895 1.15563 76.2779 1.64189 76.764C1.88494 77.007 2.20369 77.1287 2.52228 77.1287C2.84086 77.1287 3.15961 77.0072 3.40266 76.764L23.9458 56.2209C24.9221 55.2445 25.2003 53.8455 24.6721 52.5698C24.1437 51.2942 22.9576 50.5018 21.5769 50.5018H15.543V44.9062C21.6509 44.3765 26.6722 39.9935 28.1518 34.2052H53.3835C53.6695 35.7066 54.3774 37.0595 55.3797 38.136C54.6203 38.6046 53.9692 39.1689 53.4917 39.7861L50.6982 43.3972C50.3296 43.8735 50.2186 44.4452 50.3934 44.966C50.5647 45.4767 50.9822 45.8562 51.5386 46.0069L55.4449 47.0664C55.6229 47.1149 55.8113 47.1383 56.0037 47.1383C56.5763 47.1383 57.1847 46.9308 57.6637 46.5538L61.7825 43.313C62.9339 42.407 63.6255 41.317 63.7681 40.261C64.2512 40.0971 64.7187 39.8864 65.1653 39.6301C66.0057 40.1129 66.9211 40.4305 67.8755 40.58V50.502H64.5324C62.5808 50.502 60.7722 51.3838 59.5706 52.9218L52.0749 62.5142C51.6516 63.0561 51.7476 63.8387 52.2894 64.262C52.5172 64.4398 52.7872 64.5261 53.0553 64.5261C53.4253 64.5261 53.7917 64.3618 54.0373 64.0477L61.5329 54.4553C62.2593 53.5256 63.3527 52.9924 64.5326 52.9924H83.7549C84.4425 52.9924 85 52.4349 85 51.7472C85 51.0596 84.4425 50.5021 83.7549 50.5021H70.3656V40.5802C71.32 40.4305 72.2354 40.1129 73.0758 39.6301ZM25.3938 21.6619C25.8622 21.4004 26.3927 21.256 26.9402 21.256C28.6274 21.256 30.0224 22.5741 30.1161 24.2569C30.1408 24.703 30.4029 25.1016 30.8024 25.3015C31.202 25.5012 31.6781 25.4715 32.0498 25.2238C32.5721 24.8756 33.181 24.6915 33.8111 24.6915C35.4719 24.6915 36.8651 25.9879 36.983 27.6428C37.0157 28.1016 37.2987 28.5052 37.7191 28.6922C38.1396 28.8789 38.6287 28.8187 38.9913 28.5358C39.5506 28.099 40.2211 27.8662 40.9305 27.8629H40.9451C41.7589 27.8629 42.5379 28.1923 43.1398 28.7916C43.7677 29.4163 44.1276 30.2726 44.1276 31.1412V31.7153H28.553C28.5783 31.3685 28.5957 31.0195 28.5957 30.6664C28.5957 27.2558 27.3939 24.1221 25.3938 21.6619ZM60.2426 41.356L56.1236 44.597C56.1002 44.6154 56.0558 44.6341 56.0221 44.6431L53.4271 43.9392L55.4612 41.31C55.918 40.7197 56.6867 40.1748 57.5744 39.7991C58.5887 40.3215 59.7286 40.6323 60.9362 40.6733C60.7695 40.8875 60.5427 41.1199 60.2426 41.356Z" fill="black"/>
</svg>
