<svg width="85" height="85" viewBox="0 0 85 85" fill="none" xmlns="http://www.w3.org/2000/svg">
<g clip-path="url(#clip0_47_84)">
<path d="M59.0137 39.8998C60.072 41.1093 61.6008 41.8032 63.2079 41.8033H75.9426C78.6361 41.8033 80.8197 39.6198 80.8197 36.9262C80.8197 34.2327 78.6361 32.0492 75.9426 32.0492H64.7519L60.4587 26.8935L60.8084 26.0727C61.5648 24.3167 61.7119 22.3581 61.2265 20.5087C65.0329 19.4065 67.7966 16.1143 68.2229 12.1745C68.5247 12.0142 68.7944 11.7998 69.0186 11.5419C69.5388 10.9332 69.7646 10.1264 69.6359 9.33608C68.6919 3.93789 64.0047 -0.000823975 58.5246 -0.000823975C53.0445 -0.000823975 48.3572 3.93789 47.4133 9.33608C47.2854 10.1255 47.5111 10.9311 48.0306 11.5391C48.2547 11.797 48.5245 12.0114 48.8262 12.1717C48.923 13.0814 49.1481 13.9728 49.4951 14.8193C49.1473 14.9697 48.8098 15.1428 48.4848 15.3376H35.7069C35.6944 15.3376 35.6847 15.3376 35.6721 15.3376C35.6596 15.3376 35.6498 15.3376 35.6387 15.3376H32.3836C30.7764 15.3356 29.2465 16.0274 28.1865 17.2355L20.7219 25.7787C19.8667 26.7486 19.433 28.0192 19.5166 29.3096C19.6003 30.6 20.1945 31.804 21.1678 32.6553C23.1862 34.4207 26.2504 34.2292 28.0333 32.2262L34.5448 25.0987H36.4956H36.5096H36.5542L42.5362 25.082L33.1639 46.8197L28.1197 58.5246H13.9344C13.2523 58.527 12.5951 58.7816 12.0895 59.2394C10.4541 58.1081 8.24923 58.2802 6.80915 59.6515C5.36908 61.0228 5.08941 63.2166 6.13941 64.9053C7.18941 66.594 9.28065 67.3137 11.1475 66.6289V69.9285C10.7013 69.7635 10.2299 69.6768 9.75408 69.6721C7.44535 69.6721 5.57375 71.5437 5.57375 73.8525C5.57375 76.1612 7.44535 78.0328 9.75408 78.0328C10.4988 78.0288 11.2287 77.8237 11.8665 77.4392C12.8612 78.9669 14.6992 79.7172 16.4789 79.322C18.2585 78.9268 19.6062 77.469 19.8607 75.6639L20.7163 69.6721H23.6885C24.6797 69.6692 25.5942 69.1381 26.088 68.2787H31.2131C33.9681 68.2721 36.4629 66.6499 37.5867 64.1346L41.3156 55.7377H45.9836C46.7532 55.7377 47.377 56.3616 47.377 57.1312V75.2459C47.3794 75.928 47.634 76.5852 48.0919 77.0908C46.958 78.7258 47.1285 80.9323 48.4999 82.3738C49.8714 83.8153 52.0667 84.0953 53.756 83.0442C55.4454 81.9931 56.1642 79.9 55.4771 78.0328H58.7768C58.6132 78.4793 58.5278 78.9507 58.5246 79.4262C58.5246 81.735 60.3962 83.6066 62.7049 83.6066C65.0136 83.6066 66.8852 81.735 66.8852 79.4262C66.8812 78.6815 66.6761 77.9516 66.2916 77.3138C67.8197 76.3197 68.5705 74.4816 68.1752 72.7019C67.7799 70.9222 66.3217 69.5747 64.5164 69.321L58.5246 68.464V65.4918C58.5216 64.5006 57.9905 63.5862 57.1311 63.0923V52.9508C57.1535 49.8639 55.1104 47.1426 52.1398 46.3027L56.2449 36.7353L59.0137 39.8998ZM75.9426 34.8361C77.097 34.8361 78.0328 35.7719 78.0328 36.9262C78.0328 38.0806 77.097 39.0164 75.9426 39.0164H63.2079C62.4068 39.0143 61.6453 38.6676 61.1178 38.0647L59.741 36.4901L62.3231 33.4803L62.6185 33.8342C63.1465 34.4672 63.9276 34.834 64.7519 34.8361H75.9426ZM58.5246 18.1148C55.215 18.1106 52.3634 15.7827 51.6967 12.541H65.3524C64.6858 15.7827 61.8341 18.1106 58.5246 18.1148ZM58.5246 2.7869C62.6394 2.73899 66.1758 5.69583 66.8574 9.75411H50.1918H50.1765C50.8778 5.7009 54.4113 2.75192 58.5246 2.7869ZM34.5434 22.309C33.7659 22.3112 33.0243 22.6368 32.4965 23.2078L25.957 30.3645C25.1783 31.2004 23.8828 31.2841 23.0029 30.5554C22.5861 30.1917 22.3318 29.6766 22.2964 29.1245C22.2611 28.5724 22.4477 28.0291 22.8148 27.6153L30.2823 19.0748C30.8134 18.4711 31.5794 18.1262 32.3836 18.1287H34.4347L34.9378 22.309H34.5434ZM37.7483 22.309L37.2467 18.1287H45.6617C45.4074 18.5249 45.1865 18.9416 45.0012 19.3744L43.7471 22.3007L37.7483 22.309ZM9.75408 64.0984C8.9845 64.0984 8.36063 63.4745 8.36063 62.7049C8.36063 61.9354 8.9845 61.3115 9.75408 61.3115C10.5237 61.3115 11.1475 61.9354 11.1475 62.7049C11.1475 63.4745 10.5237 64.0984 9.75408 64.0984ZM9.75408 75.2459C8.9845 75.2459 8.36063 74.622 8.36063 73.8525C8.36063 73.0829 8.9845 72.459 9.75408 72.459C10.5237 72.459 11.1475 73.0829 11.1475 73.8525C11.1475 74.622 10.5237 75.2459 9.75408 75.2459ZM20.7163 66.8853C19.3314 66.8905 18.1585 67.9076 17.9573 69.2778L17.1003 75.2696C16.98 76.0934 16.2451 76.6852 15.4146 76.6271C14.5841 76.569 13.9388 75.8806 13.9344 75.048V61.3115H23.6885V66.8853H20.7163ZM52.9508 79.4262C52.9508 80.1958 52.3269 80.8197 51.5574 80.8197C50.7878 80.8197 50.1639 80.1958 50.1639 79.4262C50.1639 78.6567 50.7878 78.0328 51.5574 78.0328C52.3269 78.0328 52.9508 78.6567 52.9508 79.4262ZM62.7049 80.8197C61.9353 80.8197 61.3115 80.1958 61.3115 79.4262C61.3115 78.6567 61.9353 78.0328 62.7049 78.0328C63.4745 78.0328 64.0983 78.6567 64.0983 79.4262C64.0983 80.1958 63.4745 80.8197 62.7049 80.8197ZM58.1302 71.2216L64.122 72.0786C64.9505 72.1944 65.5478 72.9319 65.4891 73.7663C65.4304 74.6008 64.7356 75.2473 63.8991 75.2459H50.1639V65.4918H55.7377V68.464C55.7431 69.8486 56.7603 71.021 58.1302 71.2216ZM54.3442 52.9508V62.7049H50.1639V57.1312C50.1639 54.8224 48.2923 52.9508 45.9836 52.9508H39.0164C38.2468 52.9508 37.6229 53.5747 37.6229 54.3443C37.6279 54.8478 37.9074 55.3084 38.3517 55.5454L35.0395 62.9989C34.3662 64.5109 32.8682 65.4868 31.2131 65.4918H26.4754V61.3115H28.1197C29.2292 61.3106 30.2337 60.6548 30.6808 59.6394L35.3614 48.7705H50.1639C51.2733 48.7683 52.3379 49.208 53.1223 49.9924C53.9068 50.7769 54.3465 51.8415 54.3442 52.9508ZM49.2456 45.9836H36.5653L45.9278 24.2529L45.9487 24.2041L47.5624 20.4627C48.1849 18.9684 49.4033 17.8021 50.9233 17.2453C52.7436 19.5223 55.4884 20.864 58.4033 20.9017C58.7819 22.0525 58.7849 23.2939 58.4117 24.4466L58.2027 24.1957C57.7102 23.6039 56.8311 23.5235 56.2393 24.016C55.6475 24.5085 55.567 25.3875 56.0596 25.9794L60.5074 31.3148L57.8808 34.3804L52.6066 28.3524C52.0995 27.7729 51.2186 27.7143 50.6391 28.2214C50.0596 28.7286 50.0009 29.6095 50.5081 30.1889L54.2049 34.4097L49.2456 45.9836Z" fill="black"/>
</g>
<defs>
<clipPath id="clip0_47_84">
<rect width="85" height="85" fill="white"/>
</clipPath>
</defs>
</svg>
