<svg width="85" height="85" viewBox="0 0 85 85" fill="none" xmlns="http://www.w3.org/2000/svg">
<path d="M73.5377 34.9015C73.409 34.9015 73.2802 34.9015 73.0226 34.7727C72.3787 34.5152 71.9923 33.7424 72.2499 33.0985L75.7271 23.8258C76.1135 22.5379 77.4014 21.6364 78.9468 21.6364C80.1059 21.6364 81.0074 22.1515 81.7802 23.053C82.4241 23.9546 82.6817 25.1136 82.4241 26.2727L79.9771 34C79.7196 34.6439 79.0756 35.0303 78.3029 34.9015C77.659 34.6439 77.2726 34 77.4014 33.2273L79.8484 25.5C79.9771 25.2424 79.8484 24.8561 79.5908 24.5985C79.462 24.4697 79.2044 24.2121 78.8181 24.2121C78.4317 24.2121 78.0453 24.3409 78.0453 24.7273L74.6968 34.1288C74.5681 34.6439 74.0529 34.9015 73.5377 34.9015Z" fill="black"/>
<path d="M82.4243 51.1288H41.9849C41.2122 51.1288 40.697 50.6136 40.697 49.8409C40.697 49.0682 41.2122 48.553 41.9849 48.553H81.1364V44.8182H41.9849C41.2122 44.8182 40.697 44.303 40.697 43.5303C40.697 42.7576 41.2122 42.2424 41.9849 42.2424H82.4243C83.197 42.2424 83.7122 42.7576 83.7122 43.5303V49.8409C83.7122 50.6136 83.197 51.1288 82.4243 51.1288Z" fill="black"/>
<path d="M18.6742 51.1288H2.57572C1.80299 51.1288 1.28784 50.6136 1.28784 49.8409V43.5303C1.28784 42.7576 1.80299 42.2424 2.57572 42.2424H19.0606C19.8333 42.2424 20.3484 42.7576 20.3484 43.5303C20.3484 44.303 19.8333 44.8182 19.0606 44.8182H3.8636V48.553H18.6742C19.4469 48.553 19.9621 49.0682 19.9621 49.8409C19.9621 50.6136 19.4469 51.1288 18.6742 51.1288Z" fill="black"/>
<path d="M19.0606 57.3106C18.2879 57.3106 17.7727 56.7955 17.7727 56.0227V37.9924C17.7727 37.2197 17.2576 36.7045 16.4849 36.7045C15.7121 36.7045 15.197 37.2197 15.197 37.9924V43.5303C15.197 44.303 14.6818 44.8182 13.9091 44.8182H9.53031C8.75758 44.8182 8.24243 44.303 8.24243 43.5303V37.9924C8.24243 33.4848 11.9773 29.75 16.4849 29.75C20.9924 29.75 24.7273 33.4848 24.7273 37.9924V55.6364C24.7273 56.4091 24.2121 56.9242 23.4394 56.9242C22.6667 56.9242 22.1515 56.4091 22.1515 55.6364V37.9924C22.1515 34.7727 19.7046 32.3258 16.4849 32.3258C13.2652 32.3258 10.8182 34.7727 10.8182 37.9924V42.2424H12.6212V37.9924C12.6212 35.803 14.2955 34.1288 16.4849 34.1288C18.6742 34.1288 20.3485 35.803 20.3485 37.9924V56.0227C20.3485 56.7955 19.8333 57.3106 19.0606 57.3106Z" fill="black"/>
<path d="M36.962 58.4697C36.1893 58.4697 35.6741 57.9545 35.6741 57.1818V37.9924C35.6741 37.2197 35.159 36.7045 34.3862 36.7045C33.6135 36.7045 33.0983 37.2197 33.0983 37.9924V40.5682C33.0983 41.3409 32.5832 41.8561 31.8105 41.8561H27.4317C26.659 41.8561 26.1438 41.3409 26.1438 40.5682V37.9924C26.1438 33.4848 29.8786 29.75 34.3862 29.75C38.8938 29.75 42.6286 33.4848 42.6286 37.9924V54.7348C42.6286 55.5076 42.1135 56.0227 41.3408 56.0227C40.568 56.0227 40.0529 55.5076 40.0529 54.7348V37.9924C40.0529 34.7727 37.6059 32.3258 34.3862 32.3258C31.1665 32.3258 28.7196 34.7727 28.7196 37.9924V39.2803H30.5226V37.9924C30.5226 35.803 32.1968 34.1288 34.3862 34.1288C36.5756 34.1288 38.2499 35.803 38.2499 37.9924V57.1818C38.2499 57.9545 37.7347 58.4697 36.962 58.4697Z" fill="black"/>
<path d="M36.962 41.9848H23.4392C22.6665 41.9848 22.1514 41.4697 22.1514 40.697C22.1514 39.9242 22.6665 39.4091 23.4392 39.4091H36.962C37.7347 39.4091 38.2499 39.9242 38.2499 40.697C38.2499 41.4697 37.7347 41.9848 36.962 41.9848Z" fill="black"/>
<path d="M36.7044 47.3939H23.4392C22.6665 47.3939 22.1514 46.8788 22.1514 46.1061C22.1514 45.3333 22.6665 44.8182 23.4392 44.8182H36.7044C37.4771 44.8182 37.9923 45.3333 37.9923 46.1061C37.9923 46.8788 37.4771 47.3939 36.7044 47.3939Z" fill="black"/>
<path d="M36.7044 52.9318H23.4392C22.6665 52.9318 22.1514 52.4167 22.1514 51.644C22.1514 50.8712 22.6665 50.3561 23.4392 50.3561H36.7044C37.4771 50.3561 37.9923 50.8712 37.9923 51.644C37.9923 52.4167 37.4771 52.9318 36.7044 52.9318Z" fill="black"/>
<path d="M72.25 60.1439C69.4166 60.1439 67.8712 59.2424 66.5833 58.3409C65.4242 57.5682 64.3939 56.9242 62.2045 56.9242C60.1439 56.9242 59.2424 57.5682 58.0833 58.3409C56.7954 59.2424 55.25 60.1439 52.2878 60.1439C49.4545 60.1439 47.9091 59.2424 46.6212 58.3409C45.4621 57.5682 44.4318 56.9242 42.2424 56.9242C40.1818 56.9242 39.2803 57.5682 38.1212 58.3409C36.8333 59.2424 35.2878 60.1439 32.3257 60.1439C29.4924 60.1439 27.9469 59.2424 26.6591 58.3409C25.5 57.5682 24.4697 56.9242 22.4091 56.9242C20.3484 56.9242 19.3181 57.5682 18.1591 58.3409C16.8712 59.2424 15.3257 60.1439 12.4924 60.1439C9.65905 60.1439 8.24239 59.2424 6.95451 58.3409C5.79542 57.5682 4.76511 56.9242 2.57572 56.9242C1.80299 56.9242 1.28784 56.4091 1.28784 55.6364C1.28784 54.8636 1.80299 54.3485 2.57572 54.3485C5.53784 54.3485 6.95451 55.3788 8.37117 56.1515C9.53027 56.9242 10.5606 57.5682 12.4924 57.5682C14.553 57.5682 15.5833 56.9242 16.7424 56.1515C18.0303 55.25 19.5757 54.3485 22.4091 54.3485C25.2424 54.3485 26.7878 55.25 28.0757 56.1515C29.2348 56.9242 30.2651 57.5682 32.3257 57.5682C34.5151 57.5682 35.5454 56.9242 36.7045 56.1515C37.9924 55.25 39.5378 54.3485 42.2424 54.3485C45.0757 54.3485 46.6212 55.25 47.9091 56.1515C49.0681 56.9242 50.0984 57.5682 52.2878 57.5682C54.4772 57.5682 55.5075 56.9242 56.6666 56.1515C57.9545 55.25 59.5 54.3485 62.2045 54.3485C65.0378 54.3485 66.5833 55.25 67.8712 56.1515C69.0303 56.9242 70.0606 57.5682 72.25 57.5682C74.4394 57.5682 75.3409 56.9242 76.6287 56.1515C77.9166 55.25 79.4621 54.3485 82.2954 54.3485C83.0681 54.3485 83.5833 54.8636 83.5833 55.6364C83.5833 56.4091 83.0681 56.9242 82.2954 56.9242C80.106 56.9242 79.2045 57.5682 77.9166 58.3409C76.6287 59.2424 75.0833 60.1439 72.25 60.1439Z" fill="black"/>
<path d="M72.25 68C69.4166 68 67.8712 67.0985 66.5833 66.197C65.4242 65.4243 64.3939 64.7803 62.2045 64.7803C60.1439 64.7803 59.2424 65.4243 58.0833 66.197C56.7954 67.0985 55.25 68 52.2878 68C49.4545 68 47.9091 67.0985 46.6212 66.197C45.4621 65.4243 44.4318 64.7803 42.2424 64.7803C40.1818 64.7803 39.2803 65.4243 38.1212 66.197C36.8333 67.0985 35.2878 68 32.3257 68C29.4924 68 27.9469 67.0985 26.6591 66.197C25.5 65.4243 24.4697 64.7803 22.4091 64.7803C20.3484 64.7803 19.3181 65.4243 18.1591 66.197C16.8712 67.0985 15.3257 68 12.4924 68C9.65905 68 8.24239 67.0985 6.95451 66.197C5.79542 65.4243 4.76511 64.7803 2.57572 64.7803C1.80299 64.7803 1.28784 64.2652 1.28784 63.4924C1.28784 62.7197 1.80299 62.2046 2.57572 62.2046C5.53784 62.2046 6.95451 63.2349 8.37117 64.0076C9.53027 64.7803 10.5606 65.4243 12.4924 65.4243C14.553 65.4243 15.5833 64.7803 16.7424 64.0076C18.0303 63.1061 19.5757 62.2046 22.4091 62.2046C25.2424 62.2046 26.7878 63.1061 28.0757 64.0076C29.2348 64.7803 30.2651 65.4243 32.3257 65.4243C34.5151 65.4243 35.5454 64.7803 36.7045 64.0076C37.9924 63.1061 39.5378 62.2046 42.2424 62.2046C45.0757 62.2046 46.6212 63.1061 47.9091 64.0076C49.0681 64.7803 50.0984 65.4243 52.2878 65.4243C54.4772 65.4243 55.5075 64.7803 56.6666 64.0076C57.9545 63.1061 59.5 62.2046 62.2045 62.2046C65.0378 62.2046 66.5833 63.1061 67.8712 64.0076C69.0303 64.7803 70.0606 65.4243 72.25 65.4243C74.4394 65.4243 75.3409 64.7803 76.6287 64.0076C77.9166 63.1061 79.4621 62.2046 82.2954 62.2046C83.0681 62.2046 83.5833 62.7197 83.5833 63.4924C83.5833 64.2652 83.0681 64.7803 82.2954 64.7803C80.106 64.7803 79.2045 65.4243 77.9166 66.197C76.6287 67.0985 75.0833 68 72.25 68Z" fill="black"/>
<path d="M72.25 75.7273C69.4166 75.7273 67.8712 74.8258 66.5833 73.9243C65.4242 73.1515 64.3939 72.5076 62.2045 72.5076C60.1439 72.5076 59.2424 73.1515 58.0833 73.9243C56.7954 74.8258 55.25 75.7273 52.2878 75.7273C49.4545 75.7273 47.9091 74.8258 46.6212 73.9243C45.4621 73.1515 44.4318 72.5076 42.2424 72.5076C40.1818 72.5076 39.2803 73.1515 38.1212 73.9243C36.8333 74.8258 35.2878 75.7273 32.3257 75.7273C29.4924 75.7273 27.9469 74.8258 26.6591 73.9243C25.5 73.1515 24.4697 72.5076 22.4091 72.5076C20.3484 72.5076 19.3181 73.1515 18.1591 73.9243C16.8712 74.8258 15.3257 75.7273 12.4924 75.7273C9.65905 75.7273 8.24239 74.8258 6.95451 73.9243C5.79542 73.1515 4.76511 72.5076 2.57572 72.5076C1.80299 72.5076 1.28784 71.9924 1.28784 71.2197C1.28784 70.447 1.80299 69.9318 2.57572 69.9318C5.53784 69.9318 6.95451 70.9621 8.37117 71.7349C9.53027 72.5076 10.5606 73.1515 12.4924 73.1515C14.553 73.1515 15.5833 72.5076 16.7424 71.7349C18.0303 70.8333 19.5757 69.9318 22.4091 69.9318C25.2424 69.9318 26.7878 70.8333 28.0757 71.7349C29.2348 72.5076 30.2651 73.1515 32.3257 73.1515C34.5151 73.1515 35.5454 72.5076 36.7045 71.7349C37.9924 70.8333 39.5378 69.9318 42.2424 69.9318C45.0757 69.9318 46.6212 70.8333 47.9091 71.7349C49.0681 72.5076 50.0984 73.1515 52.2878 73.1515C54.4772 73.1515 55.5075 72.5076 56.6666 71.7349C57.9545 70.8333 59.5 69.9318 62.2045 69.9318C65.0378 69.9318 66.5833 70.8333 67.8712 71.7349C69.0303 72.5076 70.0606 73.1515 72.25 73.1515C74.4394 73.1515 75.3409 72.5076 76.6287 71.7349C77.9166 70.8333 79.4621 69.9318 82.2954 69.9318C83.0681 69.9318 83.5833 70.447 83.5833 71.2197C83.5833 71.9924 83.0681 72.5076 82.2954 72.5076C80.106 72.5076 79.2045 73.1515 77.9166 73.9243C76.6287 74.8258 75.0833 75.7273 72.25 75.7273Z" fill="black"/>
<path d="M72.25 83.5834C69.4166 83.5834 67.8712 82.6818 66.5833 81.7803C65.4242 81.0076 64.3939 80.3637 62.2045 80.3637C60.1439 80.3637 59.2424 81.0076 58.0833 81.7803C56.7954 82.6818 55.25 83.5834 52.2878 83.5834C49.4545 83.5834 47.9091 82.6818 46.6212 81.7803C45.4621 81.0076 44.4318 80.3637 42.2424 80.3637C40.1818 80.3637 39.2803 81.0076 38.1212 81.7803C36.8333 82.6818 35.2878 83.5834 32.3257 83.5834C29.4924 83.5834 27.9469 82.6818 26.6591 81.7803C25.5 81.0076 24.4697 80.3637 22.4091 80.3637C20.3484 80.3637 19.3181 81.0076 18.1591 81.7803C16.8712 82.6818 15.3257 83.5834 12.4924 83.5834C9.65905 83.5834 8.24239 82.6818 6.95451 81.7803C5.79542 81.0076 4.76511 80.3637 2.57572 80.3637C1.80299 80.3637 1.28784 79.8485 1.28784 79.0758C1.28784 78.3031 1.80299 77.7879 2.57572 77.7879C5.53784 77.7879 6.95451 78.8182 8.37117 79.5909C9.53027 80.3637 10.5606 81.0076 12.4924 81.0076C14.553 81.0076 15.5833 80.3637 16.7424 79.5909C18.0303 78.6894 19.5757 77.7879 22.4091 77.7879C25.2424 77.7879 26.7878 78.6894 28.0757 79.5909C29.2348 80.3637 30.2651 81.0076 32.3257 81.0076C34.5151 81.0076 35.5454 80.3637 36.7045 79.5909C37.9924 78.6894 39.5378 77.7879 42.2424 77.7879C45.0757 77.7879 46.6212 78.6894 47.9091 79.5909C49.0681 80.3637 50.0984 81.0076 52.2878 81.0076C54.4772 81.0076 55.5075 80.3637 56.6666 79.5909C57.9545 78.6894 59.5 77.7879 62.2045 77.7879C65.0378 77.7879 66.5833 78.6894 67.8712 79.5909C69.0303 80.3637 70.0606 81.0076 72.25 81.0076C74.4394 81.0076 75.3409 80.3637 76.6287 79.5909C77.9166 78.6894 79.4621 77.7879 82.2954 77.7879C83.0681 77.7879 83.5833 78.3031 83.5833 79.0758C83.5833 79.8485 83.0681 80.3637 82.2954 80.3637C80.106 80.3637 79.2045 81.0076 77.9166 81.7803C76.6287 82.6818 75.0833 83.5834 72.25 83.5834Z" fill="black"/>
<path d="M82.2953 19.7046C81.5226 19.7046 81.0074 19.1894 81.0074 18.4167C81.0074 17.2576 79.9771 16.3561 78.6892 16.3561C77.5302 16.3561 76.3711 17.3864 76.3711 18.4167C76.3711 19.1894 75.8559 19.7046 75.0832 19.7046C74.3105 19.7046 73.7953 19.1894 73.7953 18.4167C73.7953 15.8409 75.9847 13.7803 78.6892 13.7803C79.2044 13.7803 79.7196 13.9091 80.1059 14.0379C78.1741 9.27273 73.1514 5.53789 67.7423 5.53789C62.0756 5.53789 57.1817 9.14395 55.2499 14.0379C55.765 13.9091 56.2802 13.7803 56.7953 13.7803C59.4999 13.7803 61.6892 15.8409 61.6892 18.4167C61.6892 19.1894 61.1741 19.7046 60.4014 19.7046C59.6286 19.7046 59.1135 19.1894 59.1135 18.4167C59.1135 17.2576 58.0832 16.3561 56.7953 16.3561C55.6362 16.3561 54.4771 17.3864 54.4771 18.4167C54.4771 19.1894 53.962 19.7046 53.1892 19.7046C52.4165 19.7046 51.9014 19.1894 51.9014 18.4167C51.9014 10.0455 59.1135 2.96213 67.7423 2.96213C76.3711 2.96213 83.5832 10.0455 83.5832 18.4167C83.5832 19.1894 83.068 19.7046 82.2953 19.7046Z" fill="black"/>
<path d="M75.2121 19.7046C74.4394 19.7046 73.9243 19.1894 73.9243 18.4167C73.9243 11.2046 70.7046 5.53789 67.8712 5.53789C64.6515 5.53789 61.8182 11.7197 61.8182 18.4167C61.8182 19.1894 61.303 19.7046 60.5303 19.7046C59.7576 19.7046 59.2424 19.1894 59.2424 18.4167C59.2424 10.947 62.5909 2.96213 67.8712 2.96213C72.6364 2.96213 76.5 9.91667 76.5 18.4167C76.5 19.1894 75.9849 19.7046 75.2121 19.7046Z" fill="black"/>
<path d="M67.8711 44.4318C67.0984 44.4318 66.5833 43.9167 66.5833 43.1439V2.70455C66.5833 1.93182 67.0984 1.41667 67.8711 1.41667C68.6439 1.41667 69.159 1.93182 69.159 2.70455V43.1439C69.159 43.9167 68.6439 44.4318 67.8711 44.4318Z" fill="black"/>
<path d="M67.7424 19.7045C66.9697 19.7045 66.4546 19.1894 66.4546 18.4167C66.4546 17.2576 65.4242 16.3561 64.1364 16.3561C62.9773 16.3561 61.8182 17.3864 61.8182 18.4167C61.8182 19.1894 61.303 19.7045 60.5303 19.7045C59.7576 19.7045 59.2424 19.1894 59.2424 18.4167C59.2424 15.8409 61.4318 13.7803 64.1364 13.7803C66.8409 13.7803 69.0303 15.8409 69.0303 18.4167C69.0303 19.1894 68.5152 19.7045 67.7424 19.7045Z" fill="black"/>
<path d="M75.0833 19.7045C74.3105 19.7045 73.7954 19.1894 73.7954 18.4167C73.7954 17.2576 72.7651 16.3561 71.4772 16.3561C70.3181 16.3561 69.159 17.3864 69.159 18.4167C69.159 19.1894 68.6439 19.7045 67.8711 19.7045C67.0984 19.7045 66.5833 19.1894 66.5833 18.4167C66.5833 15.8409 68.7726 13.7803 71.4772 13.7803C74.1817 13.7803 76.3711 15.8409 76.3711 18.4167C76.3711 19.1894 75.856 19.7045 75.0833 19.7045Z" fill="black"/>
<path d="M57.9545 44.8182H53.5757C52.803 44.8182 52.2878 44.303 52.2878 43.5303V38.3788C52.2878 37.6061 52.803 37.0909 53.5757 37.0909H57.9545C58.7272 37.0909 59.2424 37.6061 59.2424 38.3788V43.5303C59.2424 44.303 58.7272 44.8182 57.9545 44.8182ZM54.8636 42.2424H56.6666V39.6667H54.8636V42.2424Z" fill="black"/>
<path d="M76.3713 44.8182H71.9925C71.2197 44.8182 70.7046 44.303 70.7046 43.5303V38.3788C70.7046 37.6061 71.2197 37.0909 71.9925 37.0909H76.3713C77.144 37.0909 77.6591 37.6061 77.6591 38.3788V43.5303C77.6591 44.303 77.144 44.8182 76.3713 44.8182ZM73.2803 42.2424H75.0834V39.6667H73.2803V42.2424Z" fill="black"/>
<path d="M79.2045 39.6667H51.9015C49.9697 39.6667 48.2954 37.9924 48.2954 36.0606V35.9318C48.2954 34 49.9697 32.3258 51.9015 32.3258H79.3333C81.2651 32.3258 82.9394 34 82.9394 35.9318V36.0606V36.1894C82.6818 38.1212 81.1363 39.6667 79.2045 39.6667ZM51.9015 34.9015C51.3863 34.9015 50.8712 35.4167 50.8712 35.9318V36.0606C50.8712 36.5758 51.3863 37.0909 51.9015 37.0909H79.2045C79.8484 37.0909 80.2348 36.5758 80.3636 35.9318C80.3636 35.4167 79.8484 34.9015 79.3333 34.9015H51.9015Z" fill="black"/>
</svg>
