<svg width="85" height="85" viewBox="0 0 85 85" fill="none" xmlns="http://www.w3.org/2000/svg">
<g clip-path="url(#clip0_77_15)">
<path d="M82.5098 82.5098H80.0195V26.169C80.0195 14.4855 70.5145 4.98047 58.831 4.98047H43.7451V7.4707H50.1151V9.96094C50.1151 12.2774 51.7047 14.2294 53.8505 14.7837V39.1179H56.3407V14.7837C58.4863 14.2294 60.0761 12.2774 60.0761 9.96094V7.5132C69.8079 8.15618 77.5293 16.2772 77.5293 26.169V85H85V36.1298H82.5098V82.5098ZM55.0958 12.4512C53.7227 12.4512 52.6055 11.3341 52.6055 9.96094V7.4707H57.586V9.96094C57.5858 11.3341 56.4689 12.4512 55.0958 12.4512Z" fill="black"/>
<path d="M77.314 7.68603C72.3576 2.72963 65.7935 0 58.831 0H26.169C19.2065 0 12.6424 2.72963 7.68603 7.68603C2.72963 12.6424 0 19.2065 0 26.169V72.5488H2.49023V26.169C2.49023 13.1124 13.1124 2.49023 26.169 2.49023H58.831C71.8876 2.49023 82.5098 13.1124 82.5098 26.169V33.6396H85V26.169C85 19.2065 82.2704 12.6426 77.314 7.68603Z" fill="black"/>
<path d="M66.1572 70.7441C66.1572 71.4307 65.5988 71.9892 64.9121 71.9892H20.0879C19.4014 71.9892 18.8428 71.4307 18.8428 70.7441V57.2968H22.5781V62.2773H41.2549V59.787H25.0684V54.8066H16.3525V70.7441C16.3525 72.8038 18.0281 74.4794 20.0879 74.4794H64.9121C66.9717 74.4794 68.6475 72.8038 68.6475 70.7441V67.2578H66.1572V70.7441Z" fill="black"/>
<path d="M59.9316 59.7869H43.7451V62.2771H62.4219V57.2968H66.1572V64.7673H68.6475V54.8066H59.9316V59.7869Z" fill="black"/>
<path d="M49.9707 64.7673H52.4609V67.2576H49.9707V64.7673Z" fill="black"/>
<path d="M54.9512 64.7673H62.4219V67.2576H54.9512V64.7673Z" fill="black"/>
<path d="M21.333 67.0087H23.8232V69.499H21.333V67.0087Z" fill="black"/>
<path d="M65.5347 52.3163V47.8339C65.5347 44.4011 62.742 41.6083 59.3091 41.6083H25.6909C22.258 41.6083 19.4653 44.4011 19.4653 47.8339V52.3163H21.9556V47.8339C21.9556 45.7742 23.6312 44.0986 25.6909 44.0986H59.3091C61.3688 44.0986 63.0444 45.7742 63.0444 47.8339V52.3163H65.5347Z" fill="black"/>
<path d="M24.9239 9.96094C24.9239 12.2774 26.5135 14.2294 28.6593 14.7837V39.1179H31.1495V14.7839C33.2953 14.2295 34.8849 12.2775 34.8849 9.9611V7.4707H41.2549V4.98047H26.169C14.4855 4.98047 4.98047 14.4855 4.98047 26.169V82.5098H2.49023V75.0391H0V85H7.4707V26.169C7.4707 16.2772 15.1921 8.15618 24.9239 7.5132V9.96094ZM32.3946 9.96094C32.3946 11.3341 31.2775 12.4512 29.9044 12.4512C28.5313 12.4512 27.4142 11.3341 27.4142 9.96094V7.4707H32.3946V9.96094Z" fill="black"/>
<path d="M53.8506 46.5886H56.3408V49.0789H53.8506V46.5886Z" fill="black"/>
<path d="M53.8506 51.5691H56.3408V54.0593H53.8506V51.5691Z" fill="black"/>
</g>
<defs>
<clipPath id="clip0_77_15">
<rect width="85" height="85" fill="white"/>
</clipPath>
</defs>
</svg>
