<svg width="85" height="85" viewBox="0 0 85 85" fill="none" xmlns="http://www.w3.org/2000/svg">
<path d="M70.2242 31.1525H65.8326C63.2118 31.1525 60.7751 32.4417 59.3301 34.595L53.2951 43.4492H48.3934C45.9284 43.4492 43.9167 45.4609 43.9167 47.9259C43.9167 49.1017 44.3701 50.2209 45.2201 51.0992C46.0701 51.9492 47.1892 52.4025 48.3934 52.4025H51.7367C51.2551 53.2384 51.0001 54.2017 51.0001 55.1934V71.5417C51.0001 74.2759 53.2242 76.5 55.9584 76.5C57.2901 76.5 58.5367 75.99 59.4717 75.055C60.4067 74.12 60.9167 72.8734 60.9167 71.5417V66.3284C61.3559 66.4842 61.8376 66.5834 62.3334 66.5834H63.0417V73.6667C63.0417 75.225 64.3167 76.5 65.8751 76.5H68.7084C70.2667 76.5 71.5417 75.225 71.5417 73.6667V66.5834H72.2501C74.5876 66.5834 76.5001 64.6709 76.5001 62.3334C76.5001 61.2142 76.0468 60.1942 75.3384 59.4292C76.0468 58.6359 76.5001 57.6017 76.5001 56.4542V37.4284C76.5001 33.9717 73.6809 31.1525 70.2242 31.1525ZM58.0834 71.5417C58.0834 72.1084 57.8568 72.6467 57.4601 73.0434C57.0634 73.44 56.5251 73.6667 55.9584 73.6667C54.7826 73.6667 53.8334 72.7175 53.8334 71.5417V55.1934C53.8334 54.4425 54.1168 53.7484 54.6268 53.2242C55.1651 52.7 55.8592 52.4167 56.6101 52.4167C56.7234 52.4167 56.8367 52.4167 56.9501 52.4025C57.5734 52.3742 58.1967 52.2325 58.7917 51.9775C58.8059 51.9634 58.8201 51.9492 58.8342 51.9492C58.8909 51.9209 58.9334 51.8784 58.9901 51.85C59.1176 51.765 59.2309 51.68 59.3301 51.5667C59.3443 51.5384 59.3726 51.5384 59.4009 51.51L66.4842 41.6784C66.9376 41.0409 66.7959 40.1625 66.1584 39.695C65.5209 39.2417 64.6426 39.3834 64.1751 40.0209L57.3751 49.4559C57.2334 49.4984 57.0917 49.555 56.9642 49.5692C56.8792 49.5692 56.7801 49.5692 56.6809 49.5834H48.3793C47.9401 49.5834 47.5151 49.4134 47.2317 49.1159C46.9201 48.7759 46.7501 48.365 46.7501 47.9259C46.7501 47.0192 47.4867 46.2825 48.3934 46.2825H54.0459C54.5134 46.2825 54.9526 46.0559 55.2217 45.6592L61.6818 36.1675C62.6026 34.7934 64.1609 33.9717 65.8326 33.9717H70.2242C72.1226 33.9717 73.6667 35.5159 73.6667 37.4142V56.44C73.6667 57.3325 72.9301 58.0692 72.0376 58.0692H62.3334H59.5001C58.7209 58.0692 58.0834 58.7067 58.0834 59.4859V71.5417ZM68.7084 73.6667H65.8751V66.5834H68.7084V73.6667ZM72.2501 63.75H70.1251H64.4584H62.3334C61.5542 63.75 60.9167 63.1125 60.9167 62.3334C60.9167 61.5542 61.5542 60.9167 62.3334 60.9167H72.0376H72.2501C73.0292 60.9167 73.6667 61.5542 73.6667 62.3334C73.6667 63.1125 73.0292 63.75 72.2501 63.75Z" fill="black"/>
<path d="M67.9999 30.4442C72.2924 30.4442 75.7916 26.945 75.7916 22.6525C75.7916 18.36 72.2924 14.8608 67.9999 14.8608C63.7074 14.8608 60.2083 18.36 60.2083 22.6525C60.2083 26.945 63.7074 30.4442 67.9999 30.4442ZM67.9999 17.6942C70.7341 17.6942 72.9583 19.9183 72.9583 22.6525C72.9583 25.3867 70.7341 27.6108 67.9999 27.6108C65.2658 27.6108 63.0416 25.3867 63.0416 22.6525C63.0416 19.9183 65.2658 17.6942 67.9999 17.6942Z" fill="black"/>
<path d="M16.9999 30.4442C21.2924 30.4442 24.7916 26.945 24.7916 22.6525C24.7916 18.36 21.2924 14.8608 16.9999 14.8608C12.7074 14.8608 9.20825 18.36 9.20825 22.6525C9.20825 26.945 12.7074 30.4442 16.9999 30.4442ZM16.9999 17.6942C19.7341 17.6942 21.9583 19.9183 21.9583 22.6525C21.9583 25.3867 19.7341 27.6108 16.9999 27.6108C14.2658 27.6108 12.0416 25.3867 12.0416 22.6525C12.0416 19.9183 14.2658 17.6942 16.9999 17.6942Z" fill="black"/>
<path d="M13.4583 66.5834V73.6667C13.4583 75.225 14.7333 76.5 16.2917 76.5H19.125C20.6833 76.5 21.9583 75.225 21.9583 73.6667V66.5834H22.6667C23.1625 66.5834 23.6442 66.4842 24.0833 66.3284V71.5417C24.0833 72.8734 24.5933 74.12 25.5283 75.055C26.4633 75.99 27.71 76.5 29.0417 76.5C31.7758 76.5 34 74.2759 34 71.5417V55.1934C34 54.2017 33.745 53.2525 33.2633 52.4025H36.6067C37.8108 52.4025 38.93 51.935 39.7942 51.085C40.63 50.235 41.0833 49.1017 41.0833 47.9259C41.0833 45.4609 39.0717 43.4492 36.6067 43.4492H31.705L25.67 34.595C24.225 32.4417 21.7883 31.1525 19.1675 31.1525H14.7758C11.3192 31.1525 8.5 33.9717 8.5 37.4284V56.4542C8.5 57.6017 8.95333 58.6359 9.66167 59.4292C8.95333 60.1942 8.5 61.2142 8.5 62.3334C8.5 64.6709 10.4125 66.5834 12.75 66.5834H13.4583ZM19.125 73.6667H16.2917V66.5834H19.125V73.6667ZM11.3333 37.4284C11.3333 35.53 12.8775 33.9859 14.7758 33.9859H19.1675C20.8392 33.9859 22.3975 34.8075 23.3183 36.1817L29.7783 45.6592C30.0475 46.0417 30.4867 46.2825 30.9542 46.2825H36.6067C37.5133 46.2825 38.25 47.0192 38.25 47.9259C38.25 48.365 38.08 48.7759 37.7683 49.0875C37.4567 49.3992 37.0458 49.5692 36.6067 49.5692H28.2058C28.1917 49.5692 28.1917 49.5692 28.1775 49.5692C27.9933 49.5692 27.8092 49.5267 27.625 49.47L20.8108 40.0067C20.3575 39.3692 19.465 39.2275 18.8275 39.6809C18.19 40.1342 18.0483 41.0267 18.5017 41.6642L25.585 51.4959C25.5992 51.5242 25.6275 51.5242 25.6558 51.5525C25.755 51.6659 25.8683 51.7509 25.9958 51.8359C26.0525 51.8642 26.095 51.9209 26.1517 51.935C26.1658 51.9492 26.18 51.9634 26.1942 51.9634C26.775 52.2042 27.3842 52.3459 28.0217 52.3742C28.1492 52.4167 28.2767 52.4167 28.39 52.4167C29.1408 52.4167 29.835 52.7 30.3592 53.21C30.8833 53.7484 31.1667 54.4425 31.1667 55.1934V71.5417C31.1667 72.7175 30.2175 73.6667 29.0417 73.6667C28.475 73.6667 27.9367 73.44 27.54 73.0434C27.1433 72.6467 26.9167 72.1084 26.9167 71.5417V59.5C26.9167 58.7209 26.2792 58.0834 25.5 58.0834H22.6667H12.9625C12.07 58.0834 11.3333 57.3467 11.3333 56.4542V37.4284ZM11.3333 62.3334C11.3333 61.5542 11.9708 60.9167 12.75 60.9167H12.9625H22.6667C23.4458 60.9167 24.0833 61.5542 24.0833 62.3334C24.0833 63.1125 23.4458 63.75 22.6667 63.75H20.5417H14.875H12.75C11.9708 63.75 11.3333 63.1125 11.3333 62.3334Z" fill="black"/>
<path d="M42.4999 28.3333C43.0383 28.3333 43.5341 28.305 44.0158 28.2625L52.1474 32.4275C52.3458 32.5267 52.5724 32.5833 52.7991 32.5833C53.0966 32.5833 53.3799 32.4983 53.6349 32.3142C54.0599 32.0025 54.2866 31.4642 54.2016 30.94L53.2241 24.9192C55.4483 23.12 56.6666 20.8392 56.6666 18.4167C56.6666 12.9483 50.3058 8.5 42.4999 8.5C34.6941 8.5 28.3333 12.9483 28.3333 18.4167C28.3333 23.885 34.6941 28.3333 42.4999 28.3333ZM42.4999 11.3333C48.6483 11.3333 53.8333 14.5775 53.8333 18.4167C53.8333 20.145 52.7849 21.8308 50.8724 23.1483C50.8158 23.1908 50.7733 23.2475 50.7308 23.3042C50.6599 23.375 50.5749 23.4458 50.5183 23.5308C50.4616 23.6017 50.4333 23.7008 50.4049 23.7858C50.3766 23.8708 50.3341 23.9417 50.3058 24.0267C50.2774 24.1258 50.2916 24.2392 50.2916 24.3525C50.2916 24.4233 50.2774 24.48 50.2774 24.5508L50.9433 28.645L44.9366 25.5708C44.8941 25.5425 44.8374 25.5567 44.7949 25.5283C44.7099 25.5 44.6249 25.4717 44.5399 25.4575C44.4408 25.4433 44.3416 25.4292 44.2424 25.4292C44.1999 25.4292 44.1574 25.415 44.1149 25.415C43.6474 25.4717 43.0949 25.5 42.4999 25.5C36.3516 25.5 31.1666 22.2558 31.1666 18.4167C31.1666 14.5775 36.3516 11.3333 42.4999 11.3333Z" fill="black"/>
<path d="M35.4167 19.8333H36.8333C37.6125 19.8333 38.25 19.1958 38.25 18.4167C38.25 17.6375 37.6125 17 36.8333 17H35.4167C34.6375 17 34 17.6375 34 18.4167C34 19.1958 34.6375 19.8333 35.4167 19.8333Z" fill="black"/>
<path d="M42.1742 19.8333H43.5909C44.3701 19.8333 45.0076 19.1958 45.0076 18.4167C45.0076 17.6375 44.3701 17 43.5909 17H42.1742C41.3951 17 40.7576 17.6375 40.7576 18.4167C40.7576 19.1958 41.3951 19.8333 42.1742 19.8333Z" fill="black"/>
<path d="M48.5492 19.8333H49.9659C50.7451 19.8333 51.3826 19.1958 51.3826 18.4167C51.3826 17.6375 50.7451 17 49.9659 17H48.5492C47.7701 17 47.1326 17.6375 47.1326 18.4167C47.1326 19.1958 47.7701 19.8333 48.5492 19.8333Z" fill="black"/>
</svg>
