<svg width="85" height="85" viewBox="0 0 85 85" fill="none" xmlns="http://www.w3.org/2000/svg">
<g clip-path="url(#clip0_15_152)">
<path d="M75.1759 36.1746C78.6272 35.9917 81.3885 32.5048 81.3885 28.2454C81.3885 24.3596 79.0903 21.1171 76.0676 20.4381V19.4245C76.3516 19.1521 76.6104 18.8499 76.8393 18.5121C76.9982 18.2773 77.0721 17.9946 77.0488 17.7112C76.6448 12.85 74.4379 8.34165 70.8329 5.01744C67.2084 1.67508 62.4913 -0.166016 57.5497 -0.166016H52.1477C41.3554 -0.166016 32.5753 8.58419 32.5753 19.3389V19.6126C32.5753 19.9991 32.7556 20.3642 33.063 20.6002C33.5014 20.9368 34.0066 21.2196 34.563 21.4401C34.6084 21.4582 34.6538 21.4718 34.6992 21.4887V30.5612C34.6992 36.1098 36.5526 40.7653 40.0584 44.0247C41.0797 44.9741 42.2334 45.788 43.4915 46.4585C42.9604 46.9825 42.474 47.5448 42.0356 48.142C40.4935 48.7802 38.823 49.1161 37.098 49.1161C36.7834 49.1161 36.4709 49.1025 36.1602 49.0791V45.1349C36.1602 43.8626 35.1207 42.8276 33.8431 42.8276H31.978C31.9605 40.8678 30.3516 39.2783 28.3756 39.2783H21.5145C19.5385 39.2783 17.9289 40.8678 17.9114 42.8276H16.047C14.7688 42.8276 13.7299 43.8626 13.7299 45.1349V62.5861H5.96931C4.69177 62.5861 3.65222 63.6211 3.65222 64.8934V82.5268C3.65222 83.7991 4.69177 84.8342 5.96931 84.8342H51.0686C51.1633 84.8342 51.256 84.8231 51.3455 84.8024C52.3442 84.6947 53.2482 84.2803 53.9635 83.6591C54.6781 84.279 55.5802 84.6934 56.5776 84.8017C56.6677 84.8231 56.7624 84.8335 56.859 84.8335H71.1818C74.4438 84.8335 77.0974 82.1993 77.0974 78.9607C77.0974 76.047 74.9483 73.6235 72.1416 73.167V70.7221C72.1416 70.0347 71.5845 69.477 70.8965 69.477C70.2084 69.477 69.6513 70.0347 69.6513 70.7221V73.0885H61.5834C60.9063 71.2604 59.1405 69.9861 57.0996 69.9861C55.8999 69.9861 54.8033 70.4284 53.9628 71.156C53.123 70.4284 52.0264 69.9861 50.8273 69.9861C48.7865 69.9861 47.0206 71.2604 46.3436 73.0885H46.0226V69.6417C46.9175 69.7565 47.8138 69.8149 48.7074 69.8149C56.564 69.8149 64.1423 65.4648 67.8317 57.9999C68.3757 56.8987 68.4568 55.6543 68.0586 54.496C67.6598 53.3339 66.8284 52.3981 65.7175 51.8612C63.4374 50.76 60.6709 51.7075 59.5503 53.974C58.4829 56.1335 56.8033 57.9013 54.6937 59.0861C54.0938 59.4227 53.8805 60.1821 54.217 60.7813C54.5543 61.3812 55.313 61.5945 55.9129 61.2579C58.4621 59.8261 60.4919 57.6892 61.7831 55.0771C62.3 54.0304 63.5794 53.5946 64.6339 54.1037C65.1423 54.3488 65.5217 54.7755 65.7033 55.3047C65.8836 55.83 65.8466 56.3955 65.5989 56.8968C61.9219 64.337 53.8675 68.2624 46.0226 67.1223V66.8538C46.6432 66.0354 47.0505 65.0465 47.1601 63.9583C47.1912 63.6529 47.1957 63.3474 47.1769 63.0446C48.0271 63.1379 48.8857 63.1587 49.7437 63.1003C50.4298 63.053 50.9473 62.4583 50.9006 61.7722C50.8533 61.0861 50.2593 60.5712 49.5725 60.6153C48.4876 60.6905 47.4007 60.6114 46.3423 60.3935C46.306 60.3345 46.269 60.2755 46.2308 60.2171L44.9591 56.8922C44.5765 55.8799 43.5933 55.2003 42.5116 55.2003C42.2996 55.2003 42.0901 55.2282 41.8845 55.2788C42.2042 52.1212 43.6647 49.4533 45.9565 47.5396C47.0745 47.9345 48.2509 48.2302 49.4713 48.4228C49.9934 50.7743 52.1081 52.5402 54.6308 52.5402C57.0944 52.5402 59.169 50.8567 59.7513 48.5876C61.6301 48.3943 63.4361 47.9138 65.119 47.1848C67.9665 49.3379 69.6507 52.5739 69.6507 56.4454V64.9122C69.6507 65.5996 70.2084 66.1574 70.8958 66.1574C71.5839 66.1574 72.1409 65.5996 72.1409 64.9122V56.4454C72.1409 52.2256 70.543 48.5973 67.5158 45.9287C71.0657 43.718 73.8283 40.3069 75.1759 36.1746ZM54.8117 74.7325C54.8117 73.4886 55.8383 72.4763 57.1003 72.4763C58.265 72.4763 59.2416 73.3363 59.3726 74.4757C59.4453 75.1047 59.977 75.5788 60.6093 75.5788H71.1818C73.0709 75.5788 74.6072 77.0963 74.6072 78.9613C74.6072 80.8264 73.0709 82.3439 71.1818 82.3439H57.0309C57.0017 82.34 56.9725 82.3368 56.9427 82.3348C55.7475 82.2551 54.8117 81.2674 54.8117 80.0878V74.7325ZM46.0233 75.5788H47.3183C47.9512 75.5788 48.483 75.1047 48.555 74.4757C48.686 73.3363 49.6633 72.4763 50.828 72.4763C51.5186 72.4763 52.138 72.7811 52.5582 73.2604C52.4051 73.7241 52.3215 74.2189 52.3215 74.7325V80.0878C52.3215 80.5988 52.4051 81.0923 52.5582 81.5553C52.171 81.997 51.6153 82.2927 50.9849 82.3348C50.9551 82.3368 50.9259 82.34 50.8967 82.3439H46.0233V75.5788ZM36.1602 51.5758C36.4715 51.5946 36.7841 51.6063 37.098 51.6063C38.1933 51.6063 39.2685 51.4889 40.3139 51.2678C39.7322 52.7535 39.3936 54.3715 39.3372 56.09C38.5992 56.1711 37.8522 56.2126 37.098 56.2126C36.7841 56.2126 36.4715 56.2035 36.1602 56.1886V51.5758ZM36.3619 70.4491C36.5072 70.4491 36.8204 70.6262 36.8937 70.75L38.4475 73.4167C38.5169 73.5373 38.5169 73.8823 38.4475 74.0036L36.8937 76.6695C36.8204 76.7934 36.5072 76.9711 36.3619 76.9711H33.2543C33.1084 76.9711 32.7952 76.7934 32.7219 76.6695L31.1681 74.0029C31.0987 73.8823 31.0987 73.5373 31.1681 73.4167L32.7219 70.75C32.7952 70.6262 33.1084 70.4485 33.2543 70.4485H36.3619V70.4491ZM21.5145 41.7686H28.3756C28.9781 41.7686 29.4696 42.2407 29.4872 42.8276H20.403C20.4205 42.2407 20.9114 41.7686 21.5145 41.7686ZM16.2201 45.3178H33.67V62.5861H16.2201V45.3178ZM23.5929 82.3439H6.14246V65.0763H23.5929V82.3439ZM43.533 82.3439H26.0832V65.0763H34.4826C34.4242 65.2508 34.382 65.433 34.3632 65.623L34.3282 65.9686C34.2523 66.7293 34.5254 67.4453 35.0169 67.9582H33.2543C32.2186 67.9582 31.0896 68.6054 30.5702 69.4965L29.017 72.1631C28.4943 73.0593 28.4943 74.3609 29.017 75.2571L30.5702 77.9237C31.0902 78.8148 32.2186 79.462 33.2543 79.462H36.3619C37.3976 79.462 38.5266 78.8148 39.0454 77.9231L40.5992 75.2571C41.1212 74.3609 41.1212 73.06 40.5992 72.1631L39.046 69.4965C38.9261 69.2922 38.7737 69.1009 38.5986 68.9265L40.7056 69.1385C40.9072 69.1586 41.1115 69.169 41.3132 69.169C42.0979 69.169 42.8476 69.0185 43.533 68.7449V82.3439ZM41.9974 59.5089C42.2542 59.1685 42.3184 58.7197 42.1679 58.3202L42.0441 57.994C42.0317 57.9616 42.033 57.9292 42.0473 57.8974C42.0616 57.8663 42.0856 57.8436 42.1186 57.8313L42.4669 57.6996C42.4824 57.6938 42.4974 57.6905 42.5123 57.6905C42.5207 57.6905 42.5998 57.6931 42.6322 57.7774L43.9578 61.2424C43.9941 61.339 44.0427 61.4298 44.1017 61.5141C44.5544 62.1574 44.7606 62.9376 44.6835 63.7093C44.5129 65.4025 43.0641 66.6794 41.3132 66.6794C41.1945 66.6794 41.0746 66.6729 40.9552 66.6612L36.8295 66.2462C36.8152 66.2449 36.8048 66.2319 36.8061 66.2183L36.8411 65.8733C36.8431 65.8545 36.8606 65.85 36.869 65.85H36.8697L39.8495 66.1496C40.5324 66.2203 41.1439 65.7203 41.2133 65.0361L41.2354 64.815C41.2691 64.4862 41.1699 64.1574 40.9611 63.9019C40.7522 63.6457 40.45 63.4836 40.1213 63.4505L36.4838 63.0841C36.4721 63.0828 36.4598 63.0679 36.4611 63.0562L36.4955 62.7112C36.4974 62.6924 36.5162 62.6898 36.524 62.6879L40.1615 63.0543C40.4903 63.0867 40.8184 62.9881 41.0746 62.7793C41.3301 62.5705 41.4922 62.2683 41.5253 61.9402L41.5473 61.7184C41.616 61.0342 41.1174 60.4233 40.4332 60.3546L37.4527 60.055C37.4404 60.0537 37.428 60.0388 37.4293 60.0264L37.4644 59.6814C37.4663 59.6626 37.4851 59.6607 37.4922 59.6587L40.8703 59.9986C40.8787 59.9992 40.8943 60.0005 40.9021 60.0018C41.3281 60.0368 41.7412 59.85 41.9974 59.5089ZM54.6314 50.0499C53.6016 50.0499 52.7022 49.4967 52.2184 48.6764C52.4402 48.6829 52.6619 48.6868 52.8857 48.6868H57.038C56.5529 49.5019 55.6567 50.0499 54.6314 50.0499ZM57.8798 46.1965H52.8857C43.3508 46.1965 37.1894 40.0598 37.1894 30.5612V21.848C38.4429 21.7377 39.6511 21.1807 40.7652 20.1794C40.9714 19.9945 41.1738 19.7955 41.3742 19.5808C41.4448 19.8175 41.5324 20.0445 41.6355 20.2598C42.1647 21.3622 43.1037 22.1378 44.3514 22.5016C46.378 23.0944 48.4253 22.2241 50.4596 19.9122C50.9687 21.1229 52.0076 22.0127 53.5342 22.4945C54.2041 22.7053 54.8681 22.8103 55.5244 22.8097C57.7034 22.8097 59.7896 21.6547 61.6456 19.3966C62.2753 18.6301 62.7967 17.8344 63.2046 17.1334C63.7305 17.8584 64.4316 18.6645 65.3207 19.37C65.8596 19.7968 66.643 19.7066 67.0703 19.1677C67.4977 18.6288 67.4069 17.8461 66.868 17.4187C65.119 16.0316 64.2727 14.0731 64.2662 14.0569C64.0723 13.5932 63.619 13.2917 63.1171 13.2917C63.1138 13.2917 63.1099 13.2917 63.1067 13.2917C62.6009 13.2962 62.1476 13.6068 61.9601 14.0763C61.9303 14.1516 58.9135 21.5795 54.2832 20.1191C53.1418 19.7591 52.0776 19.0451 52.8319 16.4758C53.0082 15.8746 52.7106 15.2359 52.136 14.9849C51.5627 14.7333 50.8909 14.9479 50.5686 15.4855C48.5472 18.859 46.5375 20.5471 45.0492 20.1119C44.4759 19.944 44.105 19.6489 43.8806 19.1826C43.439 18.2624 43.5927 16.7034 44.2911 15.0128C44.5486 14.3889 44.2626 13.6736 43.6459 13.3993C43.0304 13.1256 42.3067 13.3915 42.0162 14.0011C38.9222 20.4887 36.3321 19.4621 35.4806 19.1249C35.3366 19.0678 35.2004 19.0049 35.0707 18.9368C35.286 9.74047 42.8638 2.32422 52.1477 2.32422H57.5497C66.2072 2.32422 73.5715 8.92919 74.5216 17.4472C74.1753 17.8402 73.7486 18.123 73.2259 18.3078C72.7103 18.4907 72.2012 18.6223 71.711 18.6995C71.032 18.8065 70.5683 19.444 70.6753 20.1236C70.783 20.8026 71.4198 21.2669 72.0994 21.1593C72.5845 21.0821 73.0793 20.9666 73.5774 20.8136V21.5548C73.5774 21.8869 73.7097 22.2053 73.9451 22.4387C74.1785 22.6703 74.4937 22.8 74.8225 22.8C74.8478 22.8006 74.8724 22.7993 74.9029 22.798C77.1071 22.8077 78.8983 25.2474 78.8983 28.2454C78.8983 31.2486 77.1 33.6922 74.8899 33.6922C74.7479 33.6922 74.6026 33.6811 74.4457 33.6571C73.8167 33.5612 73.2181 33.9542 73.0547 34.5683C71.2376 41.4151 64.9977 46.1965 57.8798 46.1965Z" fill="black"/>
<path d="M61.704 25.8317C61.0159 25.8317 60.4589 26.3888 60.4589 27.0768V29.1189C60.4589 29.807 61.0159 30.3641 61.704 30.3641C62.3914 30.3641 62.9491 29.807 62.9491 29.1189V27.0768C62.9491 26.3888 62.3914 25.8317 61.704 25.8317Z" fill="black"/>
<path d="M43.3068 25.8317C42.6187 25.8317 42.0616 26.3888 42.0616 27.0768V29.1189C42.0616 29.807 42.6187 30.3641 43.3068 30.3641C43.9942 30.3641 44.5519 29.807 44.5519 29.1189V27.0768C44.5519 26.3888 43.9942 25.8317 43.3068 25.8317Z" fill="black"/>
<path d="M52.5044 32.1565H53.3118C53.9998 32.1565 54.5569 31.5988 54.5569 30.9114C54.5569 30.2233 53.9998 29.6663 53.3118 29.6663H52.9428V28.5113C52.9428 27.8232 52.385 27.2662 51.6976 27.2662C51.0096 27.2662 50.4525 27.8232 50.4525 28.5113V30.0813C50.4525 31.2253 51.3727 32.1565 52.5044 32.1565Z" fill="black"/>
<path d="M57.4154 34.1273H48.1568C46.8793 34.1273 45.8397 35.1623 45.8397 36.4347C45.8397 40.2362 48.9558 43.3289 52.7858 43.3289C56.6165 43.3289 59.7325 40.2362 59.7325 36.4347C59.7325 35.163 58.693 34.1273 57.4154 34.1273ZM52.7858 40.8393C50.3909 40.8393 48.4305 38.9619 48.3332 36.6175H57.2391C57.1411 38.9619 55.1814 40.8393 52.7858 40.8393Z" fill="black"/>
<path d="M29.7609 51.116L27.5787 50.8041L26.6059 48.8619C26.2901 48.2309 25.6539 47.8385 24.9451 47.8385C24.2363 47.8385 23.6001 48.2309 23.2843 48.8612L22.3116 50.8041L20.1268 51.1167C19.4258 51.2179 18.8525 51.6971 18.63 52.369C18.4089 53.0376 18.5957 53.7859 19.1041 54.2736L20.6728 55.7801L20.3038 57.9032C20.1825 58.5965 20.4757 59.3092 21.0444 59.7145C21.3622 59.9441 21.7383 60.0653 22.1313 60.0653C22.4309 60.0653 22.7292 59.9927 22.9886 59.8565L24.9451 58.8429L26.8952 59.8533C27.1598 59.9921 27.4581 60.0653 27.7583 60.0653C28.152 60.0653 28.5281 59.9441 28.8407 59.7184C29.4146 59.3085 29.7077 58.5958 29.5864 57.9032L29.2174 55.7801L30.7849 54.2742C31.2939 53.7859 31.4807 53.0376 31.2596 52.369C31.0391 51.6978 30.4652 51.2185 29.7609 51.116ZM27.0145 54.4435C26.7155 54.7301 26.5794 55.1465 26.6507 55.5544L26.912 57.0576L25.5178 56.3352C25.3388 56.2418 25.1416 56.1957 24.9451 56.1957C24.7486 56.1957 24.5521 56.2418 24.3725 56.3352L22.9789 57.0576L23.2402 55.5544C23.3109 55.1465 23.1747 54.7301 22.8758 54.4429L21.7843 53.3949L23.3096 53.177C23.7136 53.1186 24.0632 52.8664 24.246 52.5019L24.9451 51.1063L25.6442 52.5019C25.8271 52.867 26.1773 53.1193 26.5813 53.177L28.1059 53.3949L27.0145 54.4435Z" fill="black"/>
<path d="M13.6404 79.0191C13.9692 79.3407 14.405 79.5184 14.8674 79.5184C15.3291 79.5184 15.7649 79.3414 16.0943 79.0197L20.5508 74.6605C21.3148 73.9134 21.7356 72.9173 21.7356 71.8551C21.7356 70.7928 21.3148 69.7967 20.5508 69.0497C19.7934 68.3091 18.7888 67.9018 17.7221 67.9018C16.6553 67.9018 15.6501 68.3097 14.8933 69.0497L14.8674 69.075L14.8421 69.0497C14.0853 68.3097 13.0801 67.9018 12.0133 67.9018C10.9459 67.9018 9.94136 68.3091 9.18457 69.0497C8.42063 69.7967 7.99976 70.7928 7.99976 71.8551C7.99976 72.9173 8.42063 73.9134 9.18457 74.6611L13.6404 79.0191ZM10.9251 70.8298C11.2137 70.5471 11.6002 70.3914 12.0127 70.3914C12.4251 70.3914 12.8116 70.5471 13.1009 70.8298L13.9964 71.7066C14.4802 72.1793 15.2539 72.1793 15.7377 71.7066L16.6339 70.8305C16.9231 70.5477 17.309 70.3914 17.7221 70.3914C18.1345 70.3914 18.5204 70.5471 18.8096 70.8298C19.0904 71.1041 19.2447 71.4686 19.2447 71.8551C19.2454 72.2416 19.0904 72.606 18.8096 72.8804L14.8674 76.7357L10.9251 72.8804C10.6443 72.606 10.4893 72.2416 10.49 71.8551C10.49 71.4686 10.6443 71.1041 10.9251 70.8298Z" fill="black"/>
<path d="M74.7843 32.1461C74.9841 32.1461 75.187 32.0982 75.3751 31.9963C78.0346 30.5593 77.5995 27.5489 76.9983 26.1579C76.7253 25.5269 75.9925 25.2357 75.3608 25.5094C74.7298 25.7824 74.4393 26.5152 74.7123 27.1462C74.7467 27.2247 75.5307 29.082 74.1909 29.8057C73.5859 30.1325 73.3609 30.8881 73.6877 31.4931C73.9127 31.9094 74.3414 32.1461 74.7843 32.1461Z" fill="black"/>
</g>
<defs>
<clipPath id="clip0_15_152">
<rect width="85" height="85" fill="white"/>
</clipPath>
</defs>
</svg>
