<svg width="85" height="85" viewBox="0 0 85 85" fill="none" xmlns="http://www.w3.org/2000/svg">
<path d="M65.3504 18.1088C69.7315 18.1088 73.2959 14.5445 73.2959 10.1635C73.2959 5.78215 69.7315 2.21796 65.3504 2.21796C60.9692 2.21796 57.405 5.78231 57.405 10.1635C57.405 14.5445 60.9692 18.1088 65.3504 18.1088ZM65.3504 4.70802C68.3584 4.70802 70.8056 7.15526 70.8056 10.1633C70.8056 13.1713 68.3584 15.6184 65.3504 15.6184C62.3423 15.6184 59.8953 13.1713 59.8953 10.1633C59.8953 7.15526 62.3423 4.70802 65.3504 4.70802Z" fill="black"/>
<path d="M84.6477 67.0178L76.3838 55.7206H78.2593C78.9482 55.7206 79.57 55.339 79.8816 54.7247C80.1933 54.1105 80.1344 53.3833 79.7277 52.827L73.8801 44.8332H74.8857C75.5746 44.8332 76.1964 44.4515 76.508 43.8372C76.8197 43.223 76.7608 42.4958 76.3541 41.9395L69.5204 32.5975C69.1789 32.131 68.63 31.8527 68.052 31.8527C67.4741 31.8527 66.925 32.1312 66.5835 32.5978L61.2022 39.9543L49.4378 32.0865C49.6802 31.5315 49.6156 30.8952 49.2545 30.4018L42.9472 21.7794H43.9505C44.5956 21.7794 45.1778 21.4221 45.4697 20.8467C45.7617 20.2715 45.7064 19.5907 45.3254 19.0699L40.9477 13.0853H41.2564C41.9015 13.0853 42.4837 12.7281 42.7756 12.1527C43.0676 11.5774 43.0123 10.8966 42.6315 10.3758L37.1745 2.91589C36.855 2.47893 36.3408 2.21796 35.7993 2.21796C35.2579 2.21796 34.7437 2.47893 34.4242 2.91589L28.9674 10.3756C28.5864 10.8964 28.5311 11.5773 28.823 12.1525C29.115 12.7279 29.6972 13.0853 30.3423 13.0853H30.651L26.2733 19.0697C25.8923 19.5905 25.837 20.2713 26.1289 20.8466C26.4209 21.422 27.0031 21.7794 27.6482 21.7794H28.6515L27.6823 23.1044C27.2762 23.6594 27.3971 24.4383 27.952 24.8444C28.5074 25.2503 29.2861 25.1296 29.6921 24.5744L31.5763 21.9986C31.9572 21.4778 32.0123 20.7969 31.7204 20.2217C31.4284 19.6463 30.8464 19.289 30.2012 19.289H29.198L33.5758 13.3045C33.9567 12.7837 34.0119 12.1029 33.7199 11.5276C33.4279 10.9522 32.8457 10.5949 32.2007 10.5949H31.8921L35.7993 5.25372L39.7065 10.5949H39.3977C38.7525 10.5949 38.1703 10.9522 37.8785 11.5276C37.5864 12.1029 37.6417 12.7837 38.0227 13.3045L42.4004 19.289H41.3972C40.752 19.289 40.1698 19.6463 39.8779 20.2217C39.5859 20.7969 39.6412 21.4778 40.022 21.9986L46.3293 30.6209H25.2697L26.262 29.2644C26.6681 28.7094 26.5472 27.9305 25.9922 27.5244C25.4374 27.1186 24.6581 27.2392 24.2522 27.7943L22.3449 30.4016C21.964 30.9224 21.9087 31.6032 22.2008 32.1785C22.4928 32.7539 23.075 33.1111 23.72 33.1111H31.8944V40.318C31.8944 41.4624 32.8253 42.3932 33.9696 42.3932H37.6387C38.7831 42.3932 39.7139 41.4624 39.7139 40.318V34.0036L46.0773 43.2183C46.0881 43.2339 46.121 43.2814 46.0964 43.354C46.072 43.4267 46.017 43.4446 45.9989 43.4504L26.442 49.8442L22.7763 44.833H23.7819C24.4709 44.833 25.0926 44.4513 25.4042 43.8371C25.716 43.2228 25.657 42.4957 25.2503 41.9394L18.4166 32.5973C18.0751 32.1308 17.5263 31.8526 16.9484 31.8526C16.3703 31.8526 15.8214 32.131 15.4798 32.5977L8.64609 41.9395C8.23935 42.4958 8.18042 43.2228 8.49219 43.8372C8.80397 44.4515 9.4257 44.8332 10.1145 44.8332H11.1201L5.27232 52.827C4.86558 53.3833 4.80664 54.1103 5.11842 54.7247C5.4302 55.339 6.05193 55.7206 6.74073 55.7206H8.61621L0.352446 67.0177C-0.0544585 67.5738 -0.113394 68.3008 0.198383 68.9154C0.510161 69.53 1.13189 69.9115 1.82085 69.9115H12.3711V72.3828C12.3711 73.0706 12.9286 73.6279 13.6163 73.6279C14.3039 73.6279 14.8614 73.0706 14.8614 72.3828V69.9113H19.0448V80.2918H14.8615V78.1934C14.8615 77.5055 14.3041 76.9482 13.6164 76.9482C12.9288 76.9482 12.3713 77.5055 12.3713 78.1934V80.707C12.3713 81.8513 13.3022 82.7822 14.4465 82.7822H19.46C20.6044 82.7822 21.5352 81.8513 21.5352 80.707V69.9115H22.0985L34.927 81.7878C35.6195 82.4291 36.5208 82.7822 37.4647 82.7822H70.5646C71.709 82.7822 72.6398 81.8513 72.6398 80.707V69.9115H83.1791C83.8681 69.9115 84.49 69.5298 84.8016 68.9154C85.1132 68.301 85.0544 67.5737 84.6477 67.0178ZM37.2235 39.903H34.3845V33.1111H37.2235V39.903ZM2.36223 68.4881L2.36306 68.4867C2.36273 68.4873 2.3624 68.4876 2.36223 68.4881ZM3.14267 67.4211L11.4066 56.1241C11.8133 55.5679 11.8724 54.8409 11.5607 54.2263C11.2489 53.6117 10.6272 53.2302 9.93819 53.2302H8.06271L13.9103 45.2366C14.3172 44.6804 14.3761 43.9535 14.0643 43.3389C13.7526 42.7243 13.1308 42.3428 12.4419 42.3428H11.4363L16.948 34.8078L22.4599 42.3428H21.4544C20.7654 42.3428 20.1437 42.7244 19.8319 43.3389C19.5201 43.9533 19.5792 44.6804 19.986 45.2364L25.8335 53.2302H23.9582C23.2692 53.2302 22.6475 53.6119 22.3357 54.2263C22.024 54.8408 22.0831 55.5679 22.4898 56.1239L30.7537 67.4211H3.14267ZM36.6189 79.9604L25.7643 69.9115H32.0754C32.7643 69.9115 33.3861 69.5298 33.6978 68.9154C34.0096 68.301 33.9505 67.5738 33.5438 67.0178L25.2799 55.7206H27.1552C27.8441 55.7206 28.4659 55.339 28.7775 54.7247C29.0893 54.1105 29.0303 53.3833 28.6236 52.827L27.9884 51.9586L46.7724 45.8175C47.5731 45.5558 48.1867 44.9481 48.456 44.1497C48.7253 43.3515 48.6049 42.4962 48.1263 41.8031L42.1238 33.1111H46.4907L59.7324 41.9671C59.3431 42.5197 59.2892 43.2326 59.596 43.8371C59.9077 44.4513 60.5295 44.833 61.2183 44.833H62.2238L60.0628 47.7873L52.7903 50.3778C52.1425 50.6087 51.8045 51.3207 52.0353 51.9685C52.2167 52.4782 52.6963 52.7961 53.2082 52.7961C53.3468 52.7961 53.4879 52.7727 53.626 52.7236L57.4475 51.3624L56.3762 52.827C55.9695 53.3833 55.9106 54.1103 56.2224 54.7247C56.5341 55.339 57.1559 55.7206 57.8447 55.7206H59.72L51.6021 66.8181L39.3437 58.2154C39.2639 58.1594 39.23 58.0821 39.2433 57.9854C39.2564 57.8886 39.3097 57.8231 39.4015 57.7904L48.1447 54.6761C48.7925 54.4453 49.1305 53.7331 48.8999 53.0853C48.6693 52.4375 47.9569 52.0997 47.3091 52.3301L38.5658 55.4444C37.5994 55.7887 36.9134 56.6341 36.7756 57.6507C36.6376 58.6671 37.0736 59.6647 37.9133 60.2537L63.4757 78.193V80.2918H37.4647C37.1501 80.292 36.8498 80.1742 36.6189 79.9604ZM63.4759 75.1509L56.0098 69.9113H63.4759V75.1509ZM70.1496 80.292H65.9661V69.9115H70.1496V80.292ZM54.2464 67.4211L62.5104 56.1241C62.9171 55.5679 62.9762 54.8409 62.6644 54.2263C62.3526 53.6119 61.7309 53.2302 61.0419 53.2302H59.1666L61.8402 49.5756C61.843 49.5719 61.8456 49.5681 61.8483 49.5645L65.0142 45.2366C65.4209 44.6804 65.48 43.9535 65.1683 43.3389C64.8565 42.7243 64.2348 42.3428 63.5458 42.3428H62.5402L68.0521 34.8078L73.5638 42.3428H72.5583C71.8693 42.3428 71.2476 42.7244 70.9358 43.3389C70.624 43.9533 70.6831 44.6804 71.0899 45.2364L76.9374 53.2302H75.0621C74.3732 53.2302 73.7513 53.6119 73.4397 54.2263C73.1281 54.8408 73.187 55.5679 73.5937 56.1239L81.8577 67.4211H54.2464Z" fill="black"/>
</svg>
