<svg width="22" height="22" viewBox="0 0 22 22" fill="none" xmlns="http://www.w3.org/2000/svg">
<g filter="url(#filter0_f_458_2)">
<g filter="url(#filter1_d_458_2)">
<path d="M0.978144 11.0184C0.9775 12.7776 1.43593 14.4948 2.3073 16.0085L0.894531 21.1807L6.17353 19.7928C7.62798 20.5881 9.26559 21.0072 10.9321 21.0079H10.9364C16.4246 21.0079 20.8922 16.5296 20.8945 11.0265C20.8954 8.35927 19.8605 5.85143 17.9805 3.96481C16.1003 2.07823 13.6001 1.03873 10.9364 1.03755C5.4473 1.03755 0.980326 5.51505 0.978144 11.0184V11.0184Z" fill="black"/>
</g>
<path d="M0.978144 11.0184C0.9775 12.7776 1.43593 14.4948 2.3073 16.0085L0.894531 21.1807L6.17353 19.7928C7.62798 20.5881 9.26559 21.0072 10.9321 21.0079H10.9364C16.4246 21.0079 20.8922 16.5296 20.8945 11.0265C20.8954 8.35927 19.8605 5.85143 17.9805 3.96481C16.1003 2.07823 13.6001 1.03873 10.9364 1.03755C5.4473 1.03755 0.980326 5.51505 0.978144 11.0184V11.0184Z" fill="black" fill-opacity="0.2"/>
</g>
<path d="M1.33629 10.9146C1.33579 12.6066 1.77786 14.2587 2.61854 15.7148L1.25586 20.6904L6.3476 19.3553C7.75042 20.1199 9.32985 20.5234 10.9373 20.524H10.9416C16.235 20.524 20.5439 16.2164 20.5461 10.9221C20.5472 8.35655 19.549 5.9442 17.7354 4.12932C15.9222 2.31444 13.5106 1.31444 10.9412 1.31329C5.6472 1.31329 1.33844 5.62045 1.33629 10.9146Z" fill="url(#paint0_linear_458_2)"/>
<path d="M0.991745 10.9107C0.991101 12.6637 1.44913 14.3749 2.31972 15.8833L0.908203 21.0371L6.18259 19.6541C7.63575 20.4466 9.27189 20.8643 10.937 20.8649H10.9413C16.4246 20.8649 20.8883 16.4025 20.8906 10.9188C20.8916 8.26097 19.8576 5.76201 17.9792 3.88201C16.1006 2.00208 13.6026 0.966304 10.9413 0.965087C5.457 0.965087 0.993928 5.42677 0.991709 10.9107H0.991745ZM4.13268 15.6235L3.93579 15.3108C3.10795 13.9946 2.67092 12.4734 2.67164 10.9114C2.67339 6.35328 6.38291 2.64505 10.9444 2.64505C13.1534 2.64595 15.2294 3.50695 16.7909 5.06949C18.3522 6.63192 19.2114 8.70906 19.2107 10.9181C19.2088 15.4764 15.4992 19.1851 10.9413 19.1851H10.9381C9.45393 19.1843 7.99847 18.7859 6.72906 18.0326L6.42695 17.8535L3.29704 18.6741L4.13268 15.6235Z" fill="#F9F9F9"/>
<path fill-rule="evenodd" clip-rule="evenodd" d="M8.45563 6.75371C8.2694 6.33976 8.07337 6.33142 7.8962 6.32416C7.7513 6.31797 7.58539 6.31836 7.41978 6.31836C7.25405 6.31836 6.98468 6.38062 6.75692 6.62938C6.52901 6.87815 5.88672 7.47951 5.88672 8.70262C5.88672 9.92588 6.77763 11.1077 6.90182 11.2737C7.02611 11.4395 8.62167 14.0296 11.1485 15.0261C13.2485 15.8542 13.6758 15.6895 14.1317 15.6481C14.5875 15.6067 15.6025 15.0468 15.8097 14.4663C16.0168 13.8859 16.0168 13.3884 15.9547 13.2844C15.8925 13.1808 15.7268 13.1186 15.4782 12.9943C15.2295 12.87 14.0073 12.2685 13.7794 12.1856C13.5515 12.1028 13.3858 12.0613 13.22 12.3102C13.0543 12.5589 12.5782 13.1186 12.4331 13.2844C12.288 13.4506 12.143 13.4713 11.8944 13.347C11.6458 13.2223 10.8451 12.96 9.89523 12.1131C9.1562 11.4542 8.65731 10.6405 8.51219 10.3916C8.36718 10.143 8.4967 10.0083 8.62139 9.88438C8.73302 9.773 8.87005 9.59421 8.99434 9.44903C9.11838 9.30387 9.15985 9.20026 9.24271 9.0345C9.32557 8.86849 9.28414 8.7233 9.222 8.59901C9.15985 8.47468 8.6767 7.24523 8.45563 6.75371Z" fill="white"/>
<defs>
<filter id="filter0_f_458_2" x="0.751419" y="0.893997" width="20.2862" height="20.4298" filterUnits="userSpaceOnUse" color-interpolation-filters="sRGB">
<feFlood flood-opacity="0" result="BackgroundImageFix"/>
<feBlend mode="normal" in="SourceGraphic" in2="BackgroundImageFix" result="shape"/>
<feGaussianBlur stdDeviation="0.0715564" result="effect1_foregroundBlur_458_2"/>
</filter>
<filter id="filter1_d_458_2" x="7.68304e-05" y="-0.000457749" width="21.7889" height="21.9325" filterUnits="userSpaceOnUse" color-interpolation-filters="sRGB">
<feFlood flood-opacity="0" result="BackgroundImageFix"/>
<feColorMatrix in="SourceAlpha" type="matrix" values="0 0 0 0 0 0 0 0 0 0 0 0 0 0 0 0 0 0 127 0" result="hardAlpha"/>
<feOffset dy="-0.143113"/>
<feGaussianBlur stdDeviation="0.447227"/>
<feComposite in2="hardAlpha" operator="out"/>
<feColorMatrix type="matrix" values="0 0 0 0 0 0 0 0 0 0 0 0 0 0 0 0 0 0 0.21 0"/>
<feBlend mode="normal" in2="BackgroundImageFix" result="effect1_dropShadow_458_2"/>
<feBlend mode="normal" in="SourceGraphic" in2="effect1_dropShadow_458_2" result="shape"/>
</filter>
<linearGradient id="paint0_linear_458_2" x1="10.9009" y1="20.6904" x2="10.9009" y2="1.31327" gradientUnits="userSpaceOnUse">
<stop stop-color="#20B038"/>
<stop offset="1" stop-color="#60D66A"/>
</linearGradient>
</defs>
</svg>
