<svg width="85" height="85" viewBox="0 0 85 85" fill="none" xmlns="http://www.w3.org/2000/svg">
<path d="M80.4068 64.8077C79.3395 63.7407 77.9209 63.1532 76.4113 63.1532C76.4106 63.1532 76.4096 63.1532 76.4091 63.1532H76.278C74.837 63.1537 73.5591 63.8645 72.7756 64.9536L64.3647 56.5428L62.6531 43.7054C61.8985 38.047 57.0247 33.7797 51.3121 33.7797C49.7429 33.7797 48.4665 35.0562 48.4665 36.6252V39.5625C48.4665 42.8523 45.79 45.5291 42.4999 45.5291C39.21 45.5291 36.5333 42.8524 36.5333 39.5625V36.6252C36.5333 35.056 35.2568 33.7797 33.6838 33.7797C27.9751 33.7797 23.1012 38.047 22.347 43.7054L20.6352 56.5428L12.2265 64.9515C12.0905 64.7629 11.9385 64.5839 11.7708 64.4162C10.956 63.6016 9.87306 63.1532 8.71975 63.1532H8.71892C5.53075 63.1538 2.93726 65.7482 2.93726 68.9362C2.93726 72.067 5.43878 74.623 8.54792 74.7147C7.79039 75.7795 7.34331 77.0794 7.34331 78.4826C7.34348 82.0765 10.2672 85 13.8608 85H71.1395C74.7332 85 77.6567 82.0765 77.6567 78.4827C77.6567 77.0796 77.2095 75.7798 76.4523 74.715C79.5611 74.6244 82.0628 72.0581 82.0628 68.9146V68.804C82.0628 67.2943 81.4748 65.875 80.4068 64.8077ZM54.3996 59.6179L54.8744 55.5825L55.3135 57.7781C55.7091 59.757 56.6729 61.5573 58.0999 62.9845L67.0809 71.9654H56.7934L54.6385 63.3454C54.3327 62.123 54.2524 60.869 54.3996 59.6179ZM33.688 36.5334C33.7386 36.5334 33.7798 36.5746 33.7798 36.6252V39.5625C33.7798 44.3708 37.6918 48.2828 42.5001 48.2828C47.3084 48.2828 51.2204 44.3708 51.2204 39.5625V36.6252C51.2204 36.5746 51.2617 36.5334 51.316 36.5334C52.352 36.5334 53.3511 36.7203 54.2806 37.0608L51.6647 59.296C51.4781 60.8794 51.5798 62.4667 51.9667 64.0131L53.9547 71.9653H31.0455L33.0336 64.0131C33.4202 62.4664 33.522 60.8793 33.3357 59.296L30.7198 37.0613C31.6502 36.7205 32.6504 36.5334 33.688 36.5334ZM30.126 55.5824L30.6008 59.6177C30.748 60.869 30.6677 62.123 30.362 63.3454L28.207 71.9654H17.9192L26.9001 62.9845C28.3272 61.5574 29.2907 59.7572 29.6865 57.7781L30.126 55.5824ZM8.72041 71.9654C7.05013 71.9654 5.69129 70.6066 5.69129 68.9363C5.69129 67.2664 7.04979 65.9075 8.72058 65.9072C9.13728 65.9072 9.52907 66.0692 9.82375 66.3639C10.1186 66.6586 10.281 67.0504 10.281 67.4676C10.281 68.0246 10.6163 68.5264 11.131 68.7396C11.6456 68.9528 12.2378 68.8351 12.6314 68.4411L22.9123 58.1602C23.1261 57.9464 23.2637 57.6682 23.3036 57.3687L25.0768 44.0693C25.3724 41.8512 26.5032 39.9165 28.1235 38.5619L29.0857 46.741L26.9864 57.2379C26.6977 58.6819 25.9945 59.9957 24.9533 61.0371L14.0251 71.9653H13.8608H8.72041V71.9654ZM36.7171 82.2463H13.8608C11.7856 82.2463 10.0972 80.5581 10.0972 78.4827C10.0972 76.4074 11.7854 74.7191 13.8608 74.7191H23.499V75.392C23.499 77.4297 24.8882 79.1616 26.8772 79.6035L36.717 81.7902V82.2463H36.7171ZM36.7171 78.9692L27.4747 76.9152C26.7552 76.7553 26.2528 76.129 26.2528 75.3918V74.7191H36.7171V78.9692ZM71.1395 82.2463H39.471V74.7193H71.1396C73.2147 74.7195 74.9029 76.4077 74.9029 78.4829C74.9029 80.5579 73.2147 82.2463 71.1395 82.2463ZM79.3089 68.9146C79.3089 70.5968 77.9512 71.9654 76.2826 71.9654H70.9754L60.0473 61.0371C59.0059 59.9957 58.3026 58.6817 58.0139 57.2379L55.9145 46.7409L56.8767 38.5618C58.4969 39.9163 59.6278 41.8512 59.9235 44.0695L61.6967 57.3689C61.7367 57.6685 61.8741 57.9466 62.088 58.1604L72.3688 68.4413C72.7628 68.8351 73.3548 68.9528 73.8694 68.7398C74.3841 68.5266 74.7194 68.0246 74.7194 67.4678C74.7194 66.6075 75.4192 65.9075 76.2796 65.9072H76.4108C76.4111 65.9072 76.4115 65.9072 76.412 65.9072C77.1856 65.9072 77.9131 66.2085 78.4603 66.7554C79.0074 67.3026 79.3091 68.0304 79.3091 68.8043V68.9146H79.3089Z" fill="black"/>
<path d="M48.1218 7.14216C48.2288 6.69973 48.283 6.24518 48.283 5.78282C48.283 2.59433 45.6887 0 42.5001 0C39.3114 0 36.7171 2.59433 36.7171 5.78299C36.7171 6.24567 36.7722 6.69989 36.8789 7.14183C32.4458 9.25155 29.3735 13.7737 29.3735 19.0012V20.3504C29.3735 21.1074 29.9848 21.7226 30.7422 21.7273C30.8316 21.7271 31.3983 21.7271 32.3108 21.6682V23.4074C32.3108 29.0257 36.8816 33.5964 42.4999 33.5964C48.1182 33.5964 52.6889 29.0257 52.6889 23.4074V21.6933C53.1875 21.791 53.7078 21.847 54.2495 21.847C55.01 21.847 55.6264 21.2306 55.6264 20.4701V19.0013C55.6264 13.774 52.5545 9.25188 48.1218 7.14216ZM42.5001 2.7537C44.1703 2.7537 45.5292 4.11254 45.5292 5.78282C45.5292 5.93174 45.5152 6.07816 45.4942 6.22326C44.5316 5.99765 43.5304 5.87463 42.5001 5.87463C41.4699 5.87463 40.4685 5.99765 39.5061 6.2231C39.4852 6.07833 39.4709 5.9319 39.4709 5.78282C39.4709 4.11271 40.8298 2.7537 42.5001 2.7537ZM49.9352 23.4072C49.9352 27.507 46.5998 30.8424 42.5001 30.8424C38.4003 30.8424 35.0649 27.507 35.0649 23.4072V21.3875C38.1584 20.962 42.476 20.0032 46.5512 17.8405C47.2577 18.6558 48.415 19.7995 49.9354 20.6565L49.9352 23.4072ZM48.0496 15.2968C47.6431 14.6907 46.8342 14.5068 46.2055 14.8783C40.9518 17.983 34.8099 18.734 32.1277 18.9155C32.1742 13.2354 36.8092 8.6285 42.5001 8.6285C48.1894 8.6285 52.8236 13.2329 52.8722 18.9112C50.0116 18.1593 48.072 15.3297 48.0496 15.2968Z" fill="black"/>
</svg>
