<svg width="85" height="85" viewBox="0 0 85 85" fill="none" xmlns="http://www.w3.org/2000/svg">
<path d="M80.4364 82.5448H80.4419C81.1584 82.5448 81.8112 82.1234 82.106 81.4701C82.4016 80.8149 82.2843 80.0443 81.8072 79.5069L76.9089 73.9903C75.6193 72.4747 73.4647 72.007 71.6622 72.8531C71.0257 73.1519 70.4628 73.6046 70.0346 74.1621L69.6451 74.6691L67.2012 75.1057L59.0344 72.8043C56.1248 71.9845 53.0406 71.9543 50.1147 72.7179L49.4472 72.892L41.8919 64.9473C41.61 62.4285 40.4708 60.0855 38.6523 58.3045L37.4784 57.1548C36.68 53.0169 37.8109 48.665 40.5405 45.4413L41.2938 44.5516C42.4775 43.257 43.2264 41.5975 43.4035 39.8398L44.6635 40.0294L44.555 40.4468C44.2127 41.7625 44.1694 43.1631 44.43 44.4975C45.0459 47.6526 47.3103 50.2812 50.3397 51.3573L51.0181 51.5983C51.1632 51.6497 51.3133 51.6748 51.4624 51.6748C51.7936 51.6748 52.1191 51.5507 52.3691 51.3173C52.7316 50.9786 52.8752 50.4663 52.7415 49.9885L51.9658 47.2186C51.5319 45.6689 51.8036 44.018 52.7112 42.689C53.9062 40.939 54.0056 38.7033 52.9706 36.8542L52.6779 36.3313C52.9246 35.6827 53.0564 34.9883 53.0564 34.2782C53.0564 32.0914 51.7877 30.0563 49.8245 29.0934L48.9794 28.6789L47.524 27.8189L45.7917 26.0078L47.1604 24.2846C47.8992 23.3544 48.439 22.2545 48.7235 21.1008L51.439 12.651L54.0857 10.7346C54.3362 10.5532 54.5155 10.29 54.5928 9.99043L55.859 5.07951C55.9497 4.72785 55.8924 4.35448 55.7005 4.04629C55.5086 3.73793 55.1989 3.52165 54.8434 3.44772L49.2311 2.28027C48.6304 2.15398 48.0223 2.45779 47.76 3.01258L45.0362 8.77158L37.8699 21.4833C37.3187 22.4609 36.9352 23.5163 36.73 24.6199L35.1029 33.3737L29.2117 35.1138C26.4993 35.9148 24.7084 38.5414 24.9534 41.3591L25.1412 43.5193L24.9708 44.3513C24.1711 48.2558 24.1593 52.3449 24.9239 56.2617L15.3411 53.1065C13.9868 52.6608 12.5091 52.7002 11.182 53.2167L11.1097 53.2448C8.16681 54.3905 6.51339 57.4587 7.17833 60.5401C8.17653 65.1653 9.70343 72.2813 10.2542 74.8498L7.16487 76.5473C5.88449 77.2507 5.30717 78.7614 5.79167 80.1384L5.80294 80.1705C6.22803 81.3785 7.3685 82.1879 8.64329 82.1879H8.65479C9.95219 82.1832 12.0568 82.1819 13.667 82.1816C15.5243 82.1811 17.2425 81.2544 18.2643 79.7014L18.289 79.6637C19.0068 78.5725 19.3247 77.2602 19.1841 75.9685C18.9328 73.6623 18.4539 69.2557 18.1409 66.3748C20.4489 67.8033 22.8451 69.1097 25.2893 70.2713L26.589 70.8888L43.177 80.8212C44.7954 81.7904 46.6481 82.3121 48.5343 82.3301L80.4364 82.5448ZM70.6185 77.1935C70.9443 77.1353 71.2366 76.9576 71.4382 76.6953L72.141 75.7803C72.3121 75.5577 72.5368 75.3769 72.791 75.2576C73.5127 74.9189 74.3763 75.1078 74.8907 75.7174C74.898 75.7258 74.9052 75.7342 74.9125 75.7425L78.5889 79.883L68.2973 79.8523L68.4089 77.5882L70.6185 77.1935ZM27.4139 45.7374L35.0685 50.482C34.5783 52.4576 34.4445 54.5216 34.6969 56.5627L27.7735 56.8814C26.903 53.2516 26.7819 49.4194 27.4139 45.7374ZM50.5177 41.191C49.1874 43.1389 48.7748 45.5515 49.3788 47.8276C48.184 46.879 47.3362 45.5213 47.0369 43.9885C46.8522 43.0421 46.8829 42.0488 47.1256 41.1156L47.3374 40.3013C48.5926 40.2244 49.7988 39.7398 50.7669 38.8997L50.9111 38.7745C51.1443 39.5883 51.0108 40.469 50.5177 41.191ZM47.7861 34.3863L48.9912 31.6722C49.8572 32.2431 50.4002 33.2277 50.4002 34.2782C50.4002 35.1823 50.0085 36.0409 49.3257 36.6335L49.0259 36.8935C48.3357 37.4926 47.4219 37.758 46.5179 37.6221L43.6218 37.1865L43.736 35.7712L46.8337 35.1496C47.2561 35.0648 47.6113 34.7803 47.7861 34.3863ZM46.6542 30.3902L45.6373 32.6804L43.9583 33.0174L44.3366 28.3295L45.731 29.7873C45.815 29.875 45.9106 29.9509 46.0151 30.0127L46.6542 30.3902ZM39.3415 25.1055C39.4931 24.29 39.7765 23.5102 40.1838 22.7877L47.3734 10.0347C47.389 10.0071 47.4036 9.97893 47.4171 9.95039L49.7141 5.09378L52.9392 5.76465L52.1402 8.86383L49.5288 10.7549C49.2999 10.9205 49.1298 11.1551 49.0433 11.4243C49.0433 11.4243 46.1606 20.398 46.1528 20.4306C45.9616 21.2286 45.5907 21.9901 45.0803 22.6326L42.0493 26.4488C41.8854 26.6551 41.7866 26.9054 41.7654 27.168L40.7728 39.4668C40.6772 40.6522 40.1937 41.7765 39.4184 42.6639C39.3951 42.6875 38.9436 43.1545 38.7434 43.3168C37.82 44.0653 36.5078 44.1689 35.4784 43.575C34.585 43.0595 34.0304 42.0984 34.0312 41.0666L34.0317 40.4327C34.032 39.7931 34.2487 39.1628 34.6418 38.6578C34.6418 38.6578 37.319 35.2159 37.3249 35.2079C37.3452 35.1806 39.3415 25.1055 39.3415 25.1055ZM29.9642 37.6611L32.8213 36.5346C32.0673 37.5033 31.3761 39.2042 31.3755 40.431L31.375 41.0645C31.3733 43.0434 32.4371 44.8869 34.151 45.8759C34.8998 46.3078 35.7261 46.5474 36.5604 46.6002C36.3339 47.0233 36.127 47.456 35.9382 47.8959L27.7465 42.8184L27.5996 41.1289C27.4636 39.5644 28.4581 38.1059 29.9642 37.6611ZM16.0444 78.2428C15.5162 79.0456 14.6272 79.5252 13.6664 79.5254C12.0534 79.5257 9.94493 79.527 8.64493 79.5317H8.64355C8.49196 79.5317 8.36056 79.4365 8.30902 79.29L8.29774 79.2578C8.24611 79.1111 8.30764 78.9503 8.44399 78.8754L12.1261 76.8523L16.5561 76.6742C16.537 77.2141 16.3713 77.7456 16.0691 78.205L16.0444 78.2428ZM44.5415 78.5424C44.5415 78.5424 27.8251 68.5353 27.7867 68.5171L26.4295 67.8722C23.427 66.4451 20.4993 64.7915 17.7275 62.9565L17.2528 62.6423C17.0309 62.4956 16.7755 62.4219 16.5197 62.4219C16.2807 62.4219 16.0413 62.4864 15.8287 62.6158C15.3891 62.8836 15.1438 63.3815 15.1995 63.8935C15.1995 63.8935 15.8533 69.9125 16.3007 74.0262L12.8242 74.166C12.2517 71.4967 10.7573 64.5322 9.77475 59.9798C9.38671 58.1812 10.3534 56.3897 12.0721 55.7206L12.1444 55.6926C12.8999 55.3983 13.7402 55.3759 14.5104 55.6295C14.5104 55.6295 26.5182 59.5672 26.5417 59.5708C26.5579 59.5733 35.7435 59.1735 35.7435 59.1735L36.7937 60.2022C38.263 61.6412 39.148 63.5639 39.2856 65.6161C39.3062 65.9254 39.4346 66.2177 39.6482 66.4424L48.0622 75.2902C48.3952 75.6404 48.8924 75.7822 49.3601 75.66L50.7854 75.2881C53.2549 74.644 55.8582 74.6689 58.3139 75.361L65.7559 77.4581L65.6386 79.836L48.5596 79.6739C47.1449 79.6604 45.7554 79.2692 44.5415 78.5424Z" fill="black"/>
</svg>
