<svg width="85" height="85" viewBox="0 0 85 85" fill="none" xmlns="http://www.w3.org/2000/svg">
<g clip-path="url(#clip0_47_104)">
<path d="M43.4398 19.1632C42.0912 18.3749 40.3084 18.633 38.4418 19.8513C37.4524 17.9613 36.0662 16.8031 34.5086 16.8031C32.951 16.8031 31.5648 17.9613 30.5754 19.8511C28.709 18.6328 26.926 18.3744 25.5774 19.163C22.9197 20.7173 23.0632 25.8387 25.9043 30.8225C28.0657 34.6143 31.0754 37.1234 33.6005 37.3731V42.9219C33.6005 43.4234 34.007 43.83 34.5086 43.83C35.0102 43.83 35.4167 43.4234 35.4167 42.9219V37.373C37.9417 37.1229 40.9517 34.6139 43.113 30.8223C45.954 25.8387 46.0975 20.7173 43.4398 19.1632ZM27.4821 29.9233C25.0206 25.6052 24.9859 21.6131 26.4944 20.7311C27.2671 20.2785 28.4998 20.5904 29.8576 21.5582C28.6105 25.2886 28.6614 29.8626 30.2018 33.5013C29.2626 32.5904 28.3189 31.391 27.4821 29.9233ZM34.5086 35.5271C32.773 35.5271 30.8393 32.0552 30.8393 27.0734C30.8393 22.0915 32.773 18.6196 34.5086 18.6196C36.2442 18.6196 38.1779 22.0915 38.1779 27.0734C38.1779 32.0552 36.2442 35.5271 34.5086 35.5271ZM41.5353 29.9233C40.6991 31.3904 39.7561 32.5857 38.8176 33.4962C40.3556 29.8584 40.4063 25.2871 39.1596 21.5582C40.5173 20.5904 41.7498 20.2785 42.5228 20.7311C44.0311 21.6131 43.9965 25.6052 41.5353 29.9233Z" fill="black"/>
<path d="M84.0919 83.1838H9.55814C9.77645 76.7597 7.35595 70.4185 3.13864 65.5987C12.1243 66.5374 14.1481 74.9471 14.5657 77.6658C14.7366 78.7785 16.518 78.5747 16.3636 77.4087C15.529 71.1114 17.322 66.5098 18.6435 64.1025C19.9412 71.3767 23.1756 77.2743 23.3271 77.5476C23.729 78.2726 24.8514 78.0967 25.0122 77.2833C26.6824 68.8287 25.4982 59.7138 21.8228 51.9203C30.681 54.6882 33.1006 68.5767 33.63 72.7253C33.6685 73.1261 33.7127 73.5301 33.7626 73.9375C33.8985 75.0405 35.6571 74.9161 35.5694 73.7584C35.5645 73.6926 35.5249 73.1897 35.4208 72.3702C34.7047 64.58 36.0781 56.5408 39.5297 49.5049C39.0802 57.8004 40.7922 66.9389 44.6099 74.3699C45.1023 75.3271 46.5994 74.7199 46.2861 73.6903C44.8293 68.8992 46.4089 63.9796 49.5713 60.2437C49.324 68.0432 51.9973 74.3087 52.123 74.5984C52.471 75.3994 53.6815 75.267 53.8477 74.4093C56.0117 63.2256 54.1572 54.5649 52.2203 49.2689C51.1736 46.4065 50.0034 44.2034 49.0759 42.6936C57.442 46.8444 58.6987 59.3411 59.1373 63.703C59.1865 64.1948 59.2258 64.5831 59.2652 64.8635C59.4522 66.1981 60.9495 66.5107 61.2964 65.0165C64.0477 53.1406 69.2906 47.1834 73.2043 44.277C75.0675 42.8932 76.8153 42.0501 78.1895 41.5396C69.9957 51.0574 66.0766 65.159 66.0592 77.5745C66.0575 78.6444 67.7383 78.7861 67.869 77.6827C68.7474 70.2801 73.4224 64.7073 81.1105 64.0635C78.9508 66.1449 77.2685 69.6559 76.0904 74.5526C75.9731 75.0403 76.2733 75.5307 76.761 75.648C77.2483 75.7653 77.739 75.4649 77.8562 74.9774C79.3114 68.9277 81.5833 65.1351 84.4259 64.0088C85.2772 63.6717 85.1175 62.3833 84.2098 62.2641C78.2047 61.4735 71.7118 64.2811 68.5901 69.5147C70.1317 59.0472 73.8517 48.0286 81.6405 40.5276C82.2424 39.9476 81.7687 38.8962 80.9338 38.9687C80.7691 38.9827 76.8464 39.3495 72.2288 42.7392C68.8271 45.2363 64.4976 49.8474 61.4377 58.1542V42.822C63.9627 42.5719 66.9727 40.0628 69.1339 36.2714C71.975 31.2876 72.1185 26.166 69.4608 24.6119C68.1119 23.8234 66.3292 24.0819 64.4629 25.3C63.4734 23.41 62.0872 22.252 60.5296 22.252C58.972 22.252 57.5859 23.4102 56.5964 25.3002C54.7298 24.0817 52.947 23.8236 51.5985 24.612C48.9407 26.1662 49.0842 31.2876 51.9252 36.2716C54.0867 40.0633 57.0964 42.5725 59.6215 42.8222V55.3361C58.0677 49.1171 54.6881 41.8956 46.9113 39.9831C46.0729 39.7775 45.4447 40.7978 46.0037 41.4546C46.029 41.4842 48.5503 44.4821 50.5456 49.9776C52.1695 54.451 53.7291 61.439 52.6415 70.4023C51.836 67.4246 50.9955 62.8482 51.5578 57.9369C51.6486 57.1411 50.6952 56.6236 50.0775 57.1333C46.8846 59.7683 44.5587 63.9318 44.024 68.0251C42.2748 62.762 40.3425 54.339 41.7875 45.4585C41.9371 44.5367 40.7072 44.0236 40.1571 44.7777C36.2058 50.2067 34.2356 57.5174 33.6191 64.0989C31.6062 57.7074 27.5613 50.6598 20.2491 49.7266C19.5122 49.6329 18.9746 50.4535 19.3537 51.0919C19.4167 51.1978 25.2027 61.1308 23.6758 74.1C22.442 71.313 20.6555 66.5772 20.1023 61.5044C20.018 60.7318 19.0226 60.4203 18.5135 61.008C18.3424 61.2053 15.1645 64.9556 14.4643 71.564C13.8021 70.2687 12.9207 68.9372 11.756 67.7457V53.7196C14.2809 53.4697 17.2911 50.9606 19.4523 47.169C22.2932 42.1852 22.4367 37.0636 19.7792 35.5095C18.4303 34.7209 16.6477 34.9791 14.7811 36.1976C13.7916 34.3077 12.4055 33.1496 10.8479 33.1496C9.29025 33.1496 7.90427 34.3078 6.91479 36.1976C5.04824 34.9791 3.26524 34.7209 1.91668 35.5095C-0.740844 37.0636 -0.597361 42.1851 2.2436 47.169C4.40493 50.9608 7.41462 53.4699 9.93973 53.7196V66.1939C7.73627 64.6349 4.79796 63.5943 0.881603 63.7057C0.0682906 63.7293 -0.300951 64.7742 0.317479 65.3032C0.397938 65.3719 8.14874 72.1434 7.74118 83.1838H0.90812C0.406474 83.1838 0 83.5904 0 84.0919C0 84.5933 0.406474 85 0.90812 85H84.0919C84.5935 85 85 84.5933 85 84.0919C85 83.5904 84.5935 83.1838 84.0919 83.1838ZM65.181 27.0069C66.5388 26.0391 67.7708 25.7276 68.5441 26.1798C70.0527 27.0618 70.0178 31.0539 67.5565 35.372C66.7201 36.8393 65.7764 38.038 64.8374 38.9487C66.3772 35.3102 66.428 30.7369 65.181 27.0069ZM53.5035 35.372C51.0421 31.0539 51.0076 27.0618 52.5158 26.1798C53.2886 25.7272 54.5211 26.0391 55.879 27.0071C54.6323 30.7364 54.683 35.3082 56.2215 38.9462C55.2831 38.0357 54.3397 36.8388 53.5035 35.372ZM56.8606 32.5221C56.8606 27.5402 58.7944 24.0683 60.53 24.0683C62.2656 24.0683 64.1993 27.5402 64.1993 32.5221C64.1993 37.5041 62.2656 40.9758 60.53 40.9758C58.7944 40.9758 56.8606 37.5039 56.8606 32.5221ZM15.4991 37.9044C16.8571 36.9365 18.089 36.625 18.8624 37.0771C20.3708 37.9592 20.3359 41.9513 17.8747 46.2694C17.038 47.7373 16.0942 48.936 15.1552 49.8465C16.6952 46.208 16.7461 41.6344 15.4991 37.9044ZM3.82173 46.2694C1.36036 41.9513 1.32567 37.9592 2.83406 37.0773C3.60687 36.6248 4.83955 36.9367 6.19737 37.9044C4.95071 41.6337 5.00138 46.2059 6.5401 49.844C5.60128 48.9335 4.65793 47.7364 3.82173 46.2694ZM7.17887 43.4196C7.17887 38.4376 9.11244 34.9657 10.848 34.9657C12.5836 34.9657 14.5174 38.4376 14.5174 43.4196C14.5174 48.4015 12.5836 51.8732 10.848 51.8732C9.11244 51.8732 7.17887 48.4013 7.17887 43.4196Z" fill="black"/>
<path d="M73.7393 16.4824C70.86 16.4824 68.5176 14.14 68.5176 11.2607C68.5176 8.38141 70.86 6.039 73.7393 6.039C76.6186 6.039 78.961 8.38141 78.961 11.2607C78.961 14.14 76.6186 16.4824 73.7393 16.4824ZM73.7393 7.85524C71.8615 7.85524 70.3338 9.38288 70.3338 11.2607C70.3338 13.1385 71.8615 14.6661 73.7393 14.6661C75.6171 14.6661 77.1447 13.1385 77.1447 11.2607C77.1447 9.38288 75.6171 7.85524 73.7393 7.85524Z" fill="black"/>
<path d="M73.7393 3.825C73.2377 3.825 72.8312 3.41834 72.8312 2.91688V0.90812C72.8312 0.406656 73.2377 0 73.7393 0C74.2409 0 74.6474 0.406656 74.6474 0.90812V2.91688C74.6474 3.41834 74.2409 3.825 73.7393 3.825Z" fill="black"/>
<path d="M67.8395 6.26874C67.6072 6.26874 67.3745 6.1801 67.1974 6.00284L65.7771 4.58254C65.4224 4.22783 65.4224 3.65281 65.7771 3.29828C66.1315 2.94375 66.7069 2.94375 67.0612 3.29828L68.4815 4.71858C69.0208 5.25764 68.6018 6.26874 67.8395 6.26874Z" fill="black"/>
<path d="M65.3955 12.1688H63.3868C62.8851 12.1688 62.4786 11.7622 62.4786 11.2607C62.4786 10.7592 62.8851 10.3526 63.3868 10.3526H65.3955C65.8972 10.3526 66.3036 10.7592 66.3036 11.2607C66.3036 11.7622 65.897 12.1688 65.3955 12.1688Z" fill="black"/>
<path d="M66.419 19.4892C65.6565 19.4892 65.2377 18.4779 65.7769 17.9388L67.1972 16.5185C67.5516 16.164 68.127 16.164 68.4813 16.5185C68.836 16.8732 68.836 17.4483 68.4813 17.8028L67.061 19.2231C66.8839 19.4005 66.6515 19.4892 66.419 19.4892Z" fill="black"/>
<path d="M73.7393 22.5214C73.2377 22.5214 72.8312 22.1147 72.8312 21.6133V19.6045C72.8312 19.103 73.2377 18.6964 73.7393 18.6964C74.2409 18.6964 74.6474 19.103 74.6474 19.6045V21.6133C74.6474 22.1147 74.2409 22.5214 73.7393 22.5214Z" fill="black"/>
<path d="M81.0597 19.4892C80.8274 19.4892 80.5947 19.4005 80.4177 19.2233L78.9974 17.803C78.6426 17.4483 78.6426 16.8732 78.9974 16.5187C79.3517 16.1642 79.9271 16.1642 80.2814 16.5187L81.7017 17.939C82.241 18.4781 81.822 19.4892 81.0597 19.4892Z" fill="black"/>
<path d="M84.0919 12.1688H82.0832C81.5815 12.1688 81.175 11.7622 81.175 11.2607C81.175 10.7592 81.5815 10.3526 82.0832 10.3526H84.0919C84.5936 10.3526 85 10.7592 85 11.2607C85 11.7622 84.5936 12.1688 84.0919 12.1688Z" fill="black"/>
<path d="M79.6392 6.26877C78.8767 6.26877 78.4579 5.25748 78.9971 4.71842L80.4174 3.29812C80.7718 2.94359 81.3472 2.94359 81.7015 3.29812C82.0562 3.65284 82.0562 4.22786 81.7015 4.58239L80.2812 6.00269C80.1041 6.18013 79.8717 6.26877 79.6392 6.26877Z" fill="black"/>
<path d="M24.5819 6.24006C21.6345 6.24006 20.3517 8.28824 19.9136 10.0738C18.6875 8.24101 19.3458 5.60965 21.3134 4.60672C21.76 4.37915 21.9376 3.83228 21.71 3.3853C21.4827 2.93832 20.9361 2.76069 20.4897 2.98827C18.0758 4.21877 16.8957 7.13747 17.7385 9.71035C17.1607 9.69891 16.557 9.79208 16.0103 9.98406C16.1351 8.39485 16.0822 7.10659 15.8467 6.14907C15.1986 3.51716 12.9365 -0.670909 9.57085 0.199978C5.79942 1.17621 6.06569 6.97328 7.25096 9.70981C5.14558 8.83801 1.48949 8.43917 0.327822 11.0019C-1.36764 14.7401 3.92198 17.652 6.84158 18.0572C4.67735 20.5464 2.46917 25.1686 5.00137 28.1232C7.3603 30.8761 11.7053 29.5346 14.3323 27.9454C17.2114 26.2038 19.3179 23.3163 20.0369 20.0195C21.3401 19.829 22.6229 19.1817 23.2778 17.9911C24.3937 15.9629 23.3361 13.1252 21.5453 11.3847C21.5904 10.6161 21.9385 8.05649 24.5819 8.05649C25.0832 8.05649 25.4893 7.64983 25.4893 7.14837C25.4893 6.6469 25.0832 6.24006 24.5819 6.24006ZM10.0253 1.95828C12.2113 1.39252 13.7046 5.0408 14.0846 6.58351C14.3357 7.60424 14.3212 9.23613 14.0446 11.3125C13.3481 12.1129 12.9374 13.1708 12.8884 14.2299C12.7694 14.2624 12.6514 14.2969 12.5337 14.333C10.8949 12.3354 9.05413 10.2027 8.49291 7.60769C8.17125 6.12092 7.97346 2.48953 10.0253 1.95828ZM5.01989 15.7325C2.66641 14.6265 1.52926 12.7473 1.98024 11.7525C2.67368 10.2238 5.4231 10.9107 6.52883 11.3864C8.25661 12.1296 9.56031 13.6187 10.7129 15.059C9.95698 15.4339 9.24356 15.8847 8.58263 16.4021C6.5746 16.2833 5.53843 15.9762 5.01989 15.7325ZM8.60315 27.892C7.75188 27.9438 6.94093 27.5965 6.37917 26.9408C4.84445 25.1502 6.18429 22.1983 7.2555 20.5202C8.60933 18.3996 10.7171 16.7737 13.1299 16.0507C13.8368 18.2992 15.8881 19.7318 18.1702 20.0293C17.0399 24.3799 13.1654 27.6236 8.60315 27.892ZM21.6881 17.1152C20.7467 18.8259 17.8587 18.412 16.4958 17.5863C14.8612 16.5959 14.2188 14.541 15.0635 13.0054C15.9433 11.4064 17.9824 11.2082 19.4605 12.0435C21.1194 13.0486 22.5008 15.638 21.6881 17.1152Z" fill="black"/>
<path d="M18.6544 13.6156C19.2374 14.062 19.4617 14.8116 19.1557 15.2898C18.8496 15.768 18.1288 15.7936 17.5458 15.3472C16.9628 14.9008 16.7384 14.1512 17.0445 13.673C17.3505 13.195 18.0714 13.1692 18.6544 13.6156Z" fill="black"/>
<path d="M75.7938 80.6436C76.4458 80.6436 76.9744 80.1144 76.9744 79.4617C76.9744 78.809 76.4458 78.2799 75.7938 78.2799C75.1418 78.2799 74.6133 78.809 74.6133 79.4617C74.6133 80.1144 75.1418 80.6436 75.7938 80.6436Z" fill="black"/>
<path d="M34.4513 49.1306C35.1033 49.1306 35.6319 48.6014 35.6319 47.9487C35.6319 47.296 35.1033 46.7669 34.4513 46.7669C33.7993 46.7669 33.2708 47.296 33.2708 47.9487C33.2708 48.6014 33.7993 49.1306 34.4513 49.1306Z" fill="black"/>
</g>
<defs>
<clipPath id="clip0_47_104">
<rect width="85" height="85" fill="white"/>
</clipPath>
</defs>
</svg>
